<?xml version="1.0" encoding="UTF-8"?>
<svg height="128px" viewBox="0 0 128 128" width="128px" xmlns="http://www.w3.org/2000/svg" xmlns:xlink="http://www.w3.org/1999/xlink">
    <linearGradient id="a" gradientUnits="userSpaceOnUse" x1="64.000008" x2="64.000008" y1="3" y2="123">
        <stop offset="0" stop-color="#c0bfbc"/>
        <stop offset="1" stop-color="#f6f5f4"/>
    </linearGradient>
    <linearGradient id="b" gradientUnits="userSpaceOnUse" x1="64.00004318519" x2="64.00004318519" y1="13.000014" y2="113.000022">
        <stop offset="0" stop-color="#ffffff"/>
        <stop offset="1" stop-color="#c0bfbc"/>
    </linearGradient>
    <linearGradient id="c" gradientUnits="userSpaceOnUse" x1="72" x2="128" y1="128" y2="128">
        <stop offset="0" stop-color="#241f31"/>
        <stop offset="0.0714286" stop-color="#5e5c64"/>
        <stop offset="0.142857" stop-color="#3d3846"/>
        <stop offset="0.857143" stop-color="#241f31"/>
        <stop offset="0.928571" stop-color="#5e5c64"/>
        <stop offset="1" stop-color="#241f31"/>
    </linearGradient>
    <path d="m 124 65 c 0 33.136719 -26.863281 60 -60 60 s -60 -26.863281 -60 -60 s 26.863281 -60 60 -60 s 60 26.863281 60 60 z m 0 0" fill="#d5d3cf"/>
    <path d="m 124 63 c 0 33.136719 -26.863281 60 -60 60 s -60 -26.863281 -60 -60 s 26.863281 -60 60 -60 s 60 26.863281 60 60 z m 0 0" fill="url(#a)"/>
    <path d="m 118 63 c 0 29.824219 -24.175781 54 -54 54 s -54 -24.175781 -54 -54 s 24.175781 -54 54 -54 s 54 24.175781 54 54 z m 0 0" fill="#3584e4"/>
    <path d="m 114 63 c 0 27.613281 -22.386719 50 -50 50 s -50 -22.386719 -50 -50 s 22.386719 -50 50 -50 s 50 22.386719 50 50 z m 0 0" fill="url(#b)"/>
    <path d="m 64 113 c -27.613281 0 -50 -22.386719 -50 -50 c 0.019531 -0.332031 0.042969 -0.667969 0.074219 -1 c 0.542969 27.195312 22.726562 48.964844 49.925781 49 c 27.027344 -0.007812 49.160156 -21.496094 49.960938 -48.511719 c 0.015624 0.171875 0.027343 0.339844 0.039062 0.511719 c 0 27.613281 -22.386719 50 -50 50 z m 0 0" fill="#9a9996"/>
    <path d="m 64 31 c -2.203125 0 -4 1.796875 -4 4 v 20 c 0 2.203125 1.796875 4 4 4 s 4 -1.796875 4 -4 v -20 c 0 -2.203125 -1.796875 -4 -4 -4 z m -12.546875 7.265625 c -0.515625 0.0625 -1.015625 0.234375 -1.46875 0.5 c -10.9375 6.328125 -16.296875 19.265625 -13.03125 31.484375 c 3.28125 12.203125 14.375 20.734375 27 20.75 c 12.640625 0.015625 23.765625 -8.484375 27.0625 -20.671875 c 3.3125 -12.203125 -2 -25.15625 -12.921875 -31.515625 c -1.90625 -1.125 -4.359375 -0.484375 -5.46875 1.4375 c -0.53125 0.90625 -0.6875 2 -0.421875 3.03125 c 0.28125 1.03125 0.9375 1.90625 1.859375 2.4375 c 7.828125 4.5625 11.609375 13.765625 9.25 22.515625 c -2.375 8.734375 -10.28125 14.78125 -19.328125 14.765625 c -9.0625 -0.015625 -16.953125 -6.078125 -19.296875 -14.828125 s 1.453125 -17.953125 9.296875 -22.484375 c 1.90625 -1.109375 2.5625 -3.546875 1.453125 -5.453125 c -0.53125 -0.921875 -1.390625 -1.59375 -2.421875 -1.859375 c -0.5 -0.140625 -1.03125 -0.171875 -1.5625 -0.109375 z m 0 0" fill="#3584e4"/>
    <path d="m 64 31 c -2.203125 0 -4 1.796875 -4 4 v 2 c 0 -2.203125 1.796875 -4 4 -4 s 4 1.796875 4 4 v -2 c 0 -2.203125 -1.796875 -4 -4 -4 z m -11.753906 7.242188 c -0.261719 -0.015626 -0.527344 -0.007813 -0.792969 0.023437 c -0.515625 0.0625 -1.015625 0.234375 -1.46875 0.5 c -9.078125 5.253906 -14.304687 15.058594 -13.957031 25.226563 c 0.351562 -9.4375 5.476562 -18.320313 13.957031 -23.226563 c 0.453125 -0.265625 0.953125 -0.4375 1.46875 -0.5 c 0.53125 -0.0625 1.0625 -0.03125 1.5625 0.109375 c 1.03125 0.265625 1.890625 0.9375 2.421875 1.859375 c 0.191406 0.332031 0.3125 0.679687 0.402344 1.03125 c 0.265625 -0.988281 0.152344 -2.074219 -0.402344 -3.03125 c -0.53125 -0.921875 -1.390625 -1.59375 -2.421875 -1.859375 c -0.25 -0.070312 -0.507813 -0.113281 -0.769531 -0.128906 z m 23.570312 0.023437 c -1.28125 0.082031 -2.5 0.785156 -3.191406 1.984375 c -0.53125 0.90625 -0.6875 2 -0.421875 3.03125 c 0.003906 0.007812 0.007813 0.019531 0.011719 0.027344 c 0.089844 -0.367188 0.214844 -0.726563 0.410156 -1.058594 c 1.109375 -1.921875 3.5625 -2.5625 5.46875 -1.4375 c 8.441406 4.914062 13.527344 13.773438 13.875 23.175781 c 0.355469 -10.132812 -4.835938 -19.914062 -13.875 -25.175781 c -0.714844 -0.421875 -1.507812 -0.597656 -2.273438 -0.546875 z m -31.773437 25.652344 c -0.113281 2.0625 0.085937 4.171875 0.644531 6.253906 c 2.34375 8.75 10.234375 14.8125 19.296875 14.828125 c 9.046875 0.015625 16.953125 -6.03125 19.328125 -14.765625 c 0.566406 -2.097656 0.769531 -4.21875 0.65625 -6.292969 c -0.066406 1.425782 -0.269531 2.867188 -0.65625 4.292969 c -2.375 8.734375 -10.28125 14.78125 -19.328125 14.765625 c -9.0625 -0.015625 -16.953125 -6.078125 -19.296875 -14.828125 c -0.378906 -1.414063 -0.578125 -2.839844 -0.644531 -4.253906 z m 0 0" fill="#9a9996"/>
    <path d="m 91.015625 68.328125 c -3.296875 12.1875 -14.421875 20.6875 -27.0625 20.671875 c -12.625 -0.015625 -23.71875 -8.546875 -27 -20.75 c -0.859375 -3.222656 -2.285156 -6.554688 0 2 c 3.28125 12.203125 14.375 20.734375 27 20.75 c 12.640625 0.015625 23.765625 -8.484375 27.0625 -20.671875 c 2.339844 -8.621094 0.890625 -5.285156 0 -2 z m 0 0" fill="#ffffff" fill-opacity="0.2"/>
    <path d="m 80 80 h 40 c 4.417969 0 8 3.582031 8 8 v 32 c 0 4.417969 -3.582031 8 -8 8 h -40 c -4.417969 0 -8 -3.582031 -8 -8 v -32 c 0 -4.417969 3.582031 -8 8 -8 z m 0 0" fill="url(#c)"/>
    <path d="m 80 68 h 40 c 4.417969 0 8 3.582031 8 8 v 32 c 0 4.417969 -3.582031 8 -8 8 h -40 c -4.417969 0 -8 -3.582031 -8 -8 v -32 c 0 -4.417969 3.582031 -8 8 -8 z m 0 0" fill="#3d3846"/>
    <path d="m 80 76 v 24 h 4 v 4 h 4 v 4 h 24 v -4 h 4 v -4 h 4 v -24 z m 0 0" fill="#191622"/>
    <path d="m 80 100 v 2 h 4 v -2 z m 36 0 v 2 h 4 v -2 z m -32 4 v 2 h 4 v -2 z m 28 0 v 2 h 4 v -2 z m -24 4 v 2 h 24 v -2 z m 0 0" fill="#ffffff" fill-opacity="0.101961"/>
    <path d="m 82 78 v 8 h 2 v -8 z m 4 0 v 8 h 2 v -8 z m 4 0 v 8 h 2 v -8 z m 4 0 v 8 h 2 v -8 z m 4 0 v 8 h 2 v -8 z m 4 0 v 8 h 2 v -8 z m 4 0 v 8 h 2 v -8 z m 4 0 v 8 h 2 v -8 z m 4 0 v 8 h 2 v -8 z m 4 0 v 8 h 2 v -8 z m 0 0" fill="#77767b"/>
    <path d="m 82 76 v 8 h 2 v -8 z m 4 0 v 8 h 2 v -8 z m 4 0 v 8 h 2 v -8 z m 4 0 v 8 h 2 v -8 z m 4 0 v 8 h 2 v -8 z m 4 0 v 8 h 2 v -8 z m 4 0 v 8 h 2 v -8 z m 4 0 v 8 h 2 v -8 z m 4 0 v 8 h 2 v -8 z m 4 0 v 8 h 2 v -8 z m 0 0" fill="#c0bfbc"/>
    <path d="m 72 108 v 2 c 0 4.433594 3.566406 8 8 8 h 40 c 4.433594 0 8 -3.566406 8 -8 v -2 c 0 4.433594 -3.566406 8 -8 8 h -40 c -4.433594 0 -8 -3.566406 -8 -8 z m 0 0" fill="#ffffff" fill-opacity="0.101961"/>
</svg>
