<svg xmlns="http://www.w3.org/2000/svg" xmlns:xlink="http://www.w3.org/1999/xlink" width="96" height="96"><defs><linearGradient id="a"><stop offset="0" style="stop-color:#c061cb;stop-opacity:1"/><stop offset="1" style="stop-color:#62a0ea;stop-opacity:1"/></linearGradient><linearGradient id="b"><stop offset="0" style="stop-color:#fff;stop-opacity:.5"/><stop offset="1" style="stop-color:#62a0ea;stop-opacity:0"/></linearGradient><linearGradient xlink:href="#a" id="c" x1="16" x2="112" y1="16" y2="112" gradientTransform="translate(-16 -16)" gradientUnits="userSpaceOnUse"/><radialGradient xlink:href="#b" id="d" cx="96" cy="128" r="64" fx="96" fy="128" gradientTransform="translate(-16 -16)" gradientUnits="userSpaceOnUse"/></defs><path d="M48 0A48 48 0 0 0 0 48a48 48 0 0 0 48 48 48 48 0 0 0 48-48A48 48 0 0 0 48 0" style="fill:url(#c)"/><path d="M48 0A48 48 0 0 0 0 48a48 48 0 0 0 48 48 48 48 0 0 0 48-48A48 48 0 0 0 48 0" style="display:inline;fill:url(#d)"/><path d="M54 24a2 2 0 0 0-2 2 2 2 0 0 0 2 2 2 2 0 0 0 2-2 2 2 0 0 0-2-2m15 2a11 11 0 0 0-8.648 4.244 1.004 1.004 0 0 0-.153.156l-.6.8a.998.998 0 0 0-.046.07 3.978 3.978 0 0 1-4.268 1.77A14 14 0 0 0 50 32a14 14 0 0 0-11.62 6.22c-.011.009-.023.016-.034.024a7.265 7.265 0 0 1-5.276 1.758A1.646 1.646 0 0 0 33 40h-3c-7.732 0-14 6.268-14 14s6.268 14 14 14a14 14 0 0 0 5.162-1.021.997.997 0 0 0 .244-.065l.373-.166.063-.027 4.908-2.182a6.266 6.266 0 0 1 6.023.512l1.588 1.058A14 14 0 0 0 58 70c7.732 0 14-6.268 14-14v-4a6.998 6.998 0 0 1 2.8-5.6c.341-.221.673-.52.971-.763A11 11 0 0 0 80 37c0-6.075-4.925-11-11-11m-36 4a3 3 0 0 0-3 3 3 3 0 0 0 3 3 3 3 0 0 0 3-3 3 3 0 0 0-3-3m47 18a4 4 0 0 0-4 4 4 4 0 0 0 4 4 4 4 0 0 0 4-4 4 4 0 0 0-4-4" style="fill:#fff"/></svg>