<svg xmlns="http://www.w3.org/2000/svg" xml:space="preserve" width="174.683" height="113.059"><path d="M43.13 97.78c5.065 1.856 10.05 3.618 11.363 9.236M43.13 97.779c4.874-1.535 9.136-4.347 12.492-9.054m36.588 14.26c-16.871 7.91-17.712 20.425-19.205 43.605-.896 13.92-24.85 15.284-18.838-5.72 4.847-16.931 26.411 3.207 31.504-13.58 4.129-13.613-27.747-33.254-42.54-29.51m54.865 1.783c3.509-.884 6.667-2.96 9.715-4.523m-5.892-4.904c.335 3.888-.225 18.155 7.01 15.954 1.588-.483 2.852-1.618 3.172-3.112m-1.087-18.063c1.254 4.981 2.728 8.914 4.518 14.138.903-1.636-.044-6.42 3.675-7.203 3.067-.644 3.716 2.371 4.048 4.117m.627-15.082c1.813 3.907 2.856 8.108 5.116 11.615m5.56-19.422c-2.965-.72-6.808 5.394-3.57 7.628 2.245 1.55 7.965-.621 8.81 2.834.45 1.837-1.183 3.922-5.27 5.715m-25.826 25.863c2.25 4.39 4.467 10.34 7.331 14.544m5.946-15.567c-3.798 1.298-3.276 10.556 2.55 9.78 4.107-.547 4.254-11.584-2.55-9.78m9.375-5.108c-.163 8.924 10.42 8.842 6.786.566-1.149-2.616-6.704-5.083-6.786-.566m6.538-4.5c3.316 9.414 6.625 11.462 6.513 20.93-.03 2.592-4 4.598-5.467-.209m10.888-18.843c3.5-1.932 4.443-5.452-1.186-9.218-3.268-2.56-8.194 12.893 1.186 9.218m-23.486 41.982c-8.16-1.655-10.549 11.157-4.429 12.957 3.322.976 15.246-1.716 14.676 6.125-.37 5.08-3.104 7.139-8.141 7.593m7.914-31.145c-.335 5.2 4.055 21.223 11.54 17.793 6.647-3.047-1.626-18.862-3.263-21.69m14.06-6.015c-16.725-.19 4.181 30.321 8.882 13.964m12.958-6.043c-4.043-.208-6.982-5.858-10.748-3.03m0 0c1.044-3.55 2.647-7.88 4.407-11.41m-9.562 1.305c3.22 5.877 6.28 11.984 8.476 17.533m13.784-26.846c-2.957-1.492-8.938-.26-7.587 4.623 1.97 7.115 9.09.291 11.148 5.361 1.605 3.956-3.18 7.356-4.784 7.793m5.323-23.287c2.422 4.303 4.338 6.515 7.265 10.136m-96.175 28.116 2.536.827m-1.179 13.98 3.423-.174m6.674 16.264 1.696-4.253m96.05-52.689 3.63-.087M203.44 112.09l2.751-1.268m-12.639-8.04.554-2.633" style="fill:none;fill-opacity:1;stroke:#000;stroke-width:3;stroke-linecap:round;stroke-linejoin:round;stroke-dasharray:none" transform="translate(-41.63 -71.518)"/><path d="m121.83 76.022.13.378m79.87 52.09-.3-.42" style="fill:none;stroke:#000;stroke-width:3;stroke-linecap:round;stroke-linejoin:round" transform="translate(-41.63 -71.518)"/></svg>