<svg xmlns="http://www.w3.org/2000/svg" xml:space="preserve" width="175" height="115"><path d="M43.13 97.518c5.065 1.857 10.188 4.883 11.5 10.5m-11.5-10.5c4.874-1.535 9.144-4.793 12.5-9.5m36.5 14.5c-16.872 7.91-17.607 20.82-19.1 44-.896 13.92-24.912 15.004-18.9-6 4.847-16.932 26.608 3.787 31.7-13 4.13-13.613-27.906-33.743-42.7-30m54 1.5c3.509-.884 7.951-2.437 11-4m-7-5c.336 3.888.264 18.701 7.5 16.5 1.588-.483 2.68-2.506 3-4m-1.5-18.5c1.254 4.981 3.91 10.776 5.7 16 .903-1.636-.919-8.118 2.8-8.9 3.067-.645 5.168 4.155 5.5 5.9m-.5-16.5c1.814 3.908 2.74 8.494 5 12m6.5-19.4c-2.965-.72-7.038 5.266-3.8 7.5 2.245 1.549 7.955-1.256 8.8 2.2.45 1.836-1.913 4.406-6 6.2m-26 26.1c2.25 4.39 5.137 10.696 8 14.9m5.7-15.8c-4.2 1.3-3.325 10.576 2.5 9.8 4.108-.547 4.304-11.604-2.5-9.8m9.3-4.4c-.162 8.924 12.334 7.976 8.7-.3-1.149-2.616-8.618-4.217-8.7.3m6.662-5.332c3.316 9.415 6.449 11.565 6.338 21.032-.03 2.593-4.526 4.297-5.993-.51m11.589-18.643c3.5-1.932 3.904-5.847-1.196-9.147-3.9-2.7-8.184 12.822 1.196 9.147m-23.596 41.753c-8.16-1.655-10.72 10.9-4.6 12.7 3.322.977 15.17-1.14 14.6 6.7-.37 5.08-2.963 7.05-8 7.504m8.03-31c-.335 5.199 3.886 21.026 11.37 17.596 6.648-3.046-1.763-18.772-3.4-21.6m15-6c-15.5.5 3.299 30.358 8 14m13-6c-4.043-.208-6.334-5.429-10.1-2.6m0 0c1.044-3.551 2.34-8.868 4.1-12.4m-10 2c3.22 5.877 6.803 11.451 9 17m14-27.5c-2.957-1.492-9.152.617-7.8 5.5 1.97 7.115 9.422-.17 11.48 4.9 1.605 3.956-3.075 7.764-4.68 8.2m5-23.1c2.422 4.303 4.074 6.38 7 10m-96 28.1 3 .9m-2 16 4-1m6 17 2-4m96-55h4m-11.5-13.5 2.5-1.5m-12.5-8.5.5-2.5" style="fill:none;fill-opacity:1;stroke:#000;stroke-width:3;stroke-linecap:round;stroke-linejoin:round;stroke-dasharray:none" transform="translate(-41.63 -71.518)"/><path d="m121.63 76.018.2.5m79.8 52-.5-.5" style="fill:none;stroke:#000;stroke-width:3;stroke-linecap:round;stroke-linejoin:round" transform="translate(-41.63 -71.518)"/></svg>