<svg xmlns="http://www.w3.org/2000/svg" xml:space="preserve" width="153" height="26"><g style="display:inline"><path d="M6 72h1v18H6zm2 0h2v18H8zm3 0h4v18h-4zm5 0h4v18h-4zm5 0h2v18h-2zm4 0h1v18h-1zm2 0h2v18h-2zm3 0h1v18h-1zm3 0h4v18h-4zm5 0h2v18h-2zm6 0h2v18h-2zm3 0h1v18h-1zm2 0h4v18h-4zm5 0h2v18h-2zm4 0h1v18h-1zm2 0h4v18h-4zm6 0h1v18h-1zm2 0h2v18h-2zm6 0h2v18h-2zm3 0h2v18h-2zm3 0h1v18h-1zm2 0h2v18h-2zm4 0h2v18h-2zm5 0h1v18h-1zm2 0h3v18h-3zm7 0h1v18h-1zm2 0h1v18h-1zm3 0h4v18h-4zm5 0h1v18h-1zm2 0h2v18h-2zm3 0h1v18h-1zm3 0h2v18h-2zm3 0h4v18h-4zm5 0h1v18h-1zm2 0h3v18h-3zm5 0h3v18h-3zm5 0h3v18h-3zm6 0h1v18h-1zm2 0h1v18h-1zm3 0h4v26h-4zM0 72h4v26H0z" style="fill:#fff;stroke:none;stroke-width:6;stroke-linecap:square;stroke-miterlimit:10;stroke-dasharray:none" transform="translate(0 -72)"/><path d="M31.577 96.28q-.544 0-.944-.271-.392-.272-.608-.776t-.216-1.184.216-1.184.616-.776.936-.272q.448 0 .784.184.344.184.52.52v-2.016h1.024v5.68h-.976l-.024-.632q-.176.344-.528.536t-.8.192m.312-.831q.32 0 .536-.16.224-.16.336-.472.12-.32.12-.768 0-.456-.12-.768-.112-.312-.336-.472-.216-.16-.536-.16-.464 0-.744.376-.272.368-.272 1.024 0 .64.272 1.024.28.376.744.376m15.416.832q-.672 0-1.08-.304-.408-.312-.408-.864t.344-.864 1.048-.448l1.416-.28q0-.456-.208-.68-.208-.232-.616-.232-.368 0-.584.176-.208.168-.288.488l-1.04-.048q.128-.68.624-1.04.496-.368 1.288-.368.912 0 1.376.464.472.456.472 1.312v1.552q0 .168.056.232.064.064.184.064h.136v.744q-.048.016-.16.024-.104.008-.216.008-.264 0-.472-.08-.208-.088-.32-.296-.112-.216-.112-.584l.088.064q-.064.28-.28.504-.208.216-.528.336t-.72.12m.208-.744q.344 0 .592-.136t.384-.376.136-.568v-.24l-1.104.224q-.344.072-.496.216-.144.136-.144.36 0 .248.16.384.168.136.472.136m15.653.744q-.648 0-1.032-.424-.376-.432-.376-1.192v-2.752h1.024v2.496q0 .536.176.792.184.248.552.248.416 0 .64-.272.232-.28.232-.808v-2.456h1.024v4.272h-.936l-.024-1.176.128.04q-.096.608-.456.92t-.952.312m15.928 0q-.544 0-.944-.272-.392-.272-.608-.776t-.216-1.184.216-1.184.616-.776.936-.272q.448 0 .784.184.344.184.52.52v-2.016h1.024v5.68h-.976l-.024-.632q-.176.344-.528.536t-.8.192m.312-.832q.32 0 .536-.16.224-.16.336-.472.12-.32.12-.768 0-.456-.12-.768-.112-.312-.336-.472-.216-.16-.536-.16-.464 0-.744.376-.272.368-.272 1.024 0 .64.272 1.024.28.376.744.376m14.128.736v-4.272h1.024v4.272zm-.016-4.84v-.912h1.064v.912zm12.696 4.84 1.536-2.176-1.48-2.096h1.112l.976 1.456.96-1.456h1.128l-1.472 2.104 1.528 2.168h-1.112l-1.016-1.536-1.024 1.536zm15.928 0v-1.12h1.168v1.12zm15.024.096q-.632 0-1.112-.272-.472-.28-.736-.784-.256-.504-.256-1.176 0-.68.256-1.176.264-.504.736-.776.48-.28 1.112-.28t1.104.28q.472.272.728.776.264.496.264 1.176 0 .672-.264 1.176-.256.504-.728.784-.472.272-1.104.272m0-.832q.496 0 .76-.368.272-.368.272-1.032 0-.656-.272-1.024-.264-.376-.76-.376t-.768.376q-.272.368-.272 1.024 0 .664.272 1.032t.768.368m14.008.736v-4.272h.928l.04 1.2-.12-.048q.064-.448.264-.72t.488-.4.632-.128q.472 0 .792.208.328.208.496.576.168.36.168.84v2.744h-1.024V93.77q0-.36-.072-.608t-.24-.376q-.16-.136-.432-.136-.408 0-.656.288-.24.288-.24.832v2.416zm17.673.096q-.64 0-1.112-.272-.472-.28-.728-.784t-.256-1.176.256-1.168q.256-.504.72-.784.472-.28 1.096-.28.608 0 1.064.272.464.272.712.784t.248 1.232v.232h-3.032q.032.56.304.848.28.28.736.28.344 0 .568-.152.232-.16.32-.44l1.048.064q-.176.624-.696.984-.512.36-1.248.36m-1.032-2.632h1.976q-.032-.52-.296-.768-.264-.256-.672-.256t-.68.264q-.264.264-.328.76" aria-label="daudix.one" style="font-weight:600;font-size:8px;line-height:1;font-family:Geist;-inkscape-font-specification:&quot;Geist Semi-Bold&quot;;text-align:center;letter-spacing:11.12px;word-spacing:0;text-anchor:middle;white-space:pre;fill:#fff;stroke-width:6;stroke-linecap:square;stroke-miterlimit:10" transform="translate(-23.809 -71.433)"/></g></svg>