<svg xmlns="http://www.w3.org/2000/svg" xml:space="preserve" width="136" height="64"><path d="M1 1h134v62H1z" style="fill:none;stroke:#fff;stroke-width:2;stroke-linecap:square;stroke-miterlimit:10;stroke-dasharray:none"/><path d="M9.723 50h42.338L30.892 12.955Z" style="fill:none;stroke:#fff;stroke-width:2;stroke-linecap:square;stroke-miterlimit:10;stroke-dasharray:none"/><path d="M29 42h4v4h-4z" style="fill:#fff;stroke:none;stroke-width:2;stroke-linecap:square;stroke-miterlimit:10;stroke-dasharray:none"/><path d="M29 23h4l-1 16h-2z" style="fill:#fff;stroke-width:2;stroke-linecap:square;stroke-miterlimit:10"/><path d="m34.942 13.37-3.04-11.36h2.192l2.08 8.48 2.096-8.48h1.936l2.096 8.48 2.064-8.48h2.208l-3.04 11.36H41.23l-1.984-7.777-1.984 7.776zm9.742 0L48.78 2.01h2.544l4.096 11.36h-2.176l-.944-2.69h-4.496l-.944 2.688zm3.728-4.465h3.28l-1.632-4.8zm7.208 4.464V2.01h4.752q1.232 0 2.128.416t1.392 1.184.496 1.808q0 .784-.336 1.392t-.912.976q-.56.368-1.248.448l-.08-.16q1.104 0 1.696.496.608.496.688 1.52l.288 3.28h-2.112l-.24-2.976q-.048-.672-.432-.992t-1.28-.32H57.7v4.288zm2.08-6.112h2.544q.944 0 1.472-.448t.528-1.264q0-.832-.544-1.28-.528-.448-1.552-.448H57.7zm7.944 6.112V2.01h2.432l4.896 8.544V2.01h2.08v11.36h-2.496l-4.832-8.304v8.304zm10.712 0V2.01h2.08v11.36Zm3.384 0V2.01h2.432l4.896 8.544V2.01h2.08v11.36h-2.496L81.82 5.065v8.304zm15.31.256q-1.616 0-2.784-.752-1.168-.768-1.792-2.096-.608-1.328-.608-3.072 0-1.712.624-3.056.64-1.344 1.824-2.112 1.184-.784 2.848-.784 1.44 0 2.416.496.992.496 1.584 1.376t.832 2.032l-2.176.112q-.176-1.008-.8-1.6-.608-.608-1.84-.608-1.088 0-1.792.56-.688.56-1.04 1.504-.336.928-.336 2.08 0 1.184.336 2.112t1.04 1.472q.72.528 1.808.528.848 0 1.456-.352t.96-.96q.352-.624.384-1.376h-2.8V7.513h4.832v5.856h-1.344l-.128-2.496.256.16q-.176.768-.72 1.36-.528.576-1.328.912-.784.32-1.712.32m6.024-.256v-2.24h2.336v2.24zm0-5.904v-2.24h2.336v2.24z" aria-label="WARNING:" style="font-weight:600;font-size:16px;line-height:1;font-family:Geist;-inkscape-font-specification:&quot;Geist Semi-Bold&quot;;text-align:center;letter-spacing:-1px;word-spacing:0;white-space:pre;fill:#fff;stroke-width:2;stroke-linecap:square;stroke-miterlimit:10" transform="translate(18.098 11.279)"/><path d="M63.794 34.968q-.776 0-1.368-.352-.592-.36-.928-1.016-.336-.664-.336-1.592 0-.912.328-1.576.328-.672.92-1.032.592-.368 1.392-.368 1.088 0 1.688.544.6.536.784 1.504l-1.088.056q-.104-.56-.448-.88t-.936-.32q-.48 0-.832.256t-.544.72-.192 1.096q0 .64.192 1.104.2.456.552.704t.816.248q.632 0 .976-.344.352-.352.448-.96l1.088.056q-.112.664-.432 1.152-.32.48-.848.744-.52.256-1.232.256m5.864 0q-.84 0-1.448-.352-.608-.36-.936-1.024-.32-.664-.32-1.584t.32-1.584q.328-.672.936-1.032t1.448-.36q.856 0 1.456.36.608.36.928 1.032.328.664.328 1.584t-.328 1.584q-.32.664-.928 1.024-.6.352-1.456.352m0-.904q.52 0 .88-.24.368-.248.56-.704.2-.464.2-1.112t-.2-1.112q-.192-.464-.56-.712-.36-.248-.88-.248-.504 0-.872.248t-.568.712q-.192.464-.192 1.112t.192 1.112q.2.456.568.704.368.24.872.24m3.57.776v-5.68h1.217l2.448 4.272V29.16h1.04v5.68h-1.248l-2.416-4.152v4.152zm6.905 0v-4.776h-1.728v-.904h4.488v.904h-1.72v4.776zm2.237 0 2.048-5.68h1.272l2.048 5.68H86.65l-.472-1.344H83.93l-.472 1.344zm1.864-2.232h1.64l-.816-2.4zm4.104 2.232v-5.68h1.04v5.68zm2.192 0v-5.68h1.216l2.448 4.272V29.16h1.04v5.68h-1.248l-2.416-4.152v4.152zm8.003.128q-.704 0-1.216-.248t-.808-.688q-.288-.448-.336-1.04l1.056-.064q.048.368.208.624.168.256.44.392.28.128.672.128.336 0 .568-.08.24-.088.36-.248.128-.168.128-.408 0-.216-.104-.384-.104-.176-.4-.312-.296-.144-.88-.28-.704-.16-1.128-.36-.424-.208-.616-.512-.192-.312-.192-.776 0-.496.248-.872.248-.384.704-.592.456-.216 1.096-.216.68 0 1.152.248.472.24.744.664t.336.976l-1.048.048q-.04-.312-.192-.544-.144-.232-.4-.36-.248-.136-.608-.136-.448 0-.712.208-.256.2-.256.536 0 .232.104.384.112.152.392.264.28.104.784.224.76.16 1.208.408t.64.576.192.752q0 .52-.264.904-.264.376-.744.584-.48.2-1.128.2m5.088-.128v-5.68h1.04v2.712l-.48-.344h3.344l-.472.344V29.16h1.04v5.68h-1.04v-2.744l.472.336h-3.344l.48-.336v2.744zm5.624 0v-5.68h1.04v5.68zm4.491.128q-.808 0-1.392-.376-.584-.384-.896-1.048-.304-.664-.304-1.536 0-.856.312-1.528.32-.672.912-1.056.592-.392 1.424-.392.72 0 1.208.248.496.248.792.688t.416 1.016l-1.088.056q-.088-.504-.4-.8-.304-.304-.92-.304-.544 0-.896.28-.344.28-.52.752-.168.464-.168 1.04 0 .592.168 1.056t.52.736q.36.264.904.264.424 0 .728-.176t.48-.48q.176-.312.192-.688h-1.4v-.808h2.416v2.928h-.672l-.064-1.248.128.08q-.088.384-.36.68-.264.288-.664.456-.392.16-.856.16m3.512-.128v-5.68h1.04v2.712l-.48-.344h3.344l-.472.344V29.16h1.04v5.68h-1.04v-2.744l.472.336h-3.344l.48-.336v2.744zm-42.19 8 2.048-5.68h1.272l2.048 5.68h-1.088l-.472-1.344h-2.248l-.472 1.344zm1.864-2.232h1.64l-.816-2.4zm4.104 2.232v-5.68h1.4l1.568 4.4 1.568-4.4h1.4v5.68h-1.04v-3.92l-1.432 3.912h-.992l-1.432-3.912v3.92zm9.499.128q-.84 0-1.448-.352-.608-.36-.936-1.024-.32-.664-.32-1.584t.32-1.584q.328-.672.936-1.032t1.448-.36q.856 0 1.456.36.608.36.928 1.032.328.664.328 1.584t-.328 1.584q-.32.664-.928 1.024-.6.352-1.456.352m0-.904q.52 0 .88-.24.368-.248.56-.704.2-.464.2-1.112t-.2-1.112q-.192-.464-.56-.712-.36-.248-.88-.248-.504 0-.872.248t-.568.712q-.192.464-.192 1.112t.192 1.112q.2.456.568.704.368.24.872.24m5.848.904q-.688 0-1.208-.264-.512-.264-.792-.744-.272-.488-.272-1.152v-3.656h1.04v3.656q0 .6.32.928t.912.328.912-.328q.328-.328.328-.928v-3.656h1.04v3.656q0 .664-.28 1.152-.28.48-.792.744-.504.264-1.208.264m3.56-.128v-5.68h1.216l2.448 4.272V37.16h1.04v5.68h-1.248l-2.416-4.152v4.152zm6.904 0v-4.776h-1.728v-.904h4.488v.904h-1.72v4.776zm7.792.128q-.84 0-1.448-.352-.608-.36-.936-1.024-.32-.664-.32-1.584t.32-1.584q.328-.672.936-1.032t1.448-.36q.856 0 1.456.36.608.36.928 1.032.328.664.328 1.584t-.328 1.584q-.32.664-.928 1.024-.6.352-1.456.352m0-.904q.52 0 .88-.24.368-.248.56-.704.2-.464.2-1.112t-.2-1.112q-.192-.464-.56-.712-.36-.248-.88-.248-.504 0-.872.248t-.568.712q-.192.464-.192 1.112t.192 1.112q.2.456.568.704.368.24.872.24m3.571.776v-5.68h3.8v.904h-3.328l.568-.584v2.608l-.568-.472h3.184v.896h-3.184l.568-.472v2.8zm-33.115 8.128q-.704 0-1.216-.248t-.808-.688q-.288-.448-.336-1.04l1.056-.064q.048.368.208.624.168.256.44.392.28.128.672.128.336 0 .568-.08.24-.088.36-.248.128-.168.128-.408 0-.216-.104-.384-.104-.176-.4-.312-.296-.144-.88-.28-.704-.16-1.128-.36-.424-.208-.616-.512-.192-.312-.192-.776 0-.496.248-.872.248-.384.704-.592.456-.216 1.096-.216.68 0 1.152.248.472.24.744.664t.336.976l-1.048.048q-.04-.312-.192-.544-.144-.232-.4-.36-.248-.136-.608-.136-.448 0-.712.208-.256.2-.256.536 0 .232.104.384.112.152.392.264.28.104.784.224.76.16 1.208.408t.64.576.192.752q0 .52-.264.904-.264.376-.744.584-.48.2-1.128.2m3.075-.128v-5.68h1.04v5.68zm2.32 0v-5.68h1.04v5.36l-.568-.584h3.264v.904zm4.48 0v-5.68H96v5.36l-.568-.584h3.264v.904zm4.384 0v-5.68h1.04v5.68zm2.192 0v-5.68h1.216l2.448 4.272V45.16h1.04v5.68h-1.248l-2.416-4.152v4.152zm5.856 0v-5.68h3.824v.904h-2.784v1.48h2.688v.896h-2.688v1.496h2.848v.904zm7.064.128q-.704 0-1.216-.248t-.808-.688q-.288-.448-.336-1.04l1.056-.064q.048.368.208.624.168.256.44.392.28.128.672.128.336 0 .568-.08.24-.088.36-.248.128-.168.128-.408 0-.216-.104-.384-.104-.176-.4-.312-.296-.144-.88-.28-.704-.16-1.128-.36-.424-.208-.616-.512-.192-.312-.192-.776 0-.496.248-.872.248-.384.704-.592.456-.216 1.096-.216.68 0 1.152.248.472.24.744.664t.336.976l-1.048.048q-.04-.312-.192-.544-.144-.232-.4-.36-.248-.136-.608-.136-.448 0-.712.208-.256.2-.256.536 0 .232.104.384.112.152.392.264.28.104.784.224.76.16 1.208.408t.64.576.192.752q0 .52-.264.904-.264.376-.744.584-.48.2-1.128.2m5.344 0q-.704 0-1.216-.248t-.808-.688q-.288-.448-.336-1.04l1.056-.064q.048.368.208.624.168.256.44.392.28.128.672.128.336 0 .568-.08.24-.088.36-.248.128-.168.128-.408 0-.216-.104-.384-.104-.176-.4-.312-.296-.144-.88-.28-.704-.16-1.128-.36-.424-.208-.616-.512-.192-.312-.192-.776 0-.496.248-.872.248-.384.704-.592.456-.216 1.096-.216.68 0 1.152.248.472.24.744.664t.336.976l-1.048.048q-.04-.312-.192-.544-.144-.232-.4-.36-.248-.136-.608-.136-.448 0-.712.208-.256.2-.256.536 0 .232.104.384.112.152.392.264.28.104.784.224.76.16 1.208.408t.64.576.192.752q0 .52-.264.904-.264.376-.744.584-.48.2-1.128.2" aria-label="CONTAINS HIGH AMOUNT OF SILLINESS" style="font-weight:600;font-size:8px;line-height:1;font-family:Geist;-inkscape-font-specification:&quot;Geist Semi-Bold&quot;;text-align:end;letter-spacing:0;word-spacing:0;white-space:pre;fill:#fff;stroke-width:2;stroke-linecap:square;stroke-miterlimit:10"/></svg>