<svg xmlns="http://www.w3.org/2000/svg" xml:space="preserve" width="64" height="64"><path d="M193 145h62v62h-62z" style="display:inline;fill:none;stroke:#fff;stroke-width:2;stroke-dasharray:none" transform="translate(-192 -144)"/><path d="m408.302 157.37-3.04-11.36h2.192l2.08 8.48 2.096-8.48h1.936l2.096 8.48 2.064-8.48h2.208l-3.04 11.36h-2.304l-1.984-7.777-1.984 7.776zm12.101 0v-11.36h7.648v1.807h-5.568v2.96h5.376v1.792h-5.376v2.992h5.696v1.808zm8.757 0v-11.36h4.256q2.08 0 3.152.735 1.088.736 1.088 2.336 0 .72-.304 1.264-.288.528-.864.832-.56.304-1.36.336l-.016-.032q1.456.048 2.24.8.784.736.784 1.968 0 1.568-1.088 2.352-1.072.768-3.056.768zm2.08-1.76h2.656q.976 0 1.536-.4.576-.4.576-1.185 0-.784-.56-1.2t-1.552-.416h-2.656zm0-4.833h2.112q1.024 0 1.6-.384t.576-1.12q0-.768-.56-1.136t-1.616-.368h-2.112z" aria-label="WEB" style="font-weight:600;font-size:16px;line-height:1;font-family:Geist;-inkscape-font-specification:&quot;Geist Semi-Bold&quot;;text-align:end;letter-spacing:-1px;word-spacing:0;text-anchor:end;white-space:pre;fill:#fff;stroke-width:6;stroke-linecap:square;stroke-miterlimit:10" transform="translate(-389.7 -136.836)"/><path d="M404.307 177.985v-20.779h-6.486v-4.224h2.603q1.835 0 2.944-.47 1.11-.469 1.579-1.62.512-1.195.512-3.2h4.394v30.293zm23.557 0v-6.059h-15.19v-4.523l14.294-19.712h6.443v19.414h3.626v4.821h-3.626v6.059zm-9.13-10.88h9.13v-12.203z" aria-label="14" style="font-weight:600;font-size:42.6667px;line-height:1;font-family:Geist;-inkscape-font-specification:&quot;Geist Semi-Bold&quot;;text-align:end;letter-spacing:-2px;word-spacing:0;text-anchor:end;white-space:pre;fill:#fff;stroke-width:6;stroke-linecap:square;stroke-miterlimit:10" transform="translate(-385.43 -123.158)"/></svg>