<?xml version="1.0" encoding="UTF-8" standalone="no"?>
<!-- Created with Inkscape (http://www.inkscape.org/) -->

<svg
   width="96"
   height="96"
   viewBox="0 0 96 96"
   version="1.1"
   id="svg323"
   xmlns:xlink="http://www.w3.org/1999/xlink"
   xmlns="http://www.w3.org/2000/svg"
   xmlns:svg="http://www.w3.org/2000/svg">
  <defs
     id="defs320">
    <linearGradient
       id="linearGradient4">
      <stop
         style="stop-color:#ffffff;stop-opacity:0.5;"
         offset="0"
         id="stop3" />
      <stop
         style="stop-color:#62a0ea;stop-opacity:0;"
         offset="1"
         id="stop4" />
    </linearGradient>
    <linearGradient
       id="linearGradient1">
      <stop
         style="stop-color:#c061cb;stop-opacity:1;"
         offset="0"
         id="stop1" />
      <stop
         style="stop-color:#62a0ea;stop-opacity:1;"
         offset="1"
         id="stop2" />
    </linearGradient>
    <linearGradient
       xlink:href="#linearGradient1"
       id="linearGradient2"
       x1="0"
       y1="0"
       x2="96"
       y2="96"
       gradientUnits="userSpaceOnUse" />
    <radialGradient
       xlink:href="#linearGradient4"
       id="radialGradient2"
       cx="36"
       cy="96"
       fx="36"
       fy="96"
       r="48"
       gradientUnits="userSpaceOnUse"
       gradientTransform="matrix(2,0,0,2,0,-96)" />
    <filter
       style="color-interpolation-filters:sRGB"
       id="filter4"
       x="-0.062867647"
       y="-0.092934783"
       width="1.1257353"
       height="1.1858696">
      <feGaussianBlur
         stdDeviation="1.78125"
         id="feGaussianBlur4" />
    </filter>
    <clipPath
       clipPathUnits="userSpaceOnUse"
       id="clipPath6">
      <path
         d="m 54,24 a 2,2 0 0 0 -2,2 2,2 0 0 0 2,2 2,2 0 0 0 2,-2 2,2 0 0 0 -2,-2 z m 15,2 c -3.381967,0.01 -6.57135,1.575163 -8.648438,4.244141 -0.0563,0.0464 -0.107413,0.0988 -0.152343,0.15625 l -0.59961,0.798828 c -0.0166,0.0228 -0.03227,0.04621 -0.04687,0.07031 -0.903604,1.443221 -2.611574,2.148893 -4.267583,1.769533 C 53.607318,32.353893 51.812368,32.00099 50,32 c -4.667905,0.007 -9.025353,2.339767 -11.619141,6.220703 -0.0119,0.008 -0.02356,0.01544 -0.03516,0.02344 -1.455578,1.262418 -3.353472,1.894402 -5.275391,1.757812 C 33.046913,40.000953 33.0234,40 33,40 h -3 c -7.731982,0 -14,6.268018 -14,14 0,7.731982 6.268018,14 14,14 1.769798,-0.0111 3.521441,-0.357765 5.162109,-1.021484 0.0838,-0.0111 0.165811,-0.03265 0.244141,-0.06445 l 0.373047,-0.166015 c 0.0209,-0.009 0.0417,-0.01824 0.0625,-0.02734 L 40.75,64.539062 c 1.963948,-0.872859 4.235209,-0.68043 6.023437,0.511719 l 1.587891,1.058594 C 50.955905,68.595093 54.406894,69.98807 58,70 65.731982,70 72,63.731982 72,56 v -4 c 0,-2.204178 1.037443,-4.277101 2.800781,-5.599609 0.340434,-0.221632 0.671812,-0.520981 0.970703,-0.763672 C 78.431402,43.559081 79.99016,40.375167 80,37 80,30.924876 75.075124,26 69,26 Z m -36,4 a 3,3 0 0 0 -3,3 3,3 0 0 0 3,3 3,3 0 0 0 3,-3 3,3 0 0 0 -3,-3 z m 47,18 a 4,4 0 0 0 -4,4 4,4 0 0 0 4,4 4,4 0 0 0 4,-4 4,4 0 0 0 -4,-4 z"
         id="path6"
         style="display:none" />
      <path
         id="lpe_path-effect6"
         class="powerclip"
         d="M 6.7249999,16.725 H 93.274999 V 81.275001 H 6.7249999 Z M 54,24 a 2,2 0 0 0 -2,2 2,2 0 0 0 2,2 2,2 0 0 0 2,-2 2,2 0 0 0 -2,-2 z m 15,2 c -3.381967,0.01 -6.57135,1.575163 -8.648438,4.244141 -0.0563,0.0464 -0.107413,0.0988 -0.152343,0.15625 l -0.59961,0.798828 c -0.0166,0.0228 -0.03227,0.04621 -0.04687,0.07031 -0.903604,1.443221 -2.611574,2.148893 -4.267583,1.769533 C 53.607318,32.353893 51.812368,32.00099 50,32 c -4.667905,0.007 -9.025353,2.339767 -11.619141,6.220703 -0.0119,0.008 -0.02356,0.01544 -0.03516,0.02344 -1.455578,1.262418 -3.353472,1.894402 -5.275391,1.757812 C 33.046913,40.000953 33.0234,40 33,40 h -3 c -7.731982,0 -14,6.268018 -14,14 0,7.731982 6.268018,14 14,14 1.769798,-0.0111 3.521441,-0.357765 5.162109,-1.021484 0.0838,-0.0111 0.165811,-0.03265 0.244141,-0.06445 l 0.373047,-0.166015 c 0.0209,-0.009 0.0417,-0.01824 0.0625,-0.02734 L 40.75,64.539062 c 1.963948,-0.872859 4.235209,-0.68043 6.023437,0.511719 l 1.587891,1.058594 C 50.955905,68.595093 54.406894,69.98807 58,70 65.731982,70 72,63.731982 72,56 v -4 c 0,-2.204178 1.037443,-4.277101 2.800781,-5.599609 0.340434,-0.221632 0.671812,-0.520981 0.970703,-0.763672 C 78.431402,43.559081 79.99016,40.375167 80,37 80,30.924876 75.075124,26 69,26 Z m -36,4 a 3,3 0 0 0 -3,3 3,3 0 0 0 3,3 3,3 0 0 0 3,-3 3,3 0 0 0 -3,-3 z m 47,18 a 4,4 0 0 0 -4,4 4,4 0 0 0 4,4 4,4 0 0 0 4,-4 4,4 0 0 0 -4,-4 z" />
    </clipPath>
  </defs>
  <g
     id="layer1">
    <rect
       width="96"
       height="96"
       x="0"
       y="0"
       id="rect541-6"
       style="fill:url(#linearGradient2);stroke-width:0.75;fill-opacity:1" />
    <rect
       width="96"
       height="96"
       x="0"
       y="0"
       id="rect2"
       style="fill:url(#radialGradient2);stroke-width:0.75;fill-opacity:1" />
    <path
       style="display:inline;fill:#000000;fill-opacity:0.25;filter:url(#filter4)"
       d="m 54,26 a 2,2 0 0 0 -2,2 2,2 0 0 0 2,2 2,2 0 0 0 2,-2 2,2 0 0 0 -2,-2 z m 15,2 c -3.381967,0.01 -6.57135,1.575163 -8.648438,4.244141 -0.0563,0.0464 -0.107413,0.0988 -0.152343,0.15625 l -0.59961,0.798828 c -0.0166,0.0228 -0.03227,0.04621 -0.04687,0.07031 -0.903604,1.443221 -2.611574,2.148893 -4.267583,1.769533 C 53.607318,34.353893 51.812368,34.00099 50,34 c -4.667905,0.007 -9.025353,2.339767 -11.619141,6.220703 -0.0119,0.008 -0.02356,0.01544 -0.03516,0.02344 -1.455578,1.262418 -3.353472,1.894402 -5.275391,1.757812 C 33.046913,42.000953 33.0234,42 33,42 h -3 c -7.731982,0 -14,6.268018 -14,14 0,7.731982 6.268018,14 14,14 1.769798,-0.0111 3.521441,-0.357765 5.162109,-1.021484 0.0838,-0.0111 0.165811,-0.03265 0.244141,-0.06445 l 0.373047,-0.166015 c 0.0209,-0.009 0.0417,-0.01824 0.0625,-0.02734 L 40.75,66.539062 c 1.963948,-0.872859 4.235209,-0.68043 6.023437,0.511719 l 1.587891,1.058594 C 50.955905,70.595093 54.406894,71.98807 58,72 65.731982,72 72,65.731982 72,58 v -4 c 0,-2.204178 1.037443,-4.277101 2.800781,-5.599609 0.340434,-0.221632 0.671812,-0.520981 0.970703,-0.763672 C 78.431402,45.559081 79.99016,42.375167 80,39 80,32.924876 75.075124,28 69,28 Z m -36,4 a 3,3 0 0 0 -3,3 3,3 0 0 0 3,3 3,3 0 0 0 3,-3 3,3 0 0 0 -3,-3 z m 47,18 a 4,4 0 0 0 -4,4 4,4 0 0 0 4,4 4,4 0 0 0 4,-4 4,4 0 0 0 -4,-4 z"
       id="path4"
       clip-path="url(#clipPath6)" />
    <path
       id="path13"
       d="M 55.896484,26.384766 A 2,2 0 0 1 54,28 2,2 0 0 1 52.132812,26.5 2,2 0 0 0 52,27 a 2,2 0 0 0 2,2 2,2 0 0 0 2,-2 2,2 0 0 0 -0.103516,-0.615234 z M 35.925781,33.373047 A 3,3 0 0 1 33,36 3,3 0 0 1 30.099609,33.5 3,3 0 0 0 30,34 a 3,3 0 0 0 3,3 3,3 0 0 0 3,-3 3,3 0 0 0 -0.07422,-0.626953 z m 44.046875,4.080078 c -0.141938,3.204693 -1.661219,6.19966 -4.201172,8.183594 -0.29889,0.242691 -0.630269,0.54204 -0.970703,0.763672 C 73.037445,47.722897 72,49.795824 72,52 v 1 c 0,-2.204176 1.037445,-4.277103 2.800781,-5.599609 0.340434,-0.221632 0.671813,-0.520981 0.970703,-0.763672 C 78.4314,44.559083 79.99016,41.375164 80,38 80,37.815429 79.98164,37.635466 79.97266,37.453125 Z m 3.962891,14.873047 A 4,4 0 0 1 80,56 4,4 0 0 1 76.099609,52.5 4,4 0 0 0 76,53 a 4,4 0 0 0 4,4 4,4 0 0 0 4,-4 4,4 0 0 0 -0.06445,-0.673828 z M 16.025391,54.5 C 16.019467,54.667332 16,54.831223 16,55 c 0,7.731974 6.268026,14 14,14 1.769796,-0.0111 3.521443,-0.357766 5.162109,-1.021484 0.0838,-0.0111 0.165811,-0.03265 0.244141,-0.06445 l 0.373047,-0.166015 c 0.0209,-0.009 0.0417,-0.01824 0.0625,-0.02734 L 40.75,65.539062 c 1.963946,-0.872858 4.235211,-0.680429 6.023438,0.511719 l 1.58789,1.058594 C 50.955903,69.595091 54.406898,70.98807 58,71 65.731974,71 72,64.731974 72,57 v -1 c 0,7.731974 -6.268026,14 -14,14 -3.593102,-0.01193 -7.044097,-1.404909 -9.638672,-3.890625 l -1.58789,-1.058594 C 44.985211,63.858633 42.713946,63.666204 40.75,64.539062 l -4.908203,2.181641 c -0.0208,0.0091 -0.0416,0.01834 -0.0625,0.02734 l -0.373047,0.166015 c -0.07833,0.0318 -0.160341,0.05335 -0.244141,0.06445 C 33.521443,67.642234 31.769796,67.9889 30,68 22.436803,68 16.29082,61.998441 16.025391,54.5 Z"
       style="display:inline;opacity:0.25;mix-blend-mode:overlay;fill:#000000" />
    <path
       style="display:inline;opacity:0.5;mix-blend-mode:overlay;fill:#000000;fill-opacity:1"
       d="m 54,24 a 2,2 0 0 0 -2,2 2,2 0 0 0 2,2 2,2 0 0 0 2,-2 2,2 0 0 0 -2,-2 z m 15,2 c -3.381967,0.01 -6.57135,1.575163 -8.648438,4.244141 -0.0563,0.0464 -0.107413,0.0988 -0.152343,0.15625 l -0.59961,0.798828 c -0.0166,0.0228 -0.03227,0.04621 -0.04687,0.07031 -0.903604,1.443221 -2.611574,2.148893 -4.267583,1.769533 C 53.607318,32.353893 51.812368,32.00099 50,32 c -4.667905,0.007 -9.025353,2.339767 -11.619141,6.220703 -0.0119,0.008 -0.02356,0.01544 -0.03516,0.02344 -1.455578,1.262418 -3.353472,1.894402 -5.275391,1.757812 C 33.046913,40.000953 33.0234,40 33,40 h -3 c -7.731982,0 -14,6.268018 -14,14 0,7.731982 6.268018,14 14,14 1.769798,-0.0111 3.521441,-0.357765 5.162109,-1.021484 0.0838,-0.0111 0.165811,-0.03265 0.244141,-0.06445 l 0.373047,-0.166015 c 0.0209,-0.009 0.0417,-0.01824 0.0625,-0.02734 L 40.75,64.539062 c 1.963948,-0.872859 4.235209,-0.68043 6.023437,0.511719 l 1.587891,1.058594 C 50.955905,68.595093 54.406894,69.98807 58,70 65.731982,70 72,63.731982 72,56 v -4 c 0,-2.204178 1.037443,-4.277101 2.800781,-5.599609 0.340434,-0.221632 0.671812,-0.520981 0.970703,-0.763672 C 78.431402,43.559081 79.99016,40.375167 80,37 80,30.924876 75.075124,26 69,26 Z m -36,4 a 3,3 0 0 0 -3,3 3,3 0 0 0 3,3 3,3 0 0 0 3,-3 3,3 0 0 0 -3,-3 z m 47,18 a 4,4 0 0 0 -4,4 4,4 0 0 0 4,4 4,4 0 0 0 4,-4 4,4 0 0 0 -4,-4 z"
       id="circle2948-7" />
    <path
       style="display:inline;opacity:1;mix-blend-mode:overlay;fill:#ffffff;fill-opacity:0.995778"
       d="m 54,24 a 2,2 0 0 0 -2,2 2,2 0 0 0 2,2 2,2 0 0 0 2,-2 2,2 0 0 0 -2,-2 z m 15,2 c -3.381967,0.01 -6.57135,1.575163 -8.648438,4.244141 -0.0563,0.0464 -0.107413,0.0988 -0.152343,0.15625 l -0.59961,0.798828 c -0.0166,0.0228 -0.03227,0.04621 -0.04687,0.07031 -0.903604,1.443221 -2.611574,2.148893 -4.267583,1.769533 C 53.607318,32.353893 51.812368,32.00099 50,32 c -4.667905,0.007 -9.025353,2.339767 -11.619141,6.220703 -0.0119,0.008 -0.02356,0.01544 -0.03516,0.02344 -1.455578,1.262418 -3.353472,1.894402 -5.275391,1.757812 C 33.046913,40.000953 33.0234,40 33,40 h -3 c -7.731982,0 -14,6.268018 -14,14 0,7.731982 6.268018,14 14,14 1.769798,-0.0111 3.521441,-0.357765 5.162109,-1.021484 0.0838,-0.0111 0.165811,-0.03265 0.244141,-0.06445 l 0.373047,-0.166015 c 0.0209,-0.009 0.0417,-0.01824 0.0625,-0.02734 L 40.75,64.539062 c 1.963948,-0.872859 4.235209,-0.68043 6.023437,0.511719 l 1.587891,1.058594 C 50.955905,68.595093 54.406894,69.98807 58,70 65.731982,70 72,63.731982 72,56 v -4 c 0,-2.204178 1.037443,-4.277101 2.800781,-5.599609 0.340434,-0.221632 0.671812,-0.520981 0.970703,-0.763672 C 78.431402,43.559081 79.99016,40.375167 80,37 80,30.924876 75.075124,26 69,26 Z m -36,4 a 3,3 0 0 0 -3,3 3,3 0 0 0 3,3 3,3 0 0 0 3,-3 3,3 0 0 0 -3,-3 z m 47,18 a 4,4 0 0 0 -4,4 4,4 0 0 0 4,4 4,4 0 0 0 4,-4 4,4 0 0 0 -4,-4 z"
       id="path8" />
    <path
       style="display:inline;opacity:0.25;mix-blend-mode:normal;fill:#ffffff;fill-opacity:1"
       d="m 54,24 a 2,2 0 0 0 -2,2 2,2 0 0 0 2,2 2,2 0 0 0 2,-2 2,2 0 0 0 -2,-2 z m 15,2 c -3.381967,0.01 -6.57135,1.575163 -8.648438,4.244141 -0.0563,0.0464 -0.107413,0.0988 -0.152343,0.15625 l -0.59961,0.798828 c -0.0166,0.0228 -0.03227,0.04621 -0.04687,0.07031 -0.903604,1.443221 -2.611574,2.148893 -4.267583,1.769533 C 53.607318,32.353893 51.812368,32.00099 50,32 c -4.667905,0.007 -9.025353,2.339767 -11.619141,6.220703 -0.0119,0.008 -0.02356,0.01544 -0.03516,0.02344 -1.455578,1.262418 -3.353472,1.894402 -5.275391,1.757812 C 33.046913,40.000953 33.0234,40 33,40 h -3 c -7.731982,0 -14,6.268018 -14,14 0,7.731982 6.268018,14 14,14 1.769798,-0.0111 3.521441,-0.357765 5.162109,-1.021484 0.0838,-0.0111 0.165811,-0.03265 0.244141,-0.06445 l 0.373047,-0.166015 c 0.0209,-0.009 0.0417,-0.01824 0.0625,-0.02734 L 40.75,64.539062 c 1.963948,-0.872859 4.235209,-0.68043 6.023437,0.511719 l 1.587891,1.058594 C 50.955905,68.595093 54.406894,69.98807 58,70 65.731982,70 72,63.731982 72,56 v -4 c 0,-2.204178 1.037443,-4.277101 2.800781,-5.599609 0.340434,-0.221632 0.671812,-0.520981 0.970703,-0.763672 C 78.431402,43.559081 79.99016,40.375167 80,37 80,30.924876 75.075124,26 69,26 Z m -36,4 a 3,3 0 0 0 -3,3 3,3 0 0 0 3,3 3,3 0 0 0 3,-3 3,3 0 0 0 -3,-3 z m 47,18 a 4,4 0 0 0 -4,4 4,4 0 0 0 4,4 4,4 0 0 0 4,-4 4,4 0 0 0 -4,-4 z"
       id="path11" />
    <path
       id="path12"
       d="m 54,24 a 2,2 0 0 0 -2,2 2,2 0 0 0 0.132812,0.5 A 2,2 0 0 1 54,25 2,2 0 0 1 55.896484,26.384766 2,2 0 0 0 56,26 2,2 0 0 0 54,24 Z m 15,2 c -3.381964,0.01 -6.571352,1.575165 -8.648438,4.244141 -0.0563,0.0464 -0.107413,0.0988 -0.152343,0.15625 l -0.59961,0.798828 c -0.0166,0.0228 -0.03227,0.04621 -0.04687,0.07031 -0.903603,1.44322 -2.61157,2.148891 -4.267578,1.769531 C 53.60732,32.353894 51.812366,32.00099 50,32 c -4.6679,0.007 -9.025355,2.339771 -11.619141,6.220703 -0.0119,0.008 -0.02356,0.01544 -0.03516,0.02344 -1.455576,1.262416 -3.353473,1.894402 -5.275391,1.757812 C 33.046918,40.000951 33.0234,40 33,40 h -3 c -7.731974,0 -14,6.268026 -14,14 0,0.168777 0.01947,0.332668 0.02539,0.5 C 16.29082,47.001559 22.436803,41 30,41 h 3 c 0.0234,0 0.04692,9.51e-4 0.07031,0.002 1.921918,0.13659 3.819815,-0.495396 5.275391,-1.757812 0.0116,-0.008 0.02326,-0.01544 0.03516,-0.02344 C 40.974645,35.339771 45.3321,33.007 50,33 c 1.812366,9.9e-4 3.60732,0.353894 5.285156,1.039062 1.656008,0.37936 3.363975,-0.326311 4.267578,-1.769531 0.0146,-0.0241 0.03027,-0.04751 0.04687,-0.07031 l 0.59961,-0.798828 c 0.04493,-0.05745 0.09604,-0.10985 0.152343,-0.15625 C 62.428648,28.575165 65.618036,27.01 69,27 74.890547,27 79.685877,31.633725 79.972656,37.453125 79.97936,37.301766 79.999556,37.152221 80,37 80,30.924882 75.075118,26 69,26 Z m -36,4 a 3,3 0 0 0 -3,3 3,3 0 0 0 0.09961,0.5 A 3,3 0 0 1 33,31 3,3 0 0 1 35.925781,33.373047 3,3 0 0 0 36,33 3,3 0 0 0 33,30 Z m 47,18 a 4,4 0 0 0 -4,4 4,4 0 0 0 0.09961,0.5 A 4,4 0 0 1 80,49 4,4 0 0 1 83.935547,52.326172 4,4 0 0 0 84,52 4,4 0 0 0 80,48 Z"
       style="display:inline;opacity:0.25;mix-blend-mode:normal;fill:#ffffff" />
  </g>
  <script
     id="mesh_polyfill"
     type="text/javascript">
!function(){const t=&quot;http://www.w3.org/2000/svg&quot;,e=&quot;http://www.w3.org/1999/xlink&quot;,s=&quot;http://www.w3.org/1999/xhtml&quot;,r=2;if(document.createElementNS(t,&quot;meshgradient&quot;).x)return;const n=(t,e,s,r)=&gt;{let n=new x(.5*(e.x+s.x),.5*(e.y+s.y)),o=new x(.5*(t.x+e.x),.5*(t.y+e.y)),i=new x(.5*(s.x+r.x),.5*(s.y+r.y)),a=new x(.5*(n.x+o.x),.5*(n.y+o.y)),h=new x(.5*(n.x+i.x),.5*(n.y+i.y)),l=new x(.5*(a.x+h.x),.5*(a.y+h.y));return[[t,o,a,l],[l,h,i,r]]},o=t=&gt;{let e=t[0].distSquared(t[1]),s=t[2].distSquared(t[3]),r=.25*t[0].distSquared(t[2]),n=.25*t[1].distSquared(t[3]),o=e&gt;s?e:s,i=r&gt;n?r:n;return 18*(o&gt;i?o:i)},i=(t,e)=&gt;Math.sqrt(t.distSquared(e)),a=(t,e)=&gt;t.scale(2/3).add(e.scale(1/3)),h=t=&gt;{let e,s,r,n,o,i,a,h=new g;return t.match(/(\w+\(\s*[^)]+\))+/g).forEach(t=&gt;{let l=t.match(/[\w.-]+/g),d=l.shift();switch(d){case&quot;translate&quot;:2===l.length?e=new g(1,0,0,1,l[0],l[1]):(console.error(&quot;mesh.js: translate does not have 2 arguments!&quot;),e=new g(1,0,0,1,0,0)),h=h.append(e);break;case&quot;scale&quot;:1===l.length?s=new g(l[0],0,0,l[0],0,0):2===l.length?s=new g(l[0],0,0,l[1],0,0):(console.error(&quot;mesh.js: scale does not have 1 or 2 arguments!&quot;),s=new g(1,0,0,1,0,0)),h=h.append(s);break;case&quot;rotate&quot;:if(3===l.length&amp;&amp;(e=new g(1,0,0,1,l[1],l[2]),h=h.append(e)),l[0]){r=l[0]*Math.PI/180;let t=Math.cos(r),e=Math.sin(r);Math.abs(t)&lt;1e-16&amp;&amp;(t=0),Math.abs(e)&lt;1e-16&amp;&amp;(e=0),a=new g(t,e,-e,t,0,0),h=h.append(a)}else console.error(&quot;math.js: No argument to rotate transform!&quot;);3===l.length&amp;&amp;(e=new g(1,0,0,1,-l[1],-l[2]),h=h.append(e));break;case&quot;skewX&quot;:l[0]?(r=l[0]*Math.PI/180,n=Math.tan(r),o=new g(1,0,n,1,0,0),h=h.append(o)):console.error(&quot;math.js: No argument to skewX transform!&quot;);break;case&quot;skewY&quot;:l[0]?(r=l[0]*Math.PI/180,n=Math.tan(r),i=new g(1,n,0,1,0,0),h=h.append(i)):console.error(&quot;math.js: No argument to skewY transform!&quot;);break;case&quot;matrix&quot;:6===l.length?h=h.append(new g(...l)):console.error(&quot;math.js: Incorrect number of arguments for matrix!&quot;);break;default:console.error(&quot;mesh.js: Unhandled transform type: &quot;+d)}}),h},l=t=&gt;{let e=[],s=t.split(/[ ,]+/);for(let t=0,r=s.length-1;t&lt;r;t+=2)e.push(new x(parseFloat(s[t]),parseFloat(s[t+1])));return e},d=(t,e)=&gt;{for(let s in e)t.setAttribute(s,e[s])},c=(t,e,s,r,n)=&gt;{let o,i,a=[0,0,0,0];for(let h=0;h&lt;3;++h)e[h]&lt;t[h]&amp;&amp;e[h]&lt;s[h]||t[h]&lt;e[h]&amp;&amp;s[h]&lt;e[h]?a[h]=0:(a[h]=.5*((e[h]-t[h])/r+(s[h]-e[h])/n),o=Math.abs(3*(e[h]-t[h])/r),i=Math.abs(3*(s[h]-e[h])/n),a[h]&gt;o?a[h]=o:a[h]&gt;i&amp;&amp;(a[h]=i));return a},u=[[1,0,0,0,0,0,0,0,0,0,0,0,0,0,0,0],[0,0,0,0,1,0,0,0,0,0,0,0,0,0,0,0],[-3,3,0,0,-2,-1,0,0,0,0,0,0,0,0,0,0],[2,-2,0,0,1,1,0,0,0,0,0,0,0,0,0,0],[0,0,0,0,0,0,0,0,1,0,0,0,0,0,0,0],[0,0,0,0,0,0,0,0,0,0,0,0,1,0,0,0],[0,0,0,0,0,0,0,0,-3,3,0,0,-2,-1,0,0],[0,0,0,0,0,0,0,0,2,-2,0,0,1,1,0,0],[-3,0,3,0,0,0,0,0,-2,0,-1,0,0,0,0,0],[0,0,0,0,-3,0,3,0,0,0,0,0,-2,0,-1,0],[9,-9,-9,9,6,3,-6,-3,6,-6,3,-3,4,2,2,1],[-6,6,6,-6,-3,-3,3,3,-4,4,-2,2,-2,-2,-1,-1],[2,0,-2,0,0,0,0,0,1,0,1,0,0,0,0,0],[0,0,0,0,2,0,-2,0,0,0,0,0,1,0,1,0],[-6,6,6,-6,-4,-2,4,2,-3,3,-3,3,-2,-1,-2,-1],[4,-4,-4,4,2,2,-2,-2,2,-2,2,-2,1,1,1,1]],f=t=&gt;{let e=[];for(let s=0;s&lt;16;++s){e[s]=0;for(let r=0;r&lt;16;++r)e[s]+=u[s][r]*t[r]}return e},p=(t,e,s)=&gt;{const r=e*e,n=s*s,o=e*e*e,i=s*s*s;return t[0]+t[1]*e+t[2]*r+t[3]*o+t[4]*s+t[5]*s*e+t[6]*s*r+t[7]*s*o+t[8]*n+t[9]*n*e+t[10]*n*r+t[11]*n*o+t[12]*i+t[13]*i*e+t[14]*i*r+t[15]*i*o},y=t=&gt;{let e=[],s=[],r=[];for(let s=0;s&lt;4;++s)e[s]=[],e[s][0]=n(t[0][s],t[1][s],t[2][s],t[3][s]),e[s][1]=[],e[s][1].push(...n(...e[s][0][0])),e[s][1].push(...n(...e[s][0][1])),e[s][2]=[],e[s][2].push(...n(...e[s][1][0])),e[s][2].push(...n(...e[s][1][1])),e[s][2].push(...n(...e[s][1][2])),e[s][2].push(...n(...e[s][1][3]));for(let t=0;t&lt;8;++t){s[t]=[];for(let r=0;r&lt;4;++r)s[t][r]=[],s[t][r][0]=n(e[0][2][t][r],e[1][2][t][r],e[2][2][t][r],e[3][2][t][r]),s[t][r][1]=[],s[t][r][1].push(...n(...s[t][r][0][0])),s[t][r][1].push(...n(...s[t][r][0][1])),s[t][r][2]=[],s[t][r][2].push(...n(...s[t][r][1][0])),s[t][r][2].push(...n(...s[t][r][1][1])),s[t][r][2].push(...n(...s[t][r][1][2])),s[t][r][2].push(...n(...s[t][r][1][3]))}for(let t=0;t&lt;8;++t){r[t]=[];for(let e=0;e&lt;8;++e)r[t][e]=[],r[t][e][0]=s[t][0][2][e],r[t][e][1]=s[t][1][2][e],r[t][e][2]=s[t][2][2][e],r[t][e][3]=s[t][3][2][e]}return r};class x{constructor(t,e){this.x=t||0,this.y=e||0}toString(){return`(x=${this.x}, y=${this.y})`}clone(){return new x(this.x,this.y)}add(t){return new x(this.x+t.x,this.y+t.y)}scale(t){return void 0===t.x?new x(this.x*t,this.y*t):new x(this.x*t.x,this.y*t.y)}distSquared(t){let e=this.x-t.x,s=this.y-t.y;return e*e+s*s}transform(t){let e=this.x*t.a+this.y*t.c+t.e,s=this.x*t.b+this.y*t.d+t.f;return new x(e,s)}}class g{constructor(t,e,s,r,n,o){void 0===t?(this.a=1,this.b=0,this.c=0,this.d=1,this.e=0,this.f=0):(this.a=t,this.b=e,this.c=s,this.d=r,this.e=n,this.f=o)}toString(){return`affine: ${this.a} ${this.c} ${this.e} \n       ${this.b} ${this.d} ${this.f}`}append(t){t instanceof g||console.error(&quot;mesh.js: argument to Affine.append is not affine!&quot;);let e=this.a*t.a+this.c*t.b,s=this.b*t.a+this.d*t.b,r=this.a*t.c+this.c*t.d,n=this.b*t.c+this.d*t.d,o=this.a*t.e+this.c*t.f+this.e,i=this.b*t.e+this.d*t.f+this.f;return new g(e,s,r,n,o,i)}}class w{constructor(t,e){this.nodes=t,this.colors=e}paintCurve(t,e){if(o(this.nodes)&gt;r){const s=n(...this.nodes);let r=[[],[]],o=[[],[]];for(let t=0;t&lt;4;++t)r[0][t]=this.colors[0][t],r[1][t]=(this.colors[0][t]+this.colors[1][t])/2,o[0][t]=r[1][t],o[1][t]=this.colors[1][t];let i=new w(s[0],r),a=new w(s[1],o);i.paintCurve(t,e),a.paintCurve(t,e)}else{let s=Math.round(this.nodes[0].x);if(s&gt;=0&amp;&amp;s&lt;e){let r=4*(~~this.nodes[0].y*e+s);t[r]=Math.round(this.colors[0][0]),t[r+1]=Math.round(this.colors[0][1]),t[r+2]=Math.round(this.colors[0][2]),t[r+3]=Math.round(this.colors[0][3])}}}}class m{constructor(t,e){this.nodes=t,this.colors=e}split(){let t=[[],[],[],[]],e=[[],[],[],[]],s=[[[],[]],[[],[]]],r=[[[],[]],[[],[]]];for(let s=0;s&lt;4;++s){const r=n(this.nodes[0][s],this.nodes[1][s],this.nodes[2][s],this.nodes[3][s]);t[0][s]=r[0][0],t[1][s]=r[0][1],t[2][s]=r[0][2],t[3][s]=r[0][3],e[0][s]=r[1][0],e[1][s]=r[1][1],e[2][s]=r[1][2],e[3][s]=r[1][3]}for(let t=0;t&lt;4;++t)s[0][0][t]=this.colors[0][0][t],s[0][1][t]=this.colors[0][1][t],s[1][0][t]=(this.colors[0][0][t]+this.colors[1][0][t])/2,s[1][1][t]=(this.colors[0][1][t]+this.colors[1][1][t])/2,r[0][0][t]=s[1][0][t],r[0][1][t]=s[1][1][t],r[1][0][t]=this.colors[1][0][t],r[1][1][t]=this.colors[1][1][t];return[new m(t,s),new m(e,r)]}paint(t,e){let s,n=!1;for(let t=0;t&lt;4;++t)if((s=o([this.nodes[0][t],this.nodes[1][t],this.nodes[2][t],this.nodes[3][t]]))&gt;r){n=!0;break}if(n){let s=this.split();s[0].paint(t,e),s[1].paint(t,e)}else{new w([...this.nodes[0]],[...this.colors[0]]).paintCurve(t,e)}}}class b{constructor(t){this.readMesh(t),this.type=t.getAttribute(&quot;type&quot;)||&quot;bilinear&quot;}readMesh(t){let e=[[]],s=[[]],r=Number(t.getAttribute(&quot;x&quot;)),n=Number(t.getAttribute(&quot;y&quot;));e[0][0]=new x(r,n);let o=t.children;for(let t=0,r=o.length;t&lt;r;++t){e[3*t+1]=[],e[3*t+2]=[],e[3*t+3]=[],s[t+1]=[];let r=o[t].children;for(let n=0,o=r.length;n&lt;o;++n){let o=r[n].children;for(let r=0,i=o.length;r&lt;i;++r){let i=r;0!==t&amp;&amp;++i;let h,d=o[r].getAttribute(&quot;path&quot;),c=&quot;l&quot;;null!=d&amp;&amp;(c=(h=d.match(/\s*([lLcC])\s*(.*)/))[1]);let u=l(h[2]);switch(c){case&quot;l&quot;:0===i?(e[3*t][3*n+3]=u[0].add(e[3*t][3*n]),e[3*t][3*n+1]=a(e[3*t][3*n],e[3*t][3*n+3]),e[3*t][3*n+2]=a(e[3*t][3*n+3],e[3*t][3*n])):1===i?(e[3*t+3][3*n+3]=u[0].add(e[3*t][3*n+3]),e[3*t+1][3*n+3]=a(e[3*t][3*n+3],e[3*t+3][3*n+3]),e[3*t+2][3*n+3]=a(e[3*t+3][3*n+3],e[3*t][3*n+3])):2===i?(0===n&amp;&amp;(e[3*t+3][3*n+0]=u[0].add(e[3*t+3][3*n+3])),e[3*t+3][3*n+1]=a(e[3*t+3][3*n],e[3*t+3][3*n+3]),e[3*t+3][3*n+2]=a(e[3*t+3][3*n+3],e[3*t+3][3*n])):(e[3*t+1][3*n]=a(e[3*t][3*n],e[3*t+3][3*n]),e[3*t+2][3*n]=a(e[3*t+3][3*n],e[3*t][3*n]));break;case&quot;L&quot;:0===i?(e[3*t][3*n+3]=u[0],e[3*t][3*n+1]=a(e[3*t][3*n],e[3*t][3*n+3]),e[3*t][3*n+2]=a(e[3*t][3*n+3],e[3*t][3*n])):1===i?(e[3*t+3][3*n+3]=u[0],e[3*t+1][3*n+3]=a(e[3*t][3*n+3],e[3*t+3][3*n+3]),e[3*t+2][3*n+3]=a(e[3*t+3][3*n+3],e[3*t][3*n+3])):2===i?(0===n&amp;&amp;(e[3*t+3][3*n+0]=u[0]),e[3*t+3][3*n+1]=a(e[3*t+3][3*n],e[3*t+3][3*n+3]),e[3*t+3][3*n+2]=a(e[3*t+3][3*n+3],e[3*t+3][3*n])):(e[3*t+1][3*n]=a(e[3*t][3*n],e[3*t+3][3*n]),e[3*t+2][3*n]=a(e[3*t+3][3*n],e[3*t][3*n]));break;case&quot;c&quot;:0===i?(e[3*t][3*n+1]=u[0].add(e[3*t][3*n]),e[3*t][3*n+2]=u[1].add(e[3*t][3*n]),e[3*t][3*n+3]=u[2].add(e[3*t][3*n])):1===i?(e[3*t+1][3*n+3]=u[0].add(e[3*t][3*n+3]),e[3*t+2][3*n+3]=u[1].add(e[3*t][3*n+3]),e[3*t+3][3*n+3]=u[2].add(e[3*t][3*n+3])):2===i?(e[3*t+3][3*n+2]=u[0].add(e[3*t+3][3*n+3]),e[3*t+3][3*n+1]=u[1].add(e[3*t+3][3*n+3]),0===n&amp;&amp;(e[3*t+3][3*n+0]=u[2].add(e[3*t+3][3*n+3]))):(e[3*t+2][3*n]=u[0].add(e[3*t+3][3*n]),e[3*t+1][3*n]=u[1].add(e[3*t+3][3*n]));break;case&quot;C&quot;:0===i?(e[3*t][3*n+1]=u[0],e[3*t][3*n+2]=u[1],e[3*t][3*n+3]=u[2]):1===i?(e[3*t+1][3*n+3]=u[0],e[3*t+2][3*n+3]=u[1],e[3*t+3][3*n+3]=u[2]):2===i?(e[3*t+3][3*n+2]=u[0],e[3*t+3][3*n+1]=u[1],0===n&amp;&amp;(e[3*t+3][3*n+0]=u[2])):(e[3*t+2][3*n]=u[0],e[3*t+1][3*n]=u[1]);break;default:console.error(&quot;mesh.js: &quot;+c+&quot; invalid path type.&quot;)}if(0===t&amp;&amp;0===n||r&gt;0){let e=window.getComputedStyle(o[r]).stopColor.match(/^rgb\s*\(\s*(\d+)\s*,\s*(\d+)\s*,\s*(\d+)\s*\)$/i),a=window.getComputedStyle(o[r]).stopOpacity,h=255;a&amp;&amp;(h=Math.floor(255*a)),e&amp;&amp;(0===i?(s[t][n]=[],s[t][n][0]=Math.floor(e[1]),s[t][n][1]=Math.floor(e[2]),s[t][n][2]=Math.floor(e[3]),s[t][n][3]=h):1===i?(s[t][n+1]=[],s[t][n+1][0]=Math.floor(e[1]),s[t][n+1][1]=Math.floor(e[2]),s[t][n+1][2]=Math.floor(e[3]),s[t][n+1][3]=h):2===i?(s[t+1][n+1]=[],s[t+1][n+1][0]=Math.floor(e[1]),s[t+1][n+1][1]=Math.floor(e[2]),s[t+1][n+1][2]=Math.floor(e[3]),s[t+1][n+1][3]=h):3===i&amp;&amp;(s[t+1][n]=[],s[t+1][n][0]=Math.floor(e[1]),s[t+1][n][1]=Math.floor(e[2]),s[t+1][n][2]=Math.floor(e[3]),s[t+1][n][3]=h))}}e[3*t+1][3*n+1]=new x,e[3*t+1][3*n+2]=new x,e[3*t+2][3*n+1]=new x,e[3*t+2][3*n+2]=new x,e[3*t+1][3*n+1].x=(-4*e[3*t][3*n].x+6*(e[3*t][3*n+1].x+e[3*t+1][3*n].x)+-2*(e[3*t][3*n+3].x+e[3*t+3][3*n].x)+3*(e[3*t+3][3*n+1].x+e[3*t+1][3*n+3].x)+-1*e[3*t+3][3*n+3].x)/9,e[3*t+1][3*n+2].x=(-4*e[3*t][3*n+3].x+6*(e[3*t][3*n+2].x+e[3*t+1][3*n+3].x)+-2*(e[3*t][3*n].x+e[3*t+3][3*n+3].x)+3*(e[3*t+3][3*n+2].x+e[3*t+1][3*n].x)+-1*e[3*t+3][3*n].x)/9,e[3*t+2][3*n+1].x=(-4*e[3*t+3][3*n].x+6*(e[3*t+3][3*n+1].x+e[3*t+2][3*n].x)+-2*(e[3*t+3][3*n+3].x+e[3*t][3*n].x)+3*(e[3*t][3*n+1].x+e[3*t+2][3*n+3].x)+-1*e[3*t][3*n+3].x)/9,e[3*t+2][3*n+2].x=(-4*e[3*t+3][3*n+3].x+6*(e[3*t+3][3*n+2].x+e[3*t+2][3*n+3].x)+-2*(e[3*t+3][3*n].x+e[3*t][3*n+3].x)+3*(e[3*t][3*n+2].x+e[3*t+2][3*n].x)+-1*e[3*t][3*n].x)/9,e[3*t+1][3*n+1].y=(-4*e[3*t][3*n].y+6*(e[3*t][3*n+1].y+e[3*t+1][3*n].y)+-2*(e[3*t][3*n+3].y+e[3*t+3][3*n].y)+3*(e[3*t+3][3*n+1].y+e[3*t+1][3*n+3].y)+-1*e[3*t+3][3*n+3].y)/9,e[3*t+1][3*n+2].y=(-4*e[3*t][3*n+3].y+6*(e[3*t][3*n+2].y+e[3*t+1][3*n+3].y)+-2*(e[3*t][3*n].y+e[3*t+3][3*n+3].y)+3*(e[3*t+3][3*n+2].y+e[3*t+1][3*n].y)+-1*e[3*t+3][3*n].y)/9,e[3*t+2][3*n+1].y=(-4*e[3*t+3][3*n].y+6*(e[3*t+3][3*n+1].y+e[3*t+2][3*n].y)+-2*(e[3*t+3][3*n+3].y+e[3*t][3*n].y)+3*(e[3*t][3*n+1].y+e[3*t+2][3*n+3].y)+-1*e[3*t][3*n+3].y)/9,e[3*t+2][3*n+2].y=(-4*e[3*t+3][3*n+3].y+6*(e[3*t+3][3*n+2].y+e[3*t+2][3*n+3].y)+-2*(e[3*t+3][3*n].y+e[3*t][3*n+3].y)+3*(e[3*t][3*n+2].y+e[3*t+2][3*n].y)+-1*e[3*t][3*n].y)/9}}this.nodes=e,this.colors=s}paintMesh(t,e){let s=(this.nodes.length-1)/3,r=(this.nodes[0].length-1)/3;if(&quot;bilinear&quot;===this.type||s&lt;2||r&lt;2){let n;for(let o=0;o&lt;s;++o)for(let s=0;s&lt;r;++s){let r=[];for(let t=3*o,e=3*o+4;t&lt;e;++t)r.push(this.nodes[t].slice(3*s,3*s+4));let i=[];i.push(this.colors[o].slice(s,s+2)),i.push(this.colors[o+1].slice(s,s+2)),(n=new m(r,i)).paint(t,e)}}else{let n,o,a,h,l,d,u;const x=s,g=r;s++,r++;let w=new Array(s);for(let t=0;t&lt;s;++t){w[t]=new Array(r);for(let e=0;e&lt;r;++e)w[t][e]=[],w[t][e][0]=this.nodes[3*t][3*e],w[t][e][1]=this.colors[t][e]}for(let t=0;t&lt;s;++t)for(let e=0;e&lt;r;++e)0!==t&amp;&amp;t!==x&amp;&amp;(n=i(w[t-1][e][0],w[t][e][0]),o=i(w[t+1][e][0],w[t][e][0]),w[t][e][2]=c(w[t-1][e][1],w[t][e][1],w[t+1][e][1],n,o)),0!==e&amp;&amp;e!==g&amp;&amp;(n=i(w[t][e-1][0],w[t][e][0]),o=i(w[t][e+1][0],w[t][e][0]),w[t][e][3]=c(w[t][e-1][1],w[t][e][1],w[t][e+1][1],n,o));for(let t=0;t&lt;r;++t){w[0][t][2]=[],w[x][t][2]=[];for(let e=0;e&lt;4;++e)n=i(w[1][t][0],w[0][t][0]),o=i(w[x][t][0],w[x-1][t][0]),w[0][t][2][e]=n&gt;0?2*(w[1][t][1][e]-w[0][t][1][e])/n-w[1][t][2][e]:0,w[x][t][2][e]=o&gt;0?2*(w[x][t][1][e]-w[x-1][t][1][e])/o-w[x-1][t][2][e]:0}for(let t=0;t&lt;s;++t){w[t][0][3]=[],w[t][g][3]=[];for(let e=0;e&lt;4;++e)n=i(w[t][1][0],w[t][0][0]),o=i(w[t][g][0],w[t][g-1][0]),w[t][0][3][e]=n&gt;0?2*(w[t][1][1][e]-w[t][0][1][e])/n-w[t][1][3][e]:0,w[t][g][3][e]=o&gt;0?2*(w[t][g][1][e]-w[t][g-1][1][e])/o-w[t][g-1][3][e]:0}for(let s=0;s&lt;x;++s)for(let r=0;r&lt;g;++r){let n=i(w[s][r][0],w[s+1][r][0]),o=i(w[s][r+1][0],w[s+1][r+1][0]),c=i(w[s][r][0],w[s][r+1][0]),x=i(w[s+1][r][0],w[s+1][r+1][0]),g=[[],[],[],[]];for(let t=0;t&lt;4;++t){(d=[])[0]=w[s][r][1][t],d[1]=w[s+1][r][1][t],d[2]=w[s][r+1][1][t],d[3]=w[s+1][r+1][1][t],d[4]=w[s][r][2][t]*n,d[5]=w[s+1][r][2][t]*n,d[6]=w[s][r+1][2][t]*o,d[7]=w[s+1][r+1][2][t]*o,d[8]=w[s][r][3][t]*c,d[9]=w[s+1][r][3][t]*x,d[10]=w[s][r+1][3][t]*c,d[11]=w[s+1][r+1][3][t]*x,d[12]=0,d[13]=0,d[14]=0,d[15]=0,u=f(d);for(let e=0;e&lt;9;++e){g[t][e]=[];for(let s=0;s&lt;9;++s)g[t][e][s]=p(u,e/8,s/8),g[t][e][s]&gt;255?g[t][e][s]=255:g[t][e][s]&lt;0&amp;&amp;(g[t][e][s]=0)}}h=[];for(let t=3*s,e=3*s+4;t&lt;e;++t)h.push(this.nodes[t].slice(3*r,3*r+4));l=y(h);for(let s=0;s&lt;8;++s)for(let r=0;r&lt;8;++r)(a=new m(l[s][r],[[[g[0][s][r],g[1][s][r],g[2][s][r],g[3][s][r]],[g[0][s][r+1],g[1][s][r+1],g[2][s][r+1],g[3][s][r+1]]],[[g[0][s+1][r],g[1][s+1][r],g[2][s+1][r],g[3][s+1][r]],[g[0][s+1][r+1],g[1][s+1][r+1],g[2][s+1][r+1],g[3][s+1][r+1]]]])).paint(t,e)}}}transform(t){if(t instanceof x)for(let e=0,s=this.nodes.length;e&lt;s;++e)for(let s=0,r=this.nodes[0].length;s&lt;r;++s)this.nodes[e][s]=this.nodes[e][s].add(t);else if(t instanceof g)for(let e=0,s=this.nodes.length;e&lt;s;++e)for(let s=0,r=this.nodes[0].length;s&lt;r;++s)this.nodes[e][s]=this.nodes[e][s].transform(t)}scale(t){for(let e=0,s=this.nodes.length;e&lt;s;++e)for(let s=0,r=this.nodes[0].length;s&lt;r;++s)this.nodes[e][s]=this.nodes[e][s].scale(t)}}document.querySelectorAll(&quot;rect,circle,ellipse,path,text&quot;).forEach((r,n)=&gt;{let o=r.getAttribute(&quot;id&quot;);o||(o=&quot;patchjs_shape&quot;+n,r.setAttribute(&quot;id&quot;,o));const i=r.style.fill.match(/^url\(\s*&quot;?\s*#([^\s&quot;]+)&quot;?\s*\)/),a=r.style.stroke.match(/^url\(\s*&quot;?\s*#([^\s&quot;]+)&quot;?\s*\)/);if(i&amp;&amp;i[1]){const a=document.getElementById(i[1]);if(a&amp;&amp;&quot;meshgradient&quot;===a.nodeName){const i=r.getBBox();let l=document.createElementNS(s,&quot;canvas&quot;);d(l,{width:i.width,height:i.height});const c=l.getContext(&quot;2d&quot;);let u=c.createImageData(i.width,i.height);const f=new b(a);&quot;objectBoundingBox&quot;===a.getAttribute(&quot;gradientUnits&quot;)&amp;&amp;f.scale(new x(i.width,i.height));const p=a.getAttribute(&quot;gradientTransform&quot;);null!=p&amp;&amp;f.transform(h(p)),&quot;userSpaceOnUse&quot;===a.getAttribute(&quot;gradientUnits&quot;)&amp;&amp;f.transform(new x(-i.x,-i.y)),f.paintMesh(u.data,l.width),c.putImageData(u,0,0);const y=document.createElementNS(t,&quot;image&quot;);d(y,{width:i.width,height:i.height,x:i.x,y:i.y});let g=l.toDataURL();y.setAttributeNS(e,&quot;xlink:href&quot;,g),r.parentNode.insertBefore(y,r),r.style.fill=&quot;none&quot;;const w=document.createElementNS(t,&quot;use&quot;);w.setAttributeNS(e,&quot;xlink:href&quot;,&quot;#&quot;+o);const m=&quot;patchjs_clip&quot;+n,M=document.createElementNS(t,&quot;clipPath&quot;);M.setAttribute(&quot;id&quot;,m),M.appendChild(w),r.parentElement.insertBefore(M,r),y.setAttribute(&quot;clip-path&quot;,&quot;url(#&quot;+m+&quot;)&quot;),u=null,l=null,g=null}}if(a&amp;&amp;a[1]){const o=document.getElementById(a[1]);if(o&amp;&amp;&quot;meshgradient&quot;===o.nodeName){const i=parseFloat(r.style.strokeWidth.slice(0,-2))*(parseFloat(r.style.strokeMiterlimit)||parseFloat(r.getAttribute(&quot;stroke-miterlimit&quot;))||1),a=r.getBBox(),l=Math.trunc(a.width+i),c=Math.trunc(a.height+i),u=Math.trunc(a.x-i/2),f=Math.trunc(a.y-i/2);let p=document.createElementNS(s,&quot;canvas&quot;);d(p,{width:l,height:c});const y=p.getContext(&quot;2d&quot;);let g=y.createImageData(l,c);const w=new b(o);&quot;objectBoundingBox&quot;===o.getAttribute(&quot;gradientUnits&quot;)&amp;&amp;w.scale(new x(l,c));const m=o.getAttribute(&quot;gradientTransform&quot;);null!=m&amp;&amp;w.transform(h(m)),&quot;userSpaceOnUse&quot;===o.getAttribute(&quot;gradientUnits&quot;)&amp;&amp;w.transform(new x(-u,-f)),w.paintMesh(g.data,p.width),y.putImageData(g,0,0);const M=document.createElementNS(t,&quot;image&quot;);d(M,{width:l,height:c,x:0,y:0});let S=p.toDataURL();M.setAttributeNS(e,&quot;xlink:href&quot;,S);const k=&quot;pattern_clip&quot;+n,A=document.createElementNS(t,&quot;pattern&quot;);d(A,{id:k,patternUnits:&quot;userSpaceOnUse&quot;,width:l,height:c,x:u,y:f}),A.appendChild(M),o.parentNode.appendChild(A),r.style.stroke=&quot;url(#&quot;+k+&quot;)&quot;,g=null,p=null,S=null}}})}();
</script>
</svg>
