<svg xmlns="http://www.w3.org/2000/svg" xmlns:xlink="http://www.w3.org/1999/xlink" width="128" height="128"><defs><linearGradient id="a"><stop offset="0" style="stop-color:#c061cb;stop-opacity:1"/><stop offset="1" style="stop-color:#62a0ea;stop-opacity:1"/></linearGradient><linearGradient id="b"><stop offset="0" style="stop-color:#fff;stop-opacity:.5"/><stop offset="1" style="stop-color:#62a0ea;stop-opacity:0"/></linearGradient><linearGradient xlink:href="#a" id="c" x1="16" x2="112" y1="16" y2="112" gradientTransform="translate(-864 -384)" gradientUnits="userSpaceOnUse"/><radialGradient xlink:href="#b" id="d" cx="96" cy="128" r="64" fx="96" fy="128" gradientTransform="translate(-864 -384)" gradientUnits="userSpaceOnUse"/><clipPath id="e" clipPathUnits="userSpaceOnUse"><path d="M-69-5H69v138H-69ZM48 64A48 48 0 0 0 0 16a48 48 0 0 0-48 48 48 48 0 0 0 48 48 48 48 0 0 0 48-48" class="powerclip" style="fill:#3584e4"/></clipPath></defs><g style="display:inline"><path d="M-864-384h128v128h-128z" style="fill:url(#c)" transform="translate(864 384)"/><path d="M-864-384h128v128h-128z" style="display:inline;fill:url(#d)" transform="translate(864 384)"/><path d="M-64 0H64v128H-64Z" clip-path="url(#e)" style="fill:#fff" transform="translate(64)"/><g transform="translate(64)"><path d="M21 42a11 11 0 0 0-8.648 4.244 1 1 0 0 0-.153.156l-.6.8-.046.07a3.98 3.98 0 0 1-4.268 1.77A14 14 0 0 0 2 48a14 14 0 0 0-11.62 6.22l-.034.024a7.27 7.27 0 0 1-5.276 1.758L-15 56h-3c-7.732 0-14 6.268-14 14s6.268 14 14 14a14 14 0 0 0 5.162-1.022 1 1 0 0 0 .244-.064l.373-.166.063-.027 4.908-2.182a6.27 6.27 0 0 1 6.023.512l1.588 1.058A14 14 0 0 0 10 86c7.732 0 14-6.268 14-14v-4a7 7 0 0 1 2.8-5.6c.341-.221.673-.52.971-.763A11 11 0 0 0 32 53c0-6.075-4.925-11-11-11" style="fill:#fff"/><circle cx="32" cy="68" r="4" style="fill:#fff"/><circle cx="6" cy="42" r="2" style="fill:#fff"/><circle cx="-15" cy="49" r="3" style="fill:#fff"/></g></g></svg>