<svg xmlns="http://www.w3.org/2000/svg" xmlns:xlink="http://www.w3.org/1999/xlink" id="svg323" width="96" height="96" version="1.1"><defs id="defs320"><linearGradient id="linearGradient4"><stop id="stop3" offset="0" style="stop-color:#fff;stop-opacity:.5"/><stop id="stop4" offset="1" style="stop-color:#62a0ea;stop-opacity:0"/></linearGradient><linearGradient id="linearGradient1"><stop id="stop1" offset="0" style="stop-color:#c061cb;stop-opacity:1"/><stop id="stop2" offset="1" style="stop-color:#62a0ea;stop-opacity:1"/></linearGradient><linearGradient xlink:href="#linearGradient1" id="linearGradient2" x1="0" x2="96" y1="0" y2="96" gradientUnits="userSpaceOnUse"/><radialGradient xlink:href="#linearGradient4" id="radialGradient2" cx="36" cy="96" r="48" fx="36" fy="96" gradientTransform="matrix(2 0 0 2 0 -96)" gradientUnits="userSpaceOnUse"/><clipPath id="clipPath6" clipPathUnits="userSpaceOnUse"><path id="lpe_path-effect6" d="M6.725 16.725h86.55v64.55H6.725ZM54 24a2 2 0 0 0-2 2 2 2 0 0 0 2 2 2 2 0 0 0 2-2 2 2 0 0 0-2-2m15 2a11 11 0 0 0-8.648 4.244 1 1 0 0 0-.153.156l-.6.8-.046.07a3.98 3.98 0 0 1-4.268 1.77A14 14 0 0 0 50 32a14 14 0 0 0-11.62 6.22l-.034.024a7.27 7.27 0 0 1-5.276 1.758L33 40h-3c-7.732 0-14 6.268-14 14s6.268 14 14 14a14 14 0 0 0 5.162-1.021 1 1 0 0 0 .244-.065l.373-.166.063-.027 4.908-2.182a6.27 6.27 0 0 1 6.023.512l1.588 1.058A14 14 0 0 0 58 70c7.732 0 14-6.268 14-14v-4a7 7 0 0 1 2.8-5.6c.341-.221.673-.52.971-.763A11 11 0 0 0 80 37c0-6.075-4.925-11-11-11m-36 4a3 3 0 0 0-3 3 3 3 0 0 0 3 3 3 3 0 0 0 3-3 3 3 0 0 0-3-3m47 18a4 4 0 0 0-4 4 4 4 0 0 0 4 4 4 4 0 0 0 4-4 4 4 0 0 0-4-4" class="powerclip"/></clipPath><filter id="filter4" width="1.126" height="1.186" x="-.063" y="-.093" style="color-interpolation-filters:sRGB"><feGaussianBlur id="feGaussianBlur4" stdDeviation="1.781"/></filter></defs><g id="layer1"><path id="rect541-6" d="M0 0h96v96H0z" style="fill:url(#linearGradient2);stroke-width:.75;fill-opacity:1"/><path id="rect2" d="M0 0h96v96H0z" style="fill:url(#radialGradient2);stroke-width:.75;fill-opacity:1"/><path id="path4" d="M54 26a2 2 0 0 0-2 2 2 2 0 0 0 2 2 2 2 0 0 0 2-2 2 2 0 0 0-2-2m15 2a11 11 0 0 0-8.648 4.244 1 1 0 0 0-.153.156l-.6.8-.046.07a3.98 3.98 0 0 1-4.268 1.77A14 14 0 0 0 50 34a14 14 0 0 0-11.62 6.22l-.034.024a7.27 7.27 0 0 1-5.276 1.758L33 42h-3c-7.732 0-14 6.268-14 14s6.268 14 14 14a14 14 0 0 0 5.162-1.021 1 1 0 0 0 .244-.065l.373-.166.063-.027 4.908-2.182a6.27 6.27 0 0 1 6.023.512l1.588 1.058A14 14 0 0 0 58 72c7.732 0 14-6.268 14-14v-4a7 7 0 0 1 2.8-5.6c.341-.221.673-.52.971-.763A11 11 0 0 0 80 39c0-6.075-4.925-11-11-11m-36 4a3 3 0 0 0-3 3 3 3 0 0 0 3 3 3 3 0 0 0 3-3 3 3 0 0 0-3-3m47 18a4 4 0 0 0-4 4 4 4 0 0 0 4 4 4 4 0 0 0 4-4 4 4 0 0 0-4-4" clip-path="url(#clipPath6)" style="display:inline;fill:#000;fill-opacity:.25;filter:url(#filter4)"/><path id="path13" d="M55.896 26.385A2 2 0 0 1 54 28a2 2 0 0 1-1.867-1.5A2 2 0 0 0 52 27a2 2 0 0 0 2 2 2 2 0 0 0 2-2 2 2 0 0 0-.104-.615m-19.97 6.988A3 3 0 0 1 33 36a3 3 0 0 1-2.9-2.5 3 3 0 0 0-.1.5 3 3 0 0 0 3 3 3 3 0 0 0 3-3 3 3 0 0 0-.074-.627m44.047 4.08a10.99 10.99 0 0 1-4.202 8.184c-.298.242-.63.542-.97.763A7 7 0 0 0 72 52v1a7 7 0 0 1 2.8-5.6c.341-.221.673-.52.971-.763A11 11 0 0 0 80 38c0-.185-.018-.365-.027-.547m3.963 14.873A4 4 0 0 1 80 56a4 4 0 0 1-3.9-3.5 4 4 0 0 0-.1.5 4 4 0 0 0 4 4 4 4 0 0 0 4-4 4 4 0 0 0-.064-.674M16.026 54.5c-.007.167-.026.331-.026.5 0 7.732 6.268 14 14 14a14 14 0 0 0 5.162-1.021 1 1 0 0 0 .244-.065l.373-.166.063-.027 4.908-2.182a6.27 6.27 0 0 1 6.023.512l1.588 1.058A14 14 0 0 0 58 71c7.732 0 14-6.268 14-14v-1c0 7.732-6.268 14-14 14a14 14 0 0 1-9.639-3.89l-1.588-1.06a6.27 6.27 0 0 0-6.023-.51l-4.908 2.18-.063.028-.373.166a1 1 0 0 1-.244.065A14 14 0 0 1 30 68c-7.563 0-13.71-6.002-13.975-13.5" style="display:inline;opacity:.25;mix-blend-mode:overlay;fill:#000"/><path id="circle2948-7" d="M54 24a2 2 0 0 0-2 2 2 2 0 0 0 2 2 2 2 0 0 0 2-2 2 2 0 0 0-2-2m15 2a11 11 0 0 0-8.648 4.244 1 1 0 0 0-.153.156l-.6.8-.046.07a3.98 3.98 0 0 1-4.268 1.77A14 14 0 0 0 50 32a14 14 0 0 0-11.62 6.22l-.034.024a7.27 7.27 0 0 1-5.276 1.758L33 40h-3c-7.732 0-14 6.268-14 14s6.268 14 14 14a14 14 0 0 0 5.162-1.021 1 1 0 0 0 .244-.065l.373-.166.063-.027 4.908-2.182a6.27 6.27 0 0 1 6.023.512l1.588 1.058A14 14 0 0 0 58 70c7.732 0 14-6.268 14-14v-4a7 7 0 0 1 2.8-5.6c.341-.221.673-.52.971-.763A11 11 0 0 0 80 37c0-6.075-4.925-11-11-11m-36 4a3 3 0 0 0-3 3 3 3 0 0 0 3 3 3 3 0 0 0 3-3 3 3 0 0 0-3-3m47 18a4 4 0 0 0-4 4 4 4 0 0 0 4 4 4 4 0 0 0 4-4 4 4 0 0 0-4-4" style="display:inline;opacity:.5;mix-blend-mode:overlay;fill:#000;fill-opacity:1"/><path id="path8" d="M54 24a2 2 0 0 0-2 2 2 2 0 0 0 2 2 2 2 0 0 0 2-2 2 2 0 0 0-2-2m15 2a11 11 0 0 0-8.648 4.244 1 1 0 0 0-.153.156l-.6.8-.046.07a3.98 3.98 0 0 1-4.268 1.77A14 14 0 0 0 50 32a14 14 0 0 0-11.62 6.22l-.034.024a7.27 7.27 0 0 1-5.276 1.758L33 40h-3c-7.732 0-14 6.268-14 14s6.268 14 14 14a14 14 0 0 0 5.162-1.021 1 1 0 0 0 .244-.065l.373-.166.063-.027 4.908-2.182a6.27 6.27 0 0 1 6.023.512l1.588 1.058A14 14 0 0 0 58 70c7.732 0 14-6.268 14-14v-4a7 7 0 0 1 2.8-5.6c.341-.221.673-.52.971-.763A11 11 0 0 0 80 37c0-6.075-4.925-11-11-11m-36 4a3 3 0 0 0-3 3 3 3 0 0 0 3 3 3 3 0 0 0 3-3 3 3 0 0 0-3-3m47 18a4 4 0 0 0-4 4 4 4 0 0 0 4 4 4 4 0 0 0 4-4 4 4 0 0 0-4-4" style="display:inline;opacity:1;mix-blend-mode:overlay;fill:#fff;fill-opacity:.995778"/><path id="path11" d="M54 24a2 2 0 0 0-2 2 2 2 0 0 0 2 2 2 2 0 0 0 2-2 2 2 0 0 0-2-2m15 2a11 11 0 0 0-8.648 4.244 1 1 0 0 0-.153.156l-.6.8-.046.07a3.98 3.98 0 0 1-4.268 1.77A14 14 0 0 0 50 32a14 14 0 0 0-11.62 6.22l-.034.024a7.27 7.27 0 0 1-5.276 1.758L33 40h-3c-7.732 0-14 6.268-14 14s6.268 14 14 14a14 14 0 0 0 5.162-1.021 1 1 0 0 0 .244-.065l.373-.166.063-.027 4.908-2.182a6.27 6.27 0 0 1 6.023.512l1.588 1.058A14 14 0 0 0 58 70c7.732 0 14-6.268 14-14v-4a7 7 0 0 1 2.8-5.6c.341-.221.673-.52.971-.763A11 11 0 0 0 80 37c0-6.075-4.925-11-11-11m-36 4a3 3 0 0 0-3 3 3 3 0 0 0 3 3 3 3 0 0 0 3-3 3 3 0 0 0-3-3m47 18a4 4 0 0 0-4 4 4 4 0 0 0 4 4 4 4 0 0 0 4-4 4 4 0 0 0-4-4" style="display:inline;opacity:.25;mix-blend-mode:normal;fill:#fff;fill-opacity:1"/><path id="path12" d="M54 24a2 2 0 0 0-2 2 2 2 0 0 0 .133.5A2 2 0 0 1 54 25a2 2 0 0 1 1.896 1.385A2 2 0 0 0 56 26a2 2 0 0 0-2-2m15 2a11 11 0 0 0-8.648 4.244 1 1 0 0 0-.153.156l-.6.8-.046.07a3.98 3.98 0 0 1-4.268 1.77A14 14 0 0 0 50 32a14 14 0 0 0-11.62 6.22l-.034.024a7.27 7.27 0 0 1-5.276 1.758L33 40h-3c-7.732 0-14 6.268-14 14 0 .169.02.333.025.5C16.291 47.002 22.437 41 30 41h3l.07.002a7.27 7.27 0 0 0 5.276-1.758l.035-.023A14 14 0 0 1 50 33a14 14 0 0 1 5.285 1.04 3.98 3.98 0 0 0 4.268-1.77l.047-.07.6-.8q.066-.086.152-.156A11 11 0 0 1 69 27c5.89 0 10.686 4.634 10.973 10.453.006-.151.027-.3.027-.453 0-6.075-4.925-11-11-11m-36 4a3 3 0 0 0-3 3 3 3 0 0 0 .1.5A3 3 0 0 1 33 31a3 3 0 0 1 2.926 2.373A3 3 0 0 0 36 33a3 3 0 0 0-3-3m47 18a4 4 0 0 0-4 4 4 4 0 0 0 .1.5A4 4 0 0 1 80 49a4 4 0 0 1 3.936 3.326A4 4 0 0 0 84 52a4 4 0 0 0-4-4" style="display:inline;opacity:.25;mix-blend-mode:normal;fill:#fff"/></g></svg>
