<?xml version="1.0" encoding="UTF-8" standalone="no"?>
<svg
   width="130"
   height="26"
   version="1.1"
   id="svg10"
   sodipodi:docname="page-logo-skeuo.svg"
   inkscape:version="1.3 (0e150ed6c4, 2023-07-21)"
   xmlns:inkscape="http://www.inkscape.org/namespaces/inkscape"
   xmlns:sodipodi="http://sodipodi.sourceforge.net/DTD/sodipodi-0.dtd"
   xmlns:xlink="http://www.w3.org/1999/xlink"
   xmlns="http://www.w3.org/2000/svg"
   xmlns:svg="http://www.w3.org/2000/svg">
  <defs
     id="defs14">
    <linearGradient
       id="linearGradient1"
       inkscape:collect="always">
      <stop
         style="stop-color:#c061cb;stop-opacity:1;"
         offset="0"
         id="stop1" />
      <stop
         style="stop-color:#813d9c;stop-opacity:1;"
         offset="1"
         id="stop2" />
    </linearGradient>
    <linearGradient
       inkscape:collect="always"
       xlink:href="#linearGradient1"
       id="linearGradient2"
       x1="65"
       y1="5.0234375"
       x2="65"
       y2="20.977274"
       gradientUnits="userSpaceOnUse" />
    <filter
       inkscape:collect="always"
       style="color-interpolation-filters:sRGB"
       id="filter2"
       x="-0.028345387"
       y="-0.15655443"
       width="1.0566908"
       height="1.3131089">
      <feGaussianBlur
         inkscape:collect="always"
         stdDeviation="1.3015625"
         id="feGaussianBlur2" />
    </filter>
  </defs>
  <sodipodi:namedview
     id="namedview12"
     pagecolor="#808080"
     bordercolor="#000000"
     borderopacity="0.24705882"
     inkscape:pageshadow="0"
     inkscape:pageopacity="0"
     inkscape:pagecheckerboard="1"
     showgrid="false"
     width="137px"
     inkscape:current-layer="svg10"
     showguides="true"
     inkscape:guide-bbox="true"
     inkscape:showpageshadow="false"
     inkscape:deskcolor="#1f1f1f"
     inkscape:zoom="5.4538462"
     inkscape:cx="65"
     inkscape:cy="13.018336"
     inkscape:window-width="1280"
     inkscape:window-height="731"
     inkscape:window-x="0"
     inkscape:window-y="0"
     inkscape:window-maximized="1">
    <inkscape:grid
       type="xygrid"
       id="grid5602"
       originx="0"
       originy="0"
       spacingy="1"
       spacingx="1"
       units="px"
       visible="false" />
    <sodipodi:guide
       position="60,11"
       orientation="0,-1"
       id="guide140"
       inkscape:locked="false" />
  </sodipodi:namedview>
  <path
     style="color:#000000;-inkscape-font-specification:'Inter, Heavy';fill:#000000;fill-opacity:0.2;-inkscape-stroke:none;filter:url(#filter2)"
     d="m 55.398437,3.0234375 c -0.852964,0 -1.650534,0.3374175 -2.285156,0.8632813 H 47.148437 V 6.84375 c -0.182922,-0.022489 -0.309716,-0.1621094 -0.5,-0.1621094 -0.942153,0 -1.873705,0.3729412 -2.728515,0.9179688 V 6.7949219 H 38.261719 36.783203 31.125 v 0.8085937 c -1.022538,-0.5785333 -2.198317,-0.921875 -3.523438,-0.921875 -1.652559,0 -3.116899,0.4443634 -4.203125,1.3320313 -0.02783,0.02274 -0.03724,0.058746 -0.06445,0.082031 C 22.983921,7.3334272 22.591497,6.5926858 22.001953,6.0097656 20.564739,4.5886996 18.530594,3.8867187 16.330078,3.8867188 H 9.8984375 V 19.523437 H 16.375 c 2.154553,0 4.144774,-0.703949 5.570312,-2.08789 0.235602,0.414345 0.469102,0.836685 0.828125,1.136719 0.972157,0.812425 2.170903,1.085937 3.328125,1.085937 0.194562,0 0.392055,-0.125609 0.591797,-0.150391 v 0.01563 H 33.625 v -0.660156 c 0.769299,0.450898 1.617994,0.773438 2.544922,0.773438 0.274427,0 0.503495,-0.190529 0.773437,-0.236328 v 0.123046 h 6.976563 v -0.808593 c 0.847892,0.541858 1.778465,0.921875 2.75,0.921875 0.184894,0 0.320271,-0.132956 0.5,-0.154297 v 0.04102 h 4.660156 2.453125 0.248047 4.435547 3.353515 l 0.242188,-0.466796 0.248047,0.466796 h 7.710937 l -3.591797,-6.386718 0.292969,-0.544922 h 2.105469 c 0.0092,0.03782 0.01126,0.07564 0.02148,0.113281 h -0.628906 l 0.208984,2.189453 c 0.135357,1.421243 0.919361,2.780132 2.097657,3.607422 1.178296,0.82729 2.647617,1.179688 4.279297,1.179688 1.53209,0 2.974981,-0.353993 4.15625,-1.1875 1.181269,-0.833507 2.039306,-2.279386 2.048828,-3.845703 v -0.01563 -0.01367 c -0.0029,-0.325756 -0.129595,-0.652828 -0.214844,-0.982422 h 0.07617 l -0.08984,-2.085938 C 81.220375,10.092365 80.460019,8.6731587 79.296875,7.8398437 78.133731,7.0065288 76.702592,6.6816406 75.148437,6.6816406 c -1.177221,0 -2.2466,0.2573729 -3.228515,0.7109375 V 3.8867188 h -2 H 65.875 v 2.9082031 h -3.240234 l -0.05273,0.1074218 -0.05078,-0.1074218 h -1.269531 -2.294922 -0.0957 c 0.01274,-0.1180677 0.07227,-0.2177492 0.07227,-0.3398438 0,-1.9600349 -1.688206,-3.4316406 -3.544922,-3.4316406 z M 81.851562,3.8867188 V 19.523437 h 2 5.478516 c 1.203507,0 2.28031,-0.334109 3.25,-0.841796 v 0.841796 h 7.136719 v -1.066406 c 1.089743,0.733826 2.363783,1.22461 3.794923,1.22461 1.43397,0 2.70993,-0.491835 3.80078,-1.228516 0.1644,1.322865 0.87659,2.574147 1.9707,3.345703 1.15779,0.816462 2.6101,1.177734 4.22852,1.177734 1.68521,0 3.25488,-0.364939 4.51758,-1.296875 1.26269,-0.931935 2.07226,-2.521308 2.07226,-4.179687 V 6.7949219 h -7.13476 v 0.056641 c -0.19113,-0.024604 -0.32421,-0.1699219 -0.52344,-0.1699219 -1.37241,0 -2.83325,0.5706828 -3.85547,1.734375 -0.081,0.092204 -0.10877,0.2319252 -0.18359,0.3300782 -0.0585,-0.065495 -0.0769,-0.1577481 -0.13867,-0.2207032 -1.18765,-1.2093964 -2.90679,-1.84375 -4.75391,-1.84375 -1.43114,0 -2.70518,0.4907832 -3.794923,1.2246094 V 3.8867188 h -2 -5.136719 V 4.8144531 C 91.515431,4.2005372 90.289347,3.8867187 88.898437,3.8867188 Z M 55.398437,5.8867187 c 0.152174,0 0.453125,0.1878686 0.453125,0.5683594 0,0.2276875 -0.15191,0.2491404 -0.271484,0.3398438 h -0.365234 c -0.119336,-0.090779 -0.271485,-0.1125375 -0.271485,-0.3398438 0,-0.3804908 0.302908,-0.5683594 0.455078,-0.5683594 z m 32.378907,3.4707032 0.121093,0.1191406 -0.121093,0.1210938 c -0.0086,-0.038949 -0.06055,-0.091996 -0.06055,-0.1210938 0,-0.028197 0.05207,-0.081016 0.06055,-0.1191406 z m -15.53711,1.8945311 c -8.95e-4,0.02015 0.02745,0.04187 0.02734,0.0625 -6.09e-4,0.03272 -0.02837,0.05687 -0.02734,0.08984 z M 69.125,11.505859 c -4.9e-5,0.0059 0.0039,0.01168 0.0039,0.01758 1.4e-5,0.0041 -0.0039,0.0076 -0.0039,0.01172 z m -41.308594,2.628907 c 0.04018,0.05191 0.04601,0.102034 0.08008,0.160156 h -0.46289 l -0.0098,0.01953 -0.136719,-0.0918 c 0.174935,-0.01712 0.360732,-0.05951 0.529297,-0.08789 z"
     id="text2" />
  <path
     d="m 16.375008,17.522728 c 3.545455,0 5.795455,-2.181818 5.795455,-5.818182 0,-3.6363635 -2.25,-5.8181817 -5.840909,-5.8181817 H 11.897736 V 17.522728 Z M 15.056827,14.84091 V 8.5681825 h 1.113636 c 1.818182,0 2.818182,0.7045455 2.818182,3.1363635 0,2.431818 -1,3.136364 -2.727273,3.136364 z m 11.045446,2.818182 c 1.136363,0 1.994318,-0.386364 2.522727,-1.363637 h 0.06818 v 1.227273 H 31.625 v -5.977273 c 0,-1.6136361 -1.528409,-2.8636361 -4.022727,-2.8636361 -2.607955,0 -3.892046,1.3636361 -4,2.9545451 h 2.886363 c 0.07386,-0.539772 0.471591,-0.795454 1.068182,-0.795454 0.545455,0 0.931818,0.25 0.931818,0.704545 v 0.02273 c 0,0.505681 -0.556818,0.664772 -2.022727,0.772727 -1.801136,0.130682 -3.204545,0.857954 -3.204545,2.772727 0,1.738636 1.170454,2.545455 2.840909,2.545455 z M 27.125,15.681819 c -0.534091,0 -0.909091,-0.261364 -0.909091,-0.75 0,-0.448864 0.318182,-0.795455 1.045455,-0.909091 0.5,-0.07955 0.920454,-0.181818 1.25,-0.318182 v 0.727273 c 0,0.795454 -0.676137,1.25 -1.386364,1.25 z m 11.659105,-1.977273 c 0.0057,0.863637 -0.494318,1.386364 -1.272727,1.386364 -0.789773,0 -1.244319,-0.522727 -1.25,-1.386364 V 8.7954552 h -3.136364 v 5.5681818 c 0.0057,1.909091 1.210227,3.272727 3.045454,3.272727 1.301137,0 2.301137,-0.659091 2.681819,-1.772727 h 0.09091 v 1.659091 h 2.977272 V 8.7954552 h -3.136363 z m 7.886352,3.931818 c 1.227273,0 2.068182,-0.659091 2.431819,-1.545454 h 0.06818 v 1.431818 h 3.113637 V 5.8863643 H 49.14773 v 4.4318187 h -0.04545 C 48.761366,9.4318189 47.943185,8.6818189 46.64773,8.6818189 c -1.727273,0 -3.409091,1.3181821 -3.409091,4.4772731 0,3.022727 1.568182,4.477272 3.431818,4.477272 z m 1.159091,-2.409091 c -0.863636,0 -1.363636,-0.772727 -1.363636,-2.068181 0,-1.295455 0.5,-2.068182 1.363636,-2.068182 0.863637,0 1.386364,0.772727 1.386364,2.068182 0,1.272727 -0.522727,2.068181 -1.386364,2.068181 z m 5.999995,2.295455 h 3.136363 V 8.7954552 h -3.136363 z m 1.568181,-9.6363637 c 0.852273,0 1.545455,-0.6420454 1.545455,-1.4318182 0,-0.7897727 -0.693182,-1.4318181 -1.545455,-1.4318181 -0.852272,0 -1.545454,0.6420454 -1.545454,1.4318181 0,0.7897728 0.693182,1.4318182 1.545454,1.4318182 z m 5.863629,0.9090909 h -3.136364 l 2.318182,4.3636368 -2.477273,4.363636 h 3.136364 l 1.431818,-2.772727 1.477273,2.772727 h 3.090909 L 64.647716,13.159092 66.988625,8.7954552 H 63.874989 L 62.53408,11.500001 Z M 69.92043,5.8863643 H 67.874975 V 10.59091 h 2.045455 z m 9.36365,5.7499997 c -0.07955,-1.8465906 -1.613637,-2.9545451 -4.136364,-2.9545451 -2.494318,0 -4.034091,1.0227272 -4.022727,2.8409091 -0.01136,1.375 0.880682,2.255682 2.659091,2.568182 l 1.545454,0.272727 c 0.681819,0.125 0.988637,0.306818 1,0.636364 -0.01136,0.363636 -0.426136,0.568182 -1,0.568182 -0.710227,0 -1.210227,-0.306819 -1.295454,-0.863637 h -3.113637 c 0.170455,1.789773 1.71591,2.977273 4.386364,2.977273 2.414773,0 4.193182,-1.176136 4.204546,-3.045455 -0.01136,-1.289772 -0.875,-2.039772 -2.659091,-2.363636 l -1.772728,-0.318182 c -0.664772,-0.119318 -0.852272,-0.357954 -0.840909,-0.613636 -0.01136,-0.363637 0.4375,-0.568182 0.977273,-0.568182 0.619318,0 1.136364,0.329545 1.181818,0.863636 z m 4.568184,5.886364 h 5.477273 c 2.528409,0 4.090909,-1.380682 4.090909,-3.295455 0,-1.642045 -1.210227,-2.715909 -2.704545,-2.772727 V 11.34091 c 1.346591,-0.267046 2.25,-1.261364 2.25,-2.5454548 0,-1.7727272 -1.409091,-2.9090909 -4.068182,-2.9090909 h -5.045455 z m 3.159091,-2.522727 v -2.454546 h 1.522728 c 0.960227,0 1.545454,0.454546 1.545454,1.272728 0,0.778409 -0.528409,1.181818 -1.590909,1.181818 z m 0,-4.409091 V 8.3636371 h 1.340909 c 0.784091,0 1.363637,0.3977272 1.363637,1.1136363 0,0.7159096 -0.579546,1.1136366 -1.409091,1.1136366 z M 97.715906,5.8863643 H 94.579543 V 17.522728 h 3.136363 z m 5.795444,11.7954547 c 2.84091,0 4.52273,-1.818182 4.52273,-4.5 0,-2.681818 -1.68182,-4.5000001 -4.52273,-4.5000001 -2.84091,0 -4.522725,1.8181821 -4.522725,4.5000001 0,2.681818 1.681815,4.5 4.522725,4.5 z m 0.0227,-2.318182 c -0.84091,0 -1.34091,-0.835227 -1.34091,-2.204545 0,-1.369319 0.5,-2.204546 1.34091,-2.204546 0.79545,0 1.29545,0.835227 1.29545,2.204546 0,1.369318 -0.5,2.204545 -1.29545,2.204545 z m 9.97727,5.613636 c 2.76137,0 4.59091,-1.261363 4.59091,-3.477272 V 8.7954552 h -3.13636 v 1.5227278 h -0.0682 c -0.34091,-0.8863641 -1.15909,-1.6363641 -2.45455,-1.6363641 -1.72727,0 -3.40909,1.3181821 -3.40909,4.4772731 0,3.022727 1.56818,4.25 3.43182,4.25 1.18182,0 2.11363,-0.5 2.45454,-1.386364 h 0.0909 v 1.477273 c 0,1.028409 -0.59659,1.363636 -1.40909,1.363636 -0.72159,0 -1.25,-0.215909 -1.34091,-0.772727 h -3.02272 c 0.11931,1.681818 1.64772,2.886363 4.27272,2.886363 z m 0.11364,-5.795454 c -0.86364,0 -1.36364,-0.727273 -1.36364,-2.022727 0,-1.295455 0.5,-2.068182 1.36364,-2.068182 0.86364,0 1.38636,0.772727 1.38636,2.068182 0,1.272727 -0.52272,2.022727 -1.38636,2.022727 z"
     id="text2096"
     style="font-weight:900;font-size:16px;line-height:1.25;font-family:Inter;-inkscape-font-specification:'Inter, Heavy';text-align:center;letter-spacing:0px;word-spacing:0px;text-anchor:middle;fill:url(#linearGradient2)"
     aria-label="Daudix's Blog" />
  <path
     id="text4"
     style="font-weight:900;font-size:16px;line-height:1.25;font-family:Inter;-inkscape-font-specification:'Inter, Heavy';text-align:center;letter-spacing:0px;word-spacing:0px;text-anchor:middle;fill:#000000;fill-opacity:0.2"
     d="m 53.955078,5.9550781 c -0.0633,0.1562518 -0.103516,0.3234656 -0.103516,0.5 0,0.6176692 0.427045,1.1393575 1.019532,1.3398438 h 1.052734 c 0.592487,-0.2004863 1.019531,-0.7221746 1.019531,-1.3398438 0,-0.1764886 -0.03829,-0.3437821 -0.101562,-0.5 -0.21997,0.5426535 -0.781691,0.9316407 -1.443359,0.9316407 -0.66162,0 -1.223356,-0.3890493 -1.44336,-0.9316407 z m 33.056641,1.4082031 v 1 h 1.339843 c 0.576007,0 1.037573,0.2194459 1.244141,0.6171876 0.07678,-0.1445453 0.121094,-0.3102516 0.121094,-0.5019532 0,-0.7159084 -0.581144,-1.1152344 -1.365235,-1.1152344 z M 15.056641,7.5683594 v 1 h 1.113281 c 1.681935,0 2.65332,0.6212871 2.791016,2.6367186 0.01117,-0.163599 0.02734,-0.317345 0.02734,-0.5 0,-2.4318154 -1.000179,-3.1367186 -2.818359,-3.1367186 z M 92.914062,8.296875 c -0.203258,1.0368687 -1.031938,1.813823 -2.197265,2.044922 v 0.113281 c 0.455334,0.01731 0.877529,0.138555 1.253906,0.332031 0.620615,-0.46975 0.996094,-1.1694963 0.996094,-1.9921871 0,-0.1744172 -0.0256,-0.3364265 -0.05273,-0.4980469 z M 58.125,8.7949219 60.169922,12.642578 60.443359,12.160156 58.65625,8.7949219 Z m 8.328125,0 -1.804687,3.3652341 0.273437,0.486328 2.066406,-3.8515621 z M 67.875,9.5917969 v 1.0000001 h 2.044922 V 9.5917969 Z m 7.341797,0.1816406 c -0.539773,0 -0.989876,0.2047227 -0.978516,0.5683595 -0.0088,0.19812 0.109223,0.383603 0.46875,0.513672 0.151277,-0.04862 0.319936,-0.08203 0.509766,-0.08203 0.392194,0 0.726985,0.14243 0.943359,0.375 l 0.691406,0.125 c 0.485175,0.08807 0.897644,0.209893 1.248047,0.363281 h 1.183594 c -0.01579,-0.366452 -0.10376,-0.694612 -0.230469,-1 H 76.398438 C 76.352984,10.102628 75.836114,9.7734375 75.216797,9.7734375 Z m -47.660156,0.068359 c -0.596591,0 -0.9945,0.2551505 -1.06836,0.7949225 h -2.632812 c -0.138865,0.315575 -0.230185,0.650422 -0.253907,1 h 1.40625 c 0.436545,-0.157792 0.927225,-0.25634 1.458985,-0.294922 0.04827,-0.0036 0.07674,-0.008 0.123047,-0.01172 0.163607,-0.32606 0.500428,-0.488281 0.966797,-0.488281 0.254759,0 0.468665,0.05962 0.630859,0.164062 0.186658,-0.108951 0.300781,-0.242073 0.300781,-0.4375 v -0.02344 c 0,-0.454545 -0.386186,-0.7031255 -0.93164,-0.7031255 z M 103.5332,9.9550781 c -0.84091,0 -1.33984,0.8357609 -1.33984,2.2050779 0,0.185635 0.0309,0.334747 0.0488,0.5 0.11429,-1.05488 0.56366,-1.705078 1.29101,-1.705078 0.68803,0 1.13447,0.650198 1.24805,1.705078 0.0179,-0.165253 0.0488,-0.314365 0.0488,-0.5 0,-1.369317 -0.50143,-2.2050779 -1.29688,-2.2050779 z M 47.830078,10.091797 c -0.863635,0 -1.363281,0.772906 -1.363281,2.068359 0,0.186278 0.03051,0.336082 0.05078,0.5 0.120324,-0.977202 0.57257,-1.568359 1.3125,-1.568359 0.738959,0 1.206136,0.589611 1.332031,1.564453 0.02122,-0.162823 0.05469,-0.312439 0.05469,-0.496094 0,-1.295453 -0.523083,-2.068359 -1.386719,-2.068359 z m 65.794922,0 c -0.86364,0 -1.36328,0.772906 -1.36328,2.068359 0,0.186528 0.0324,0.3336 0.0527,0.496094 0.1211,-0.974821 0.5716,-1.564453 1.31055,-1.564453 0.73848,0 1.20575,0.588821 1.33203,1.5625 0.0214,-0.161911 0.0547,-0.309543 0.0547,-0.494141 0,-1.295453 -0.52308,-2.068359 -1.38672,-2.068359 z m -42.451172,0.964844 c -0.02396,0.151415 -0.04986,0.30217 -0.04883,0.466797 -0.0083,0.999 0.46728,1.732839 1.40625,2.18164 h 1.501953 c 0.02945,0.192401 0.124086,0.342297 0.244141,0.472656 l 1.052734,0.185547 c 0.202703,0.03716 0.361496,0.08127 0.5,0.13086 0.294472,-0.08743 0.492416,-0.251383 0.5,-0.494141 -0.01136,-0.329546 -0.318182,-0.511719 -1,-0.636719 L 73.783201,13.091797 C 72.247619,12.821966 71.37676,12.126149 71.173826,11.056641 Z m -49.023437,0.148437 c -0.199791,3.333237 -2.39679,5.31836 -5.775391,5.31836 h -4.476562 v 1 H 16.375 c 3.545451,0 5.794922,-2.182 5.794922,-5.81836 0,-0.170627 -0.0097,-0.335853 -0.01953,-0.5 z m 64.861328,0.339844 v 1 h 1.521484 c 0.739522,0 1.254489,0.271843 1.453125,0.769531 0.06135,-0.143552 0.09375,-0.30866 0.09375,-0.496094 0,-0.818181 -0.586649,-1.273437 -1.546875,-1.273437 z m 22.056641,1.115234 c -0.0105,0.167439 -0.0352,0.318858 -0.0352,0.498047 0,2.171826 0.81585,3.404793 1.96289,3.933594 h 1.26563 c 0.0198,0.121472 0.068,0.220226 0.12695,0.310547 0.0265,5.01e-4 0.0515,0.0059 0.0781,0.0059 1.18182,0 2.11221,-0.498402 2.45312,-1.384765 h 0.0918 v -1 h -0.0918 c -0.34091,0.886363 -1.2713,1.386718 -2.45312,1.386718 -1.75258,0 -3.22692,-1.106771 -3.39844,-3.75 z m -65.794922,0.0039 c -0.01036,0.166223 -0.03516,0.316351 -0.03516,0.494141 0,3.022724 1.568007,4.478516 3.431641,4.478516 1.227272,0 2.068004,-0.65856 2.43164,-1.544922 h 0.06836 v -1 h -0.06836 c -0.363636,0.886362 -1.204368,1.544922 -2.43164,1.544922 -1.752733,0 -3.225191,-1.304962 -3.396484,-3.972657 z m 55.755859,0.01758 c -0.01403,0.166546 -0.04102,0.325914 -0.04102,0.5 0,2.681815 1.682533,4.5 4.523443,4.5 2.84091,0 4.52148,-1.818185 4.52148,-4.5 0,-0.17406 -0.025,-0.333478 -0.0391,-0.5 -0.20208,2.399165 -1.8259,4 -4.48242,4 -2.6565,0 -4.280316,-1.600877 -4.482427,-4 z m -70.517578,0.02344 c -0.329546,0.136364 -0.750001,0.23881 -1.25,0.31836 -0.727273,0.113635 -1.044922,0.459339 -1.044922,0.908203 0,0.208688 0.07924,0.367111 0.199219,0.490234 0.165959,-0.190115 0.433734,-0.334068 0.845703,-0.398437 0.486095,-0.07734 0.893461,-0.177858 1.21875,-0.308594 0.01987,-0.08856 0.03125,-0.183772 0.03125,-0.283203 z M 33.125,13.363281 v 1 c 0.0057,1.909089 1.209697,3.273438 3.044922,3.273438 1.301136,0 2.300959,-0.659803 2.68164,-1.773438 h 0.0918 v -1 h -0.0918 c -0.380681,1.113635 -1.380504,1.773438 -2.68164,1.773438 -1.835225,0 -3.039222,-1.364349 -3.044922,-3.273438 z m 60.246094,0.333985 c -0.239053,1.663399 -1.727474,2.826172 -4.041016,2.826172 h -5.478516 v 1 h 5.478516 c 2.528407,0 4.089844,-1.382104 4.089844,-3.296876 0,-0.184784 -0.0195,-0.359542 -0.04883,-0.529296 z M 62.533203,13.75 61.101562,16.523438 h -2.568359 l -0.566406,1 h 3.134765 L 62.533203,14.75 l 1.478516,2.773438 h 3.089843 l -0.5625,-1 h -2.527343 z m 16.916016,0.371094 c -0.293202,1.58198 -1.946701,2.560547 -4.142578,2.560547 -2.129652,0 -3.527723,-0.762918 -4.09961,-1.976563 h -0.287109 c 0.170455,1.789771 1.716267,2.976563 4.386719,2.976563 2.41477,0 4.193714,-1.175605 4.205078,-3.044922 -0.0016,-0.18352 -0.02618,-0.353635 -0.0625,-0.515625 z m -56.142578,0.513672 c -0.02204,0.15363 -0.04492,0.306049 -0.04492,0.478515 0,1.738635 1.16939,2.544922 2.839843,2.544922 1.136362,0 1.99503,-0.386009 2.523438,-1.363281 h 0.06836 v -1 H 28.625 c -0.528408,0.977272 -1.387076,1.365234 -2.523438,1.365234 -1.491769,0 -2.578156,-0.649481 -2.794921,-2.02539 z M 118.10156,16.5 c 0,2.215907 -1.82847,3.478516 -4.58984,3.478516 -2.0634,0 -3.43571,-0.751413 -3.99219,-1.886719 h -0.28125 c 0.11931,1.681816 1.64844,2.884765 4.27344,2.884765 2.76137,0 4.58984,-1.260655 4.58984,-3.476562 z m -89.408201,0.02344 v 1 H 31.625 v -1 z m 10.25,0 v 1 h 2.976563 v -1 z m 10.226563,0 v 1 h 3.113281 v -1 z m 4.660156,0 v 1 h 3.136719 v -1 z m 40.75,0 v 1 h 3.136719 v -1 z" />
  <path
     id="text3"
     style="font-weight:900;font-size:16px;line-height:1.25;font-family:Inter;-inkscape-font-specification:'Inter, Heavy';text-align:center;letter-spacing:0px;word-spacing:0px;text-anchor:middle;fill:#ffffff;fill-opacity:0.2"
     d="m 55.398438,5.0234375 c -0.852272,0 -1.546876,0.6418687 -1.546876,1.4316406 0,0.1766703 0.04012,0.3436479 0.103516,0.5 0.2199,-0.5427805 0.781593,-0.9316406 1.44336,-0.9316406 0.661816,0 1.223495,0.3887963 1.443359,0.9316406 0.06336,-0.1563191 0.101562,-0.3233743 0.101562,-0.5 0,-0.7897719 -0.692649,-1.4316406 -1.544921,-1.4316406 z m -43.5,0.8632813 v 1 h 4.43164 c 3.421916,-10e-8 5.620426,1.9851224 5.820313,5.3183592 0.0099,-0.16461 0.01953,-0.328872 0.01953,-0.5 0,-3.6363597 -2.248938,-5.8183592 -5.839844,-5.8183592 z m 37.25,0 v 1 h 3.134765 v -1 z m 18.726562,0 v 1 h 2.044922 v -1 z m 15.976562,0 v 1 h 5.046876 c 2.396447,-10e-8 3.766163,0.9282592 4.015624,2.4082031 0.0316,-0.1612373 0.05273,-0.3272017 0.05273,-0.5 0,-1.7727255 -1.409271,-2.9082031 -4.068359,-2.9082031 z m 10.728516,0 v 1 h 3.136719 v -1 z M 27.601562,8.6816406 c -2.607952,0 -3.892046,1.3641704 -4,2.9550784 h 0.253907 c 0.493099,-1.120586 1.7112,-1.9550784 3.746093,-1.9550784 2.494316,0 4.023438,1.2496464 4.023438,2.8632814 v -1 c 0,-1.6136346 -1.529122,-2.8632814 -4.023438,-2.8632814 z m 19.046876,0 c -1.727272,0 -3.410157,1.3174747 -3.410157,4.4765624 0,0.180239 0.02427,0.336748 0.03516,0.505859 0.174099,-2.786538 1.745147,-3.9824214 3.375,-3.9824214 1.295453,0 2.112211,0.7503554 2.453124,1.6367184 h 0.04688 v -1 h -0.04688 C 48.760649,9.4319962 47.943891,8.6816406 46.648438,8.6816406 Z m 28.5,0 c -2.494316,0 -4.034802,1.0236168 -4.023438,2.8417974 -0.0016,0.187743 0.01674,0.364079 0.04883,0.533203 0.240678,-1.520854 1.706141,-2.3750004 3.97461,-2.3750004 2.021718,0 3.392274,0.7220064 3.904296,1.9550784 h 0.230469 C 79.203653,9.79013 77.671162,8.6816406 75.148438,8.6816406 Z m 28.363282,0 c -2.84091,0 -4.523439,1.8181844 -4.523439,4.5000004 0,0.174085 0.02698,0.333453 0.04102,0.5 0.202111,-2.399124 1.825919,-4.0000004 4.482419,-4.0000004 2.65652,0 4.28034,1.6008344 4.48242,4.0000004 0.014,-0.166523 0.0391,-0.325941 0.0391,-0.5 0,-2.681816 -1.68057,-4.5000004 -4.52148,-4.5000004 z m 8.93164,0 c -1.72727,0 -3.41016,1.3174747 -3.41016,4.4765624 0,0.180508 0.0243,0.33413 0.0352,0.501953 0.17534,-2.783723 1.74591,-3.9785154 3.375,-3.9785154 1.29546,0 2.11417,0.7503554 2.45508,1.6367184 h 0.0684 v -1 h -0.0684 C 114.55753,9.4319962 113.73882,8.6816406 112.44336,8.6816406 Z M 33.125,8.7949219 v 1 h 3.136719 v -1 z m 5.658203,0 v 1 h 3.136719 v -1 z m 15.046875,0 v 1 h 3.136719 v -1 h -1.042969 c -0.165086,0.055862 -0.339668,0.091797 -0.52539,0.091797 -0.185723,0 -0.362258,-0.035935 -0.527344,-0.091797 z m 4.294922,0 0.53125,1 h 2.605469 L 62.533203,12.5 63.875,9.7949219 h 2.576172 l 0.537109,-1 H 63.875 L 62.533203,11.5 61.261719,8.7949219 Z m 56.8418,0 v 1 h 3.13476 v -1 z M 89.595703,9.9804688 c -0.209962,0.3952582 -0.681648,0.6113282 -1.289062,0.6113282 h -1.294922 v 1 h 1.294922 c 0.829544,0 1.410156,-0.397372 1.410156,-1.113281 0,-0.18999 -0.04647,-0.354362 -0.121094,-0.4980472 z m 2.376953,1.8085932 c -0.348281,0.263918 -0.771458,0.456672 -1.255859,0.552735 v 0.113281 c 1.326094,0.05042 2.422906,0.903569 2.654297,2.242188 0.02226,-0.154676 0.04883,-0.307772 0.04883,-0.470704 0,-1.140651 -0.589733,-1.995652 -1.447266,-2.4375 z m -17.265625,0.06641 c -0.278873,0.08963 -0.476115,0.250577 -0.46875,0.486328 -0.01136,0.255682 0.177026,0.493963 0.841797,0.613281 l 1.771484,0.31836 c 1.530099,0.277756 2.378608,0.871336 2.597657,1.847656 0.02923,-0.157698 0.06147,-0.314926 0.0625,-0.484375 -0.0083,-0.939024 -0.474007,-1.589349 -1.41211,-2 h -1.701171 c -0.01669,-0.196136 -0.112682,-0.353507 -0.238282,-0.488281 l -1.080078,-0.19336 c -0.149661,-0.02686 -0.268589,-0.06182 -0.373047,-0.09961 z M 28.1875,12.005859 c -0.280431,0.163686 -0.781069,0.259398 -1.597656,0.324219 -0.04568,0.09104 -0.08544,0.188821 -0.101563,0.306641 h -1.480469 c -1.042083,0.376666 -1.746093,1.127101 -1.746093,2.476562 0,0.185978 0.01896,0.356678 0.04492,0.521485 0.223183,-1.551023 1.521727,-2.174092 3.160156,-2.292969 1.465907,-0.107955 2.021484,-0.267757 2.021484,-0.773438 v -0.02344 c 0,-0.242246 -0.115709,-0.41989 -0.300781,-0.539063 z m -9.226562,0.199219 c -0.137515,2.014515 -1.101684,2.636719 -2.699219,2.636719 h -1.205078 v 1 h 1.205078 c 1.727271,0 2.726562,-0.704903 2.726562,-3.136719 0,-0.182228 -0.01619,-0.336739 -0.02734,-0.5 z m 41.207031,1.4375 -2.201172,3.88086 h 0.568359 l 1.908203,-3.363282 z m 4.755859,0.0039 -0.27539,0.513672 1.890624,3.363282 h 0.5625 z m 50.033202,0.0078 c -0.12653,0.953909 -0.59386,1.527344 -1.33203,1.527344 -0.73908,0 -1.18955,-0.559859 -1.31055,-1.525391 -0.0205,0.164715 -0.0527,0.316573 -0.0527,0.503906 0,1.295453 0.49964,2.021485 1.36328,2.021485 0.86364,0 1.38672,-0.748759 1.38672,-2.021485 0,-0.188037 -0.0332,-0.340613 -0.0547,-0.505859 z m -65.794921,0.002 c -0.126016,0.965058 -0.593222,1.570312 -1.332031,1.570312 -0.739246,0 -1.191636,-0.590864 -1.3125,-1.566406 -0.02018,0.163606 -0.05078,0.314135 -0.05078,0.5 0,1.295453 0.499646,2.06836 1.363281,2.06836 0.863636,0 1.386719,-0.795634 1.386719,-2.06836 0,-0.18732 -0.03338,-0.339201 -0.05469,-0.503906 z m 53.080081,0.0039 c -0.0179,0.164952 -0.0488,0.314754 -0.0488,0.5 0,1.369317 0.49893,2.203125 1.33984,2.203125 0.79545,0 1.29688,-0.833808 1.29688,-2.203125 0,-0.185246 -0.031,-0.335048 -0.0488,-0.5 -0.1141,1.053189 -0.56063,1.703125 -1.24805,1.703125 -0.7267,0 -1.17618,-0.649936 -1.29101,-1.703125 z m -65.980471,0.04492 v 1 c 0.0057,0.863636 0.460228,1.386719 1.25,1.386719 0.778408,0 1.277184,-0.523083 1.271484,-1.386719 v -1 c 0.0057,0.863636 -0.493076,1.386719 -1.271484,1.386719 -0.789772,0 -1.244319,-0.523083 -1.25,-1.386719 z m 53.724609,0.611328 C 89.792372,14.767932 89.293955,15 88.488281,15 h -1.476562 v 1 h 1.476562 c 1.062499,0 1.591797,-0.403232 1.591797,-1.181641 0,-0.187939 -0.03454,-0.353489 -0.09375,-0.501953 z m -61.474609,0.388672 c -0.0092,0.0038 -0.02194,0.006 -0.03125,0.0098 -0.139127,0.619894 -0.734021,0.966797 -1.355469,0.966797 -0.305989,0 -0.548035,-0.0946 -0.708984,-0.259766 -0.127019,0.145506 -0.199219,0.315164 -0.199219,0.509766 0,0.488635 0.374113,0.75 0.908203,0.75 0.710226,0 1.386719,-0.454547 1.386719,-1.25 z m 42.408203,0 c 0.03452,0.362451 0.141885,0.69181 0.287109,1 h 2.826172 c 0.08523,0.556818 0.586649,0.863281 1.296875,0.863281 0.573864,0 0.98864,-0.204723 1,-0.568359 -0.008,-0.231974 -0.173412,-0.386623 -0.501953,-0.503906 -0.1461,0.04306 -0.308359,0.07226 -0.498047,0.07226 -0.464817,0 -0.825345,-0.143718 -1.052734,-0.390625 l -0.494141,-0.08594 C 73.296891,15.006343 72.884654,14.873995 72.53125,14.705078 Z M 115.01172,17.5 c 0,1.028408 -0.59766,1.363281 -1.41016,1.363281 -0.56297,0 -0.99916,-0.136778 -1.21094,-0.458984 -0.4964,-0.0092 -0.96735,-0.115565 -1.39453,-0.3125 h -1.75781 c 0.0255,0.359815 0.12979,0.690998 0.28125,1 h 2.74219 c 0.0909,0.556817 0.61825,0.771484 1.33984,0.771484 0.8125,0 1.41016,-0.334873 1.41016,-1.363281 z" />
</svg>
