<?xml version="1.0" encoding="UTF-8" standalone="no"?>
<svg
   width="130"
   height="26"
   version="1.1"
   id="svg10"
   sodipodi:docname="page-logo.svg"
   inkscape:version="1.3 (0e150ed6c4, 2023-07-21)"
   xmlns:inkscape="http://www.inkscape.org/namespaces/inkscape"
   xmlns:sodipodi="http://sodipodi.sourceforge.net/DTD/sodipodi-0.dtd"
   xmlns="http://www.w3.org/2000/svg"
   xmlns:svg="http://www.w3.org/2000/svg">
  <defs
     id="defs14" />
  <sodipodi:namedview
     id="namedview12"
     pagecolor="#808080"
     bordercolor="#000000"
     borderopacity="0.24705882"
     inkscape:pageshadow="0"
     inkscape:pageopacity="0"
     inkscape:pagecheckerboard="1"
     showgrid="false"
     width="137px"
     inkscape:current-layer="svg10"
     showguides="true"
     inkscape:guide-bbox="true"
     inkscape:showpageshadow="false"
     inkscape:deskcolor="#1f1f1f"
     inkscape:zoom="4.9125"
     inkscape:cx="61.374046"
     inkscape:cy="8.7531807"
     inkscape:window-width="1280"
     inkscape:window-height="731"
     inkscape:window-x="0"
     inkscape:window-y="0"
     inkscape:window-maximized="1">
    <inkscape:grid
       type="xygrid"
       id="grid5602"
       originx="0"
       originy="0"
       spacingy="1"
       spacingx="1"
       units="px"
       visible="false" />
    <sodipodi:guide
       position="60,11"
       orientation="0,-1"
       id="guide140"
       inkscape:locked="false" />
  </sodipodi:namedview>
  <path
     d="m 16.375008,17.522728 c 3.545455,0 5.795455,-2.181818 5.795455,-5.818182 0,-3.6363635 -2.25,-5.8181817 -5.840909,-5.8181817 H 11.897736 V 17.522728 Z M 15.056827,14.84091 V 8.5681825 h 1.113636 c 1.818182,0 2.818182,0.7045455 2.818182,3.1363635 0,2.431818 -1,3.136364 -2.727273,3.136364 z m 11.045446,2.818182 c 1.136363,0 1.994318,-0.386364 2.522727,-1.363637 h 0.06818 v 1.227273 H 31.625 v -5.977273 c 0,-1.6136361 -1.528409,-2.8636361 -4.022727,-2.8636361 -2.607955,0 -3.892046,1.3636361 -4,2.9545451 h 2.886363 c 0.07386,-0.539772 0.471591,-0.795454 1.068182,-0.795454 0.545455,0 0.931818,0.25 0.931818,0.704545 v 0.02273 c 0,0.505681 -0.556818,0.664772 -2.022727,0.772727 -1.801136,0.130682 -3.204545,0.857954 -3.204545,2.772727 0,1.738636 1.170454,2.545455 2.840909,2.545455 z M 27.125,15.681819 c -0.534091,0 -0.909091,-0.261364 -0.909091,-0.75 0,-0.448864 0.318182,-0.795455 1.045455,-0.909091 0.5,-0.07955 0.920454,-0.181818 1.25,-0.318182 v 0.727273 c 0,0.795454 -0.676137,1.25 -1.386364,1.25 z m 11.659105,-1.977273 c 0.0057,0.863637 -0.494318,1.386364 -1.272727,1.386364 -0.789773,0 -1.244319,-0.522727 -1.25,-1.386364 V 8.7954552 h -3.136364 v 5.5681818 c 0.0057,1.909091 1.210227,3.272727 3.045454,3.272727 1.301137,0 2.301137,-0.659091 2.681819,-1.772727 h 0.09091 v 1.659091 h 2.977272 V 8.7954552 h -3.136363 z m 7.886352,3.931818 c 1.227273,0 2.068182,-0.659091 2.431819,-1.545454 h 0.06818 v 1.431818 h 3.113637 V 5.8863643 H 49.14773 v 4.4318187 h -0.04545 C 48.761366,9.4318189 47.943185,8.6818189 46.64773,8.6818189 c -1.727273,0 -3.409091,1.3181821 -3.409091,4.4772731 0,3.022727 1.568182,4.477272 3.431818,4.477272 z m 1.159091,-2.409091 c -0.863636,0 -1.363636,-0.772727 -1.363636,-2.068181 0,-1.295455 0.5,-2.068182 1.363636,-2.068182 0.863637,0 1.386364,0.772727 1.386364,2.068182 0,1.272727 -0.522727,2.068181 -1.386364,2.068181 z m 5.999995,2.295455 h 3.136363 V 8.7954552 h -3.136363 z m 1.568181,-9.6363637 c 0.852273,0 1.545455,-0.6420454 1.545455,-1.4318182 0,-0.7897727 -0.693182,-1.4318181 -1.545455,-1.4318181 -0.852272,0 -1.545454,0.6420454 -1.545454,1.4318181 0,0.7897728 0.693182,1.4318182 1.545454,1.4318182 z m 5.863629,0.9090909 h -3.136364 l 2.318182,4.3636368 -2.477273,4.363636 h 3.136364 l 1.431818,-2.772727 1.477273,2.772727 h 3.090909 L 64.647716,13.159092 66.988625,8.7954552 H 63.874989 L 62.53408,11.500001 Z M 69.92043,5.8863643 H 67.874975 V 10.59091 h 2.045455 z m 9.36365,5.7499997 c -0.07955,-1.8465906 -1.613637,-2.9545451 -4.136364,-2.9545451 -2.494318,0 -4.034091,1.0227272 -4.022727,2.8409091 -0.01136,1.375 0.880682,2.255682 2.659091,2.568182 l 1.545454,0.272727 c 0.681819,0.125 0.988637,0.306818 1,0.636364 -0.01136,0.363636 -0.426136,0.568182 -1,0.568182 -0.710227,0 -1.210227,-0.306819 -1.295454,-0.863637 h -3.113637 c 0.170455,1.789773 1.71591,2.977273 4.386364,2.977273 2.414773,0 4.193182,-1.176136 4.204546,-3.045455 -0.01136,-1.289772 -0.875,-2.039772 -2.659091,-2.363636 l -1.772728,-0.318182 c -0.664772,-0.119318 -0.852272,-0.357954 -0.840909,-0.613636 -0.01136,-0.363637 0.4375,-0.568182 0.977273,-0.568182 0.619318,0 1.136364,0.329545 1.181818,0.863636 z m 4.568184,5.886364 h 5.477273 c 2.528409,0 4.090909,-1.380682 4.090909,-3.295455 0,-1.642045 -1.210227,-2.715909 -2.704545,-2.772727 V 11.34091 c 1.346591,-0.267046 2.25,-1.261364 2.25,-2.5454548 0,-1.7727272 -1.409091,-2.9090909 -4.068182,-2.9090909 h -5.045455 z m 3.159091,-2.522727 v -2.454546 h 1.522728 c 0.960227,0 1.545454,0.454546 1.545454,1.272728 0,0.778409 -0.528409,1.181818 -1.590909,1.181818 z m 0,-4.409091 V 8.3636371 h 1.340909 c 0.784091,0 1.363637,0.3977272 1.363637,1.1136363 0,0.7159096 -0.579546,1.1136366 -1.409091,1.1136366 z M 97.715906,5.8863643 H 94.579543 V 17.522728 h 3.136363 z m 5.795444,11.7954547 c 2.84091,0 4.52273,-1.818182 4.52273,-4.5 0,-2.681818 -1.68182,-4.5000001 -4.52273,-4.5000001 -2.84091,0 -4.522725,1.8181821 -4.522725,4.5000001 0,2.681818 1.681815,4.5 4.522725,4.5 z m 0.0227,-2.318182 c -0.84091,0 -1.34091,-0.835227 -1.34091,-2.204545 0,-1.369319 0.5,-2.204546 1.34091,-2.204546 0.79545,0 1.29545,0.835227 1.29545,2.204546 0,1.369318 -0.5,2.204545 -1.29545,2.204545 z m 9.97727,5.613636 c 2.76137,0 4.59091,-1.261363 4.59091,-3.477272 V 8.7954552 h -3.13636 v 1.5227278 h -0.0682 c -0.34091,-0.8863641 -1.15909,-1.6363641 -2.45455,-1.6363641 -1.72727,0 -3.40909,1.3181821 -3.40909,4.4772731 0,3.022727 1.56818,4.25 3.43182,4.25 1.18182,0 2.11363,-0.5 2.45454,-1.386364 h 0.0909 v 1.477273 c 0,1.028409 -0.59659,1.363636 -1.40909,1.363636 -0.72159,0 -1.25,-0.215909 -1.34091,-0.772727 h -3.02272 c 0.11931,1.681818 1.64772,2.886363 4.27272,2.886363 z m 0.11364,-5.795454 c -0.86364,0 -1.36364,-0.727273 -1.36364,-2.022727 0,-1.295455 0.5,-2.068182 1.36364,-2.068182 0.86364,0 1.38636,0.772727 1.38636,2.068182 0,1.272727 -0.52272,2.022727 -1.38636,2.022727 z"
     id="text2096"
     style="font-weight:900;font-size:16px;line-height:1.25;font-family:Inter;-inkscape-font-specification:'Inter, Heavy';text-align:center;letter-spacing:0px;word-spacing:0px;text-anchor:middle"
     aria-label="Daudix's Blog" />
</svg>
