<?xml version="1.0" encoding="UTF-8" standalone="no"?>
<svg
   width="130"
   height="26"
   version="1.1"
   id="svg10"
   sodipodi:docname="page-logo.svg"
   inkscape:version="1.3 (0e150ed6c4, 2023-07-21)"
   xmlns:inkscape="http://www.inkscape.org/namespaces/inkscape"
   xmlns:sodipodi="http://sodipodi.sourceforge.net/DTD/sodipodi-0.dtd"
   xmlns:xlink="http://www.w3.org/1999/xlink"
   xmlns="http://www.w3.org/2000/svg"
   xmlns:svg="http://www.w3.org/2000/svg">
  <defs
     id="defs14">
    <linearGradient
       id="linearGradient1"
       inkscape:collect="always">
      <stop
         style="stop-color:#c061cb;stop-opacity:1;"
         offset="0"
         id="stop1" />
      <stop
         style="stop-color:#813d9c;stop-opacity:1;"
         offset="1"
         id="stop2" />
    </linearGradient>
    <linearGradient
       inkscape:collect="always"
       xlink:href="#linearGradient1"
       id="linearGradient2"
       x1="65"
       y1="5.022728"
       x2="65"
       y2="20.977274"
       gradientUnits="userSpaceOnUse" />
    <filter
       inkscape:collect="always"
       style="color-interpolation-filters:sRGB"
       id="filter3"
       x="-0.046436983"
       y="-0.30911679"
       width="1.092874"
       height="1.6182336">
      <feGaussianBlur
         inkscape:collect="always"
         stdDeviation="1.2215907"
         id="feGaussianBlur3" />
    </filter>
  </defs>
  <sodipodi:namedview
     id="namedview12"
     pagecolor="#808080"
     bordercolor="#000000"
     borderopacity="0.24705882"
     inkscape:pageshadow="0"
     inkscape:pageopacity="0"
     inkscape:pagecheckerboard="1"
     showgrid="false"
     width="137px"
     inkscape:current-layer="svg10"
     showguides="true"
     inkscape:guide-bbox="true"
     inkscape:showpageshadow="false"
     inkscape:deskcolor="#1f1f1f"
     inkscape:zoom="11.111031"
     inkscape:cx="58.54542"
     inkscape:cy="3.060022"
     inkscape:window-width="1280"
     inkscape:window-height="731"
     inkscape:window-x="0"
     inkscape:window-y="0"
     inkscape:window-maximized="1">
    <inkscape:grid
       type="xygrid"
       id="grid5602"
       originx="0"
       originy="0"
       spacingy="1"
       spacingx="1"
       units="px"
       visible="false" />
    <sodipodi:guide
       position="60,11"
       orientation="0,-1"
       id="guide140"
       inkscape:locked="false" />
  </sodipodi:namedview>
  <text
     xml:space="preserve"
     style="font-style:normal;font-variant:normal;font-weight:900;font-stretch:normal;font-size:16px;line-height:1.25;font-family:Inter;-inkscape-font-specification:'Inter, Heavy';font-variant-ligatures:normal;font-variant-caps:normal;font-variant-numeric:normal;font-variant-east-asian:normal;text-align:center;letter-spacing:0px;word-spacing:0px;text-anchor:middle;fill:none;fill-opacity:1;stroke-width:4;stroke:#000000;stroke-opacity:0.2;stroke-dasharray:none;filter:url(#filter3)"
     x="65.02272"
     y="17.522728"
     id="text2"><tspan
       sodipodi:role="line"
       id="tspan2"
       style="font-style:normal;font-variant:normal;font-weight:900;font-stretch:normal;font-size:16px;font-family:Inter;-inkscape-font-specification:'Inter, Heavy';font-variant-ligatures:normal;font-variant-caps:normal;font-variant-numeric:normal;font-variant-east-asian:normal;fill:none;fill-opacity:1;stroke-width:4;stroke:#000000;stroke-opacity:0.2;stroke-dasharray:none"
       x="65.02272"
       y="17.522728">Daudix's Blog</tspan></text>
  <text
     xml:space="preserve"
     style="font-style:normal;font-variant:normal;font-weight:900;font-stretch:normal;font-size:16px;line-height:1.25;font-family:Inter;-inkscape-font-specification:'Inter, Heavy';font-variant-ligatures:normal;font-variant-caps:normal;font-variant-numeric:normal;font-variant-east-asian:normal;text-align:center;letter-spacing:0px;word-spacing:0px;text-anchor:middle;fill:url(#linearGradient2);fill-opacity:1;stroke-width:1"
     x="65.02272"
     y="17.522728"
     id="text2096"><tspan
       sodipodi:role="line"
       id="tspan2094"
       style="font-style:normal;font-variant:normal;font-weight:900;font-stretch:normal;font-size:16px;font-family:Inter;-inkscape-font-specification:'Inter, Heavy';font-variant-ligatures:normal;font-variant-caps:normal;font-variant-numeric:normal;font-variant-east-asian:normal;fill:url(#linearGradient2);fill-opacity:1;stroke-width:1"
       x="65.02272"
       y="17.522728">Daudix's Blog</tspan></text>
  <path
     id="text4"
     style="font-weight:900;font-size:16px;line-height:1.25;font-family:Inter;-inkscape-font-specification:'Inter, Heavy';text-align:center;letter-spacing:0px;word-spacing:0px;text-anchor:middle;fill:#000000;fill-opacity:0.2"
     d="M 53.955078 5.9550781 C 53.891775 6.1113299 53.851562 6.2785437 53.851562 6.4550781 C 53.851562 7.0727473 54.278607 7.5944356 54.871094 7.7949219 L 55.923828 7.7949219 C 56.516315 7.5944356 56.943359 7.0727473 56.943359 6.4550781 C 56.943359 6.2785895 56.905069 6.111296 56.841797 5.9550781 C 56.621827 6.4977316 56.060106 6.8867188 55.398438 6.8867188 C 54.736818 6.8867188 54.175082 6.4976695 53.955078 5.9550781 z M 87.011719 7.3632812 L 87.011719 8.3632812 L 88.351562 8.3632812 C 88.927569 8.3632812 89.389135 8.5827271 89.595703 8.9804688 C 89.672486 8.8359235 89.716797 8.6702172 89.716797 8.4785156 C 89.716797 7.7626072 89.135653 7.3632812 88.351562 7.3632812 L 87.011719 7.3632812 z M 15.056641 7.5683594 L 15.056641 8.5683594 L 16.169922 8.5683594 C 17.851857 8.5683594 18.823242 9.1896465 18.960938 11.205078 C 18.972105 11.041479 18.988281 10.887733 18.988281 10.705078 C 18.988281 8.2732626 17.988102 7.5683594 16.169922 7.5683594 L 15.056641 7.5683594 z M 92.914062 8.296875 C 92.710804 9.3337437 91.882124 10.110698 90.716797 10.341797 L 90.716797 10.455078 C 91.172131 10.472391 91.594326 10.593633 91.970703 10.787109 C 92.591318 10.317359 92.966797 9.6176127 92.966797 8.7949219 C 92.966797 8.6205047 92.941192 8.4584954 92.914062 8.296875 z M 58.125 8.7949219 L 60.169922 12.642578 L 60.443359 12.160156 L 58.65625 8.7949219 L 58.125 8.7949219 z M 66.453125 8.7949219 L 64.648438 12.160156 L 64.921875 12.646484 L 66.988281 8.7949219 L 66.453125 8.7949219 z M 67.875 9.5917969 L 67.875 10.591797 L 69.919922 10.591797 L 69.919922 9.5917969 L 67.875 9.5917969 z M 75.216797 9.7734375 C 74.677024 9.7734375 74.226921 9.9781602 74.238281 10.341797 C 74.229476 10.539917 74.347504 10.7254 74.707031 10.855469 C 74.858308 10.806849 75.026967 10.773438 75.216797 10.773438 C 75.608991 10.773438 75.943782 10.915868 76.160156 11.148438 L 76.851562 11.273438 C 77.336737 11.361511 77.749206 11.483331 78.099609 11.636719 L 79.283203 11.636719 C 79.267417 11.270267 79.179443 10.942107 79.052734 10.636719 L 76.398438 10.636719 C 76.352984 10.102628 75.836114 9.7734375 75.216797 9.7734375 z M 27.556641 9.8417969 C 26.96005 9.8417969 26.562141 10.096947 26.488281 10.636719 L 23.855469 10.636719 C 23.716604 10.952294 23.625284 11.287141 23.601562 11.636719 L 25.007812 11.636719 C 25.444357 11.478927 25.935037 11.380379 26.466797 11.341797 C 26.515063 11.338242 26.543537 11.333754 26.589844 11.330078 C 26.753451 11.004018 27.090272 10.841797 27.556641 10.841797 C 27.8114 10.841797 28.025306 10.901419 28.1875 11.005859 C 28.374158 10.896908 28.488281 10.763786 28.488281 10.568359 L 28.488281 10.544922 C 28.488281 10.090377 28.102095 9.8417969 27.556641 9.8417969 z M 103.5332 9.9550781 C 102.69229 9.9550781 102.19336 10.790839 102.19336 12.160156 C 102.19336 12.345791 102.22421 12.494903 102.24219 12.660156 C 102.35648 11.605276 102.80585 10.955078 103.5332 10.955078 C 104.22123 10.955078 104.66767 11.605276 104.78125 12.660156 C 104.79912 12.494903 104.83008 12.345791 104.83008 12.160156 C 104.83008 10.790839 104.32865 9.9550781 103.5332 9.9550781 z M 47.830078 10.091797 C 46.966443 10.091797 46.466797 10.864703 46.466797 12.160156 C 46.466797 12.346434 46.497307 12.496238 46.517578 12.660156 C 46.637902 11.682954 47.090148 11.091797 47.830078 11.091797 C 48.569037 11.091797 49.036214 11.681408 49.162109 12.65625 C 49.183332 12.493427 49.216797 12.343811 49.216797 12.160156 C 49.216797 10.864703 48.693714 10.091797 47.830078 10.091797 z M 113.625 10.091797 C 112.76136 10.091797 112.26172 10.864703 112.26172 12.160156 C 112.26172 12.346684 112.29413 12.493756 112.31445 12.65625 C 112.43555 11.681429 112.88605 11.091797 113.625 11.091797 C 114.36348 11.091797 114.83075 11.680618 114.95703 12.654297 C 114.97847 12.492386 115.01172 12.344754 115.01172 12.160156 C 115.01172 10.864703 114.48864 10.091797 113.625 10.091797 z M 71.173828 11.056641 C 71.149866 11.208056 71.123971 11.358811 71.125 11.523438 C 71.116746 12.522438 71.59228 13.256277 72.53125 13.705078 L 74.033203 13.705078 C 74.062652 13.897479 74.157289 14.047375 74.277344 14.177734 L 75.330078 14.363281 C 75.532781 14.400443 75.691574 14.444546 75.830078 14.494141 C 76.12455 14.40671 76.322494 14.242758 76.330078 14 C 76.318715 13.670454 76.011896 13.488281 75.330078 13.363281 L 73.783203 13.091797 C 72.247621 12.821966 71.376762 12.126149 71.173828 11.056641 z M 22.150391 11.205078 C 21.9506 14.538315 19.753601 16.523438 16.375 16.523438 L 11.898438 16.523438 L 11.898438 17.523438 L 16.375 17.523438 C 19.920451 17.523438 22.169922 15.341438 22.169922 11.705078 C 22.169922 11.534451 22.160204 11.369225 22.150391 11.205078 z M 87.011719 11.544922 L 87.011719 12.544922 L 88.533203 12.544922 C 89.272725 12.544922 89.787692 12.816765 89.986328 13.314453 C 90.047682 13.170901 90.080078 13.005793 90.080078 12.818359 C 90.080078 12.000178 89.493429 11.544922 88.533203 11.544922 L 87.011719 11.544922 z M 109.06836 12.660156 C 109.05784 12.827595 109.0332 12.979014 109.0332 13.158203 C 109.0332 15.330029 109.84905 16.562996 110.99609 17.091797 L 112.26172 17.091797 C 112.28155 17.213269 112.32973 17.312023 112.38867 17.402344 C 112.41515 17.402845 112.4402 17.408203 112.4668 17.408203 C 113.64862 17.408203 114.57901 16.909801 114.91992 16.023438 L 115.01172 16.023438 L 115.01172 15.023438 L 114.91992 15.023438 C 114.57901 15.909801 113.64862 16.410156 112.4668 16.410156 C 110.71422 16.410156 109.23988 15.303385 109.06836 12.660156 z M 43.273438 12.664062 C 43.263075 12.830285 43.238281 12.980413 43.238281 13.158203 C 43.238281 16.180927 44.806288 17.636719 46.669922 17.636719 C 47.897194 17.636719 48.737926 16.978159 49.101562 16.091797 L 49.169922 16.091797 L 49.169922 15.091797 L 49.101562 15.091797 C 48.737926 15.978159 47.897194 16.636719 46.669922 16.636719 C 44.917189 16.636719 43.444731 15.331757 43.273438 12.664062 z M 99.029297 12.681641 C 99.015266 12.848187 98.988281 13.007555 98.988281 13.181641 C 98.988281 15.863456 100.67081 17.681641 103.51172 17.681641 C 106.35263 17.681641 108.0332 15.863456 108.0332 13.181641 C 108.0332 13.007581 108.00817 12.848163 107.99414 12.681641 C 107.79206 15.080806 106.16824 16.681641 103.51172 16.681641 C 100.85522 16.681641 99.231408 15.080764 99.029297 12.681641 z M 28.511719 12.705078 C 28.182173 12.841442 27.761718 12.943888 27.261719 13.023438 C 26.534446 13.137073 26.216797 13.482777 26.216797 13.931641 C 26.216797 14.140329 26.296035 14.298752 26.416016 14.421875 C 26.581975 14.23176 26.84975 14.087807 27.261719 14.023438 C 27.747814 13.9461 28.15518 13.84558 28.480469 13.714844 C 28.500344 13.626287 28.511719 13.531072 28.511719 13.431641 L 28.511719 12.705078 z M 33.125 13.363281 L 33.125 14.363281 C 33.1307 16.27237 34.334697 17.636719 36.169922 17.636719 C 37.471058 17.636719 38.470881 16.976916 38.851562 15.863281 L 38.943359 15.863281 L 38.943359 14.863281 L 38.851562 14.863281 C 38.470881 15.976916 37.471058 16.636719 36.169922 16.636719 C 34.334697 16.636719 33.1307 15.27237 33.125 13.363281 z M 93.371094 13.697266 C 93.132041 15.360665 91.64362 16.523438 89.330078 16.523438 L 83.851562 16.523438 L 83.851562 17.523438 L 89.330078 17.523438 C 91.858485 17.523438 93.419922 16.141334 93.419922 14.226562 C 93.419922 14.041778 93.400426 13.86702 93.371094 13.697266 z M 62.533203 13.75 L 61.101562 16.523438 L 58.533203 16.523438 L 57.966797 17.523438 L 61.101562 17.523438 L 62.533203 14.75 L 64.011719 17.523438 L 67.101562 17.523438 L 66.539062 16.523438 L 64.011719 16.523438 L 62.533203 13.75 z M 79.449219 14.121094 C 79.156017 15.703074 77.502518 16.681641 75.306641 16.681641 C 73.176989 16.681641 71.778918 15.918723 71.207031 14.705078 L 70.919922 14.705078 C 71.090377 16.494849 72.636189 17.681641 75.306641 17.681641 C 77.721411 17.681641 79.500355 16.506036 79.511719 14.636719 C 79.510102 14.453199 79.485542 14.283084 79.449219 14.121094 z M 23.306641 14.634766 C 23.284604 14.788396 23.261719 14.940815 23.261719 15.113281 C 23.261719 16.851916 24.431109 17.658203 26.101562 17.658203 C 27.237924 17.658203 28.096592 17.272194 28.625 16.294922 L 28.693359 16.294922 L 28.693359 15.294922 L 28.625 15.294922 C 28.096592 16.272194 27.237924 16.660156 26.101562 16.660156 C 24.609793 16.660156 23.523406 16.010675 23.306641 14.634766 z M 118.10156 16.5 C 118.10156 18.715907 116.27309 19.978516 113.51172 19.978516 C 111.44832 19.978516 110.07601 19.227103 109.51953 18.091797 L 109.23828 18.091797 C 109.35759 19.773613 110.88672 20.976562 113.51172 20.976562 C 116.27309 20.976562 118.10156 19.715907 118.10156 17.5 L 118.10156 16.5 z M 28.693359 16.523438 L 28.693359 17.523438 L 31.625 17.523438 L 31.625 16.523438 L 28.693359 16.523438 z M 38.943359 16.523438 L 38.943359 17.523438 L 41.919922 17.523438 L 41.919922 16.523438 L 38.943359 16.523438 z M 49.169922 16.523438 L 49.169922 17.523438 L 52.283203 17.523438 L 52.283203 16.523438 L 49.169922 16.523438 z M 53.830078 16.523438 L 53.830078 17.523438 L 56.966797 17.523438 L 56.966797 16.523438 L 53.830078 16.523438 z M 94.580078 16.523438 L 94.580078 17.523438 L 97.716797 17.523438 L 97.716797 16.523438 L 94.580078 16.523438 z " />
  <path
     id="text3"
     style="font-weight:900;font-size:16px;line-height:1.25;font-family:Inter;-inkscape-font-specification:'Inter, Heavy';text-align:center;letter-spacing:0px;word-spacing:0px;text-anchor:middle;fill:#ffffff;fill-opacity:0.2"
     d="M 55.398438 5.0234375 C 54.546166 5.0234375 53.851562 5.6653062 53.851562 6.4550781 C 53.851562 6.6317484 53.891682 6.798726 53.955078 6.9550781 C 54.174978 6.4122976 54.736671 6.0234375 55.398438 6.0234375 C 56.060254 6.0234375 56.621933 6.4122338 56.841797 6.9550781 C 56.905162 6.798759 56.943359 6.6317038 56.943359 6.4550781 C 56.943359 5.6653062 56.25071 5.0234375 55.398438 5.0234375 z M 11.898438 5.8867188 L 11.898438 6.8867188 L 16.330078 6.8867188 C 19.751994 6.8867187 21.950504 8.8718412 22.150391 12.205078 C 22.160257 12.040468 22.169922 11.876206 22.169922 11.705078 C 22.169922 8.0687183 19.920984 5.8867188 16.330078 5.8867188 L 11.898438 5.8867188 z M 49.148438 5.8867188 L 49.148438 6.8867188 L 52.283203 6.8867188 L 52.283203 5.8867188 L 49.148438 5.8867188 z M 67.875 5.8867188 L 67.875 6.8867188 L 69.919922 6.8867188 L 69.919922 5.8867188 L 67.875 5.8867188 z M 83.851562 5.8867188 L 83.851562 6.8867188 L 88.898438 6.8867188 C 91.294885 6.8867187 92.664601 7.814978 92.914062 9.2949219 C 92.94566 9.1336846 92.966797 8.9677202 92.966797 8.7949219 C 92.966797 7.0221964 91.557526 5.8867188 88.898438 5.8867188 L 83.851562 5.8867188 z M 94.580078 5.8867188 L 94.580078 6.8867188 L 97.716797 6.8867188 L 97.716797 5.8867188 L 94.580078 5.8867188 z M 27.601562 8.6816406 C 24.99361 8.6816406 23.709516 10.045811 23.601562 11.636719 L 23.855469 11.636719 C 24.348568 10.516133 25.566669 9.6816406 27.601562 9.6816406 C 30.095878 9.6816406 31.625 10.931287 31.625 12.544922 L 31.625 11.544922 C 31.625 9.9312874 30.095878 8.6816406 27.601562 8.6816406 z M 46.648438 8.6816406 C 44.921166 8.6816406 43.238281 9.9991153 43.238281 13.158203 C 43.238281 13.338442 43.262556 13.494951 43.273438 13.664062 C 43.447537 10.877524 45.018585 9.6816406 46.648438 9.6816406 C 47.943891 9.6816406 48.760649 10.431996 49.101562 11.318359 L 49.148438 11.318359 L 49.148438 10.318359 L 49.101562 10.318359 C 48.760649 9.4319962 47.943891 8.6816406 46.648438 8.6816406 z M 75.148438 8.6816406 C 72.654122 8.6816406 71.113636 9.7052574 71.125 11.523438 C 71.123449 11.711181 71.141738 11.887517 71.173828 12.056641 C 71.414506 10.535787 72.879969 9.6816406 75.148438 9.6816406 C 77.170156 9.6816406 78.540712 10.403647 79.052734 11.636719 L 79.283203 11.636719 C 79.203653 9.79013 77.671162 8.6816406 75.148438 8.6816406 z M 103.51172 8.6816406 C 100.67081 8.6816406 98.988281 10.499825 98.988281 13.181641 C 98.988281 13.355726 99.015266 13.515094 99.029297 13.681641 C 99.231408 11.282517 100.85522 9.6816406 103.51172 9.6816406 C 106.16824 9.6816406 107.79206 11.282475 107.99414 13.681641 C 108.00817 13.515118 108.0332 13.3557 108.0332 13.181641 C 108.0332 10.499825 106.35263 8.6816406 103.51172 8.6816406 z M 112.44336 8.6816406 C 110.71609 8.6816406 109.0332 9.9991153 109.0332 13.158203 C 109.0332 13.338711 109.05745 13.492333 109.06836 13.660156 C 109.2437 10.876433 110.81427 9.6816406 112.44336 9.6816406 C 113.73882 9.6816406 114.55753 10.431996 114.89844 11.318359 L 114.9668 11.318359 L 114.9668 10.318359 L 114.89844 10.318359 C 114.55753 9.4319962 113.73882 8.6816406 112.44336 8.6816406 z M 33.125 8.7949219 L 33.125 9.7949219 L 36.261719 9.7949219 L 36.261719 8.7949219 L 33.125 8.7949219 z M 38.783203 8.7949219 L 38.783203 9.7949219 L 41.919922 9.7949219 L 41.919922 8.7949219 L 38.783203 8.7949219 z M 53.830078 8.7949219 L 53.830078 9.7949219 L 56.966797 9.7949219 L 56.966797 8.7949219 L 55.923828 8.7949219 C 55.758742 8.8507839 55.58416 8.8867188 55.398438 8.8867188 C 55.212715 8.8867188 55.03618 8.8507839 54.871094 8.7949219 L 53.830078 8.7949219 z M 58.125 8.7949219 L 58.65625 9.7949219 L 61.261719 9.7949219 L 62.533203 12.5 L 63.875 9.7949219 L 66.451172 9.7949219 L 66.988281 8.7949219 L 63.875 8.7949219 L 62.533203 11.5 L 61.261719 8.7949219 L 58.125 8.7949219 z M 114.9668 8.7949219 L 114.9668 9.7949219 L 118.10156 9.7949219 L 118.10156 8.7949219 L 114.9668 8.7949219 z M 89.595703 9.9804688 C 89.385741 10.375727 88.914055 10.591797 88.306641 10.591797 L 87.011719 10.591797 L 87.011719 11.591797 L 88.306641 11.591797 C 89.136185 11.591797 89.716797 11.194425 89.716797 10.478516 C 89.716797 10.288526 89.670326 10.124154 89.595703 9.9804688 z M 91.972656 11.789062 C 91.624375 12.05298 91.201198 12.245734 90.716797 12.341797 L 90.716797 12.455078 C 92.042891 12.5055 93.139703 13.358647 93.371094 14.697266 C 93.393353 14.54259 93.419922 14.389494 93.419922 14.226562 C 93.419922 13.085911 92.830189 12.23091 91.972656 11.789062 z M 74.707031 11.855469 C 74.428158 11.945098 74.230916 12.106046 74.238281 12.341797 C 74.226918 12.597479 74.415307 12.83576 75.080078 12.955078 L 76.851562 13.273438 C 78.381661 13.551194 79.23017 14.144774 79.449219 15.121094 C 79.478446 14.963396 79.510689 14.806168 79.511719 14.636719 C 79.503448 13.697695 79.037712 13.04737 78.099609 12.636719 L 76.398438 12.636719 C 76.381745 12.440583 76.285756 12.283212 76.160156 12.148438 L 75.080078 11.955078 C 74.930417 11.928216 74.811489 11.893259 74.707031 11.855469 z M 28.1875 12.005859 C 27.907069 12.169545 27.406431 12.265257 26.589844 12.330078 C 26.54416 12.421122 26.504403 12.518899 26.488281 12.636719 L 25.007812 12.636719 C 23.965729 13.013385 23.261719 13.76382 23.261719 15.113281 C 23.261719 15.299259 23.280676 15.469959 23.306641 15.634766 C 23.529824 14.083743 24.828368 13.460674 26.466797 13.341797 C 27.932704 13.233842 28.488281 13.07404 28.488281 12.568359 L 28.488281 12.544922 C 28.488281 12.302676 28.372572 12.125032 28.1875 12.005859 z M 18.960938 12.205078 C 18.823423 14.219593 17.859254 14.841797 16.261719 14.841797 L 15.056641 14.841797 L 15.056641 15.841797 L 16.261719 15.841797 C 17.98899 15.841797 18.988281 15.136894 18.988281 12.705078 C 18.988281 12.52285 18.972092 12.368339 18.960938 12.205078 z M 60.167969 13.642578 L 57.966797 17.523438 L 58.535156 17.523438 L 60.443359 14.160156 L 60.167969 13.642578 z M 64.923828 13.646484 L 64.648438 14.160156 L 66.539062 17.523438 L 67.101562 17.523438 L 64.923828 13.646484 z M 114.95703 13.654297 C 114.8305 14.608206 114.36317 15.181641 113.625 15.181641 C 112.88592 15.181641 112.43545 14.621782 112.31445 13.65625 C 112.29395 13.820965 112.26172 13.972823 112.26172 14.160156 C 112.26172 15.455609 112.76136 16.181641 113.625 16.181641 C 114.48864 16.181641 115.01172 15.432882 115.01172 14.160156 C 115.01172 13.972119 114.9785 13.819543 114.95703 13.654297 z M 49.162109 13.65625 C 49.036093 14.621308 48.568887 15.226562 47.830078 15.226562 C 47.090832 15.226562 46.638442 14.635698 46.517578 13.660156 C 46.497396 13.823762 46.466797 13.974291 46.466797 14.160156 C 46.466797 15.455609 46.966443 16.228516 47.830078 16.228516 C 48.693714 16.228516 49.216797 15.432882 49.216797 14.160156 C 49.216797 13.972836 49.183419 13.820955 49.162109 13.65625 z M 102.24219 13.660156 C 102.22428 13.825108 102.19336 13.97491 102.19336 14.160156 C 102.19336 15.529473 102.69229 16.363281 103.5332 16.363281 C 104.32865 16.363281 104.83008 15.529473 104.83008 14.160156 C 104.83008 13.97491 104.79905 13.825108 104.78125 13.660156 C 104.66715 14.713345 104.22062 15.363281 103.5332 15.363281 C 102.8065 15.363281 102.35702 14.713345 102.24219 13.660156 z M 36.261719 13.705078 L 36.261719 14.705078 C 36.2674 15.568714 36.721947 16.091797 37.511719 16.091797 C 38.290127 16.091797 38.788903 15.568714 38.783203 14.705078 L 38.783203 13.705078 C 38.788903 14.568714 38.290127 15.091797 37.511719 15.091797 C 36.721947 15.091797 36.2674 14.568714 36.261719 13.705078 z M 89.986328 14.316406 C 89.792372 14.767932 89.293955 15 88.488281 15 L 87.011719 15 L 87.011719 16 L 88.488281 16 C 89.55078 16 90.080078 15.596768 90.080078 14.818359 C 90.080078 14.63042 90.045538 14.46487 89.986328 14.316406 z M 28.511719 14.705078 C 28.502554 14.70887 28.489774 14.711104 28.480469 14.714844 C 28.341342 15.334738 27.746448 15.681641 27.125 15.681641 C 26.819011 15.681641 26.576965 15.587041 26.416016 15.421875 C 26.288997 15.567381 26.216797 15.737039 26.216797 15.931641 C 26.216797 16.420276 26.59091 16.681641 27.125 16.681641 C 27.835226 16.681641 28.511719 16.227094 28.511719 15.431641 L 28.511719 14.705078 z M 70.919922 14.705078 C 70.954441 15.067529 71.061807 15.396888 71.207031 15.705078 L 74.033203 15.705078 C 74.11843 16.261896 74.619852 16.568359 75.330078 16.568359 C 75.903942 16.568359 76.318718 16.363636 76.330078 16 C 76.322079 15.768026 76.156666 15.613377 75.828125 15.496094 C 75.682025 15.539149 75.519766 15.568359 75.330078 15.568359 C 74.865261 15.568359 74.504733 15.424641 74.277344 15.177734 L 73.783203 15.091797 C 73.296891 15.006343 72.884654 14.873995 72.53125 14.705078 L 70.919922 14.705078 z M 115.01172 17.5 C 115.01172 18.528408 114.41406 18.863281 113.60156 18.863281 C 113.03859 18.863281 112.6024 18.726503 112.39062 18.404297 C 111.89422 18.395126 111.42327 18.288732 110.99609 18.091797 L 109.23828 18.091797 C 109.26381 18.451612 109.36807 18.782795 109.51953 19.091797 L 112.26172 19.091797 C 112.35263 19.648614 112.87997 19.863281 113.60156 19.863281 C 114.41406 19.863281 115.01172 19.528408 115.01172 18.5 L 115.01172 17.5 z " />
</svg>
