<svg xmlns="http://www.w3.org/2000/svg" xml:space="preserve" width="64" height="64"><g style="display:inline"><path d="M193 1h62v62h-62z" style="fill:none;stroke:#fff;stroke-width:2;stroke-dasharray:none" transform="translate(-192)"/><path d="M199 7h50v37h-50z" style="fill:none;stroke:#fff;stroke-width:2;stroke-dasharray:none" transform="translate(-192)"/><path d="M208 58h32v-4l-8-4-2-6h-12l-2 6-8 4z" style="fill:#fff;stroke:none;stroke-width:2;stroke-linecap:square;stroke-miterlimit:10;stroke-dasharray:none" transform="translate(-192)"/><path d="M202 10v6h2v-2.586l7.543 7.543 1.19-1.639-7.32-7.318H208v-2h-1zm37.408 22.994a6.6 6.6 0 0 1-1.556 1.272L242.586 39H240v2h6v-6h-2v2.586z" style="fill:#fff;stroke-linecap:square;stroke-miterlimit:10" transform="translate(-192)"/><path d="M408.741 24.492v-3.029h-7.594v-2.261l7.146-9.856h3.222v9.706h1.813v2.411h-1.813v3.03zm-4.565-5.44h4.565v-6.101zm10.413 5.44v-2.986h3.115v2.986zm0-7.872v-2.986h3.115v2.986zm10.563 8.214q-2.71 0-4.181-1.238-1.472-1.258-1.579-3.37l2.837-.128q.128 1.216.896 1.77.79.555 2.027.555.832 0 1.515-.235.682-.256 1.088-.768.405-.512.405-1.322 0-1.238-.832-1.835t-2.219-.597h-1.322v-2.198h1.322q1.088 0 1.814-.448.746-.469.746-1.557 0-.981-.618-1.515-.598-.533-1.878-.533-1.258 0-1.898.512t-.768 1.344l-2.838-.15q.235-1.877 1.643-2.986 1.43-1.13 3.861-1.13 1.707 0 2.902.511 1.194.512 1.813 1.451.64.939.64 2.24 0 1.365-.896 2.24t-2.56 1.173v-.362q1.856.256 2.901 1.322 1.046 1.046 1.046 2.667 0 1.45-.726 2.475-.725 1.024-2.048 1.578-1.322.534-3.093.534" aria-label="4:3" style="font-weight:600;font-size:21.3333px;line-height:1;font-family:Geist;-inkscape-font-specification:&quot;Geist Semi-Bold&quot;;text-align:end;letter-spacing:-1px;word-spacing:0;text-anchor:end;white-space:pre;fill:#fff;stroke-width:2;stroke-linecap:square;stroke-miterlimit:10" transform="translate(-384.083 8.581)"/></g></svg>