<svg xmlns="http://www.w3.org/2000/svg" width="136" height="64" fill="none" viewBox="0 0 136 64"><path stroke="currentColor" stroke-linecap="square" stroke-miterlimit="10" stroke-width="2" d="M135 1H1v62h134z" style="fill:none"/><path fill="currentColor" d="m29 23 1 16h2l1-16zm0 19v4h4v-4z"/><path stroke="currentColor" stroke-linecap="square" stroke-miterlimit="10" stroke-width="2" d="M9.724 50H52.06L30.893 12.955z" style="fill:none"/><path fill="currentColor" d="M62.742 12.607q-1.055 0-1.967.32a4.45 4.45 0 0 0-1.617.993q-.686.672-1.07 1.728-.384 1.04-.385 2.512v.32q0 2.032.64 3.295.656 1.249 1.792 1.84 1.152.576 2.607.576a7.4 7.4 0 0 0 1.793-.207 4.2 4.2 0 0 0 1.455-.656q.625-.463 1.01-1.2.384-.751.463-1.792h-2.496q-.128.896-.719 1.377-.593.464-1.506.463-.463 0-.91-.176a2.3 2.3 0 0 1-.816-.607q-.369-.433-.592-1.137-.225-.72-.225-1.776v-.32q0-1.344.352-2.111.368-.768.943-1.088.576-.337 1.248-.338.865 0 1.457.45.592.448.768 1.392h2.496q-.064-.992-.463-1.729a3.4 3.4 0 0 0-1.025-1.2 4.5 4.5 0 0 0-1.471-.688 6.2 6.2 0 0 0-1.762-.24m53.487 0q-1.023 0-1.952.32a4.6 4.6 0 0 0-1.648.993q-.703.672-1.12 1.728-.399 1.056-.4 2.512v.32q0 2.032.672 3.295.69 1.249 1.856 1.84 1.185.576 2.672.576 1.104 0 2-.32a4 4 0 0 0 1.537-.975q.656-.671.992-1.68.352-1.023.351-2.415v-.64h-4.56v1.663h2.271q-.063.816-.431 1.344a2.1 2.1 0 0 1-.912.752q-.56.24-1.248.24a2.7 2.7 0 0 1-.993-.191 2.5 2.5 0 0 1-.879-.61q-.383-.431-.609-1.134-.223-.704-.223-1.745v-.32q0-1.312.352-2.08.37-.768.961-1.103a2.7 2.7 0 0 1 1.31-.336q.45-.001.866.142.432.129.783.496.353.353.576 1.026h2.496q-.16-.93-.56-1.617a3.6 3.6 0 0 0-1.008-1.153 4.1 4.1 0 0 0-1.408-.687 6 6 0 0 0-1.744-.24m-64.909.194L47.16 24h2.336l.848-2.287h4.144L55.352 24h2.529l-4.178-11.2zm17.266 0V24h2.385v-4.768h4.8V24h2.383V12.8h-2.383v4.448h-4.8v-4.447zm10.38 0v1.982h3.6V24h2.385v-9.217h3.6v-1.982zm10.235 0v6.719q0 1.569.576 2.609.577 1.04 1.633 1.55 1.056.512 2.496.512 1.456 0 2.512-.511a3.55 3.55 0 0 0 1.615-1.551q.576-1.04.576-2.61v-6.718h-2.382v6.512q0 1.423-.561 2.142-.56.72-1.76.72t-1.76-.72-.56-2.158V12.8zm11.047 0V24h2.37v-7.2l4.943 7.2h2.255V12.8h-2.367V20l-4.943-7.2zm23.32 2.527q-.562 0-.96.385-.401.383-.401.975 0 .351.178.671.191.32.511.512.32.177.672.178.384 0 .688-.178.303-.191.48-.512.192-.32.192-.672-.001-.59-.4-.974a1.34 1.34 0 0 0-.96-.385m-71.144.512 1.344 3.889H51.08zm71.144 5.633q-.562-.001-.96.382-.401.384-.401.977 0 .352.178.672.191.32.511.496.32.191.672.191.384 0 .688-.191.303-.176.48-.496.192-.32.192-.672-.001-.592-.4-.977a1.34 1.34 0 0 0-.96-.382m-58.238 7.83q-.528 0-.984.16a2.2 2.2 0 0 0-.809.496q-.344.335-.535.863-.192.52-.193 1.256v.16q0 1.016.32 1.649.329.624.896.92.577.287 1.305.287.479 0 .895-.104.416-.105.728-.328.312-.232.504-.6.192-.376.232-.896h-1.248q-.063.448-.359.687-.296.233-.752.233-.233 0-.457-.088a1.15 1.15 0 0 1-.408-.305 1.6 1.6 0 0 1-.295-.566 3 3 0 0 1-.113-.889v-.16q0-.672.177-1.057.185-.383.471-.543a1.2 1.2 0 0 1 .625-.168q.432 0 .727.223.296.225.384.697h1.248q-.031-.496-.232-.865a1.7 1.7 0 0 0-.512-.6 2.2 2.2 0 0 0-.736-.343 3.1 3.1 0 0 0-.879-.12m5.313 0q-.529 0-1 .16a2.4 2.4 0 0 0-.848.496q-.368.335-.584.863-.208.52-.207 1.256v.16q0 .768.207 1.313.216.543.584.886.375.336.848.497.471.16 1 .16.528 0 1-.16.471-.16.84-.497.376-.343.583-.886.216-.544.217-1.313v-.16q0-.736-.217-1.256a2.2 2.2 0 0 0-.584-.863 2.35 2.35 0 0 0-.84-.496 3.1 3.1 0 0 0-1-.16m28.138 0q-.648 0-1.129.199-.48.2-.736.56a1.4 1.4 0 0 0-.256.84q0 .528.21.871.214.345.622.545t.977.313q.487.095.79.207.305.104.45.256a.53.53 0 0 1 .152.392.5.5 0 0 1-.256.448q-.248.151-.824.152-.56 0-.793-.168a.77.77 0 0 1-.287-.48h-1.2q.024.496.281.873.265.367.76.576.496.207 1.24.207.728 0 1.233-.207.511-.208.775-.592.272-.384.272-.897a1.7 1.7 0 0 0-.127-.697 1.3 1.3 0 0 0-.377-.486 2 2 0 0 0-.608-.336 5 5 0 0 0-.808-.217q-.665-.128-.977-.305-.304-.176-.303-.488 0-.255.223-.406.225-.152.697-.152.465-.001.664.142.2.137.264.426h1.191a1.7 1.7 0 0 0-.279-.832 1.5 1.5 0 0 0-.69-.545q-.446-.2-1.15-.2m14.711 0a3 3 0 0 0-.974.16q-.465.16-.825.496a2.4 2.4 0 0 0-.56.863q-.2.527-.2 1.256v.16q0 1.016.337 1.649.343.624.927.92.591.287 1.336.287.552 0 1-.16t.768-.489q.328-.336.496-.84.176-.51.176-1.207v-.32h-2.28v.832h1.135q-.032.408-.215.672-.177.256-.457.377-.28.12-.623.12-.256 0-.496-.097a1.25 1.25 0 0 1-.44-.304 1.5 1.5 0 0 1-.304-.569 2.9 2.9 0 0 1-.111-.87v-.16q-.001-.657.175-1.042.184-.384.48-.55.304-.17.655-.169.225 0 .434.073a.9.9 0 0 1 .39.248q.176.175.29.511h1.248a2.4 2.4 0 0 0-.282-.808 1.8 1.8 0 0 0-.504-.576 2.1 2.1 0 0 0-.703-.344 3 3 0 0 0-.873-.12m-39.57.095V35h1.183v-3.6l2.473 3.6h1.127v-5.6h-1.184V33l-2.472-3.6zm5.19 0v.993h1.8V35h1.192v-4.607h1.8V29.4zm6.154 0-2.08 5.6h1.168l.423-1.145h2.073L87.28 35h1.266l-2.088-5.6zm3.683 0V35h1.194v-5.6zm2.162 0V35h1.184v-3.6l2.47 3.6h1.13v-5.6H94.71V33l-2.473-3.6zm12.15 0V35h1.192v-2.385h2.4V35h1.194v-5.6h-1.193v2.223h-2.4V29.4zm5.759 0V35h1.193v-5.6zm7.55 0V35h1.192v-2.385h2.4V35h1.192v-5.6h-1.192v2.223h-2.4V29.4zm-45.927.913q.367 0 .68.167.32.167.513.56.2.383.2 1.04v.16q0 .696-.2 1.104-.192.4-.514.576a1.4 1.4 0 0 1-.68.168q-.36 0-.68-.168-.318-.176-.519-.576-.192-.408-.191-1.104v-.16q0-.657.191-1.04.2-.392.52-.56t.68-.168m15.175.607.672 1.943h-1.344zm5.692 6.385q-.529 0-1 .16a2.4 2.4 0 0 0-.848.496q-.368.336-.584.863-.208.52-.207 1.256v.16q0 .768.207 1.313.216.543.584.886.375.336.848.497.471.16 1 .16.528 0 1-.16.471-.16.84-.497.375-.343.584-.886.216-.544.216-1.313v-.16q0-.736-.216-1.256a2.2 2.2 0 0 0-.584-.863 2.35 2.35 0 0 0-.84-.496 3.1 3.1 0 0 0-1-.16m23.101 0q-.528 0-1 .16a2.4 2.4 0 0 0-.847.496q-.368.336-.584.863-.209.52-.207 1.256v.16q0 .768.207 1.313.216.543.584.886.375.336.847.497t1 .16 1-.16.84-.497a2.3 2.3 0 0 0 .584-.886q.216-.544.217-1.313v-.16q0-.736-.217-1.256a2.2 2.2 0 0 0-.584-.863 2.35 2.35 0 0 0-.84-.496 3.1 3.1 0 0 0-1-.16m-35.728.095-2.08 5.6h1.168l.424-1.145h2.072L80.898 43h1.266l-2.088-5.6zm3.603 0V43h1.194v-3.56L85 41.88h.71l1.33-2.44V43h1.198v-5.6h-1.16l-1.695 3.153L83.68 37.4zm12.223 0v3.36q0 .784.287 1.304.288.52.817.776t1.248.256q.727 0 1.255-.256.528-.255.809-.776.287-.52.287-1.304V37.4h-1.191v3.256q0 .713-.28 1.073t-.88.359-.881-.36-.28-1.08V37.4zm5.523 0V43h1.184v-3.6l2.473 3.6h1.127v-5.6h-1.184V41l-2.473-3.6zm5.192 0v.993h1.799V43h1.191v-4.607h1.8V37.4zm12.467 0V43h1.191v-2.24h2.4v-.96h-2.4v-1.407h2.64V37.4zm-26.381.913q.367 0 .68.167a1.2 1.2 0 0 1 .513.56q.2.384.2 1.04v.16q0 .696-.2 1.104-.192.4-.514.576a1.4 1.4 0 0 1-.68.168 1.44 1.44 0 0 1-.679-.168q-.32-.176-.52-.576-.19-.408-.19-1.104v-.16q0-.656.19-1.04.2-.392.52-.56a1.44 1.44 0 0 1 .68-.167m23.101 0q.369 0 .682.167.32.168.512.56.2.384.199 1.04v.16q0 .696-.2 1.104-.191.4-.511.576a1.4 1.4 0 0 1-.682.168 1.44 1.44 0 0 1-.68-.168q-.319-.176-.519-.576-.192-.408-.191-1.104v-.16q0-.656.191-1.04.2-.392.52-.56a1.44 1.44 0 0 1 .68-.167m-35.175.607.671 1.943h-1.343zm7.138 6.385q-.648 0-1.127.199-.48.2-.736.56-.255.352-.256.84 0 .528.207.871.217.345.625.545.407.2.975.313.488.095.793.207.303.104.447.256a.53.53 0 0 1 .152.392.5.5 0 0 1-.256.448q-.248.151-.824.152-.56 0-.79-.168a.77.77 0 0 1-.29-.48h-1.2q.025.496.28.873.264.367.76.576.495.207 1.24.207.729 0 1.233-.207.51-.208.775-.592.272-.384.272-.897 0-.408-.127-.697a1.3 1.3 0 0 0-.377-.486 2 2 0 0 0-.608-.336 5.4 5.4 0 0 0-.808-.217q-.664-.128-.975-.305-.305-.176-.305-.488 0-.255.225-.406.224-.152.695-.153.464 0 .664.143.2.137.264.426h1.193a1.7 1.7 0 0 0-.28-.832 1.5 1.5 0 0 0-.688-.545q-.449-.2-1.153-.2m27.918 0q-.647 0-1.127.199a1.66 1.66 0 0 0-.736.56 1.4 1.4 0 0 0-.256.84q0 .528.207.871.216.345.625.545.408.2.977.313.487.095.79.207.306.104.45.256.15.152.15.392a.5.5 0 0 1-.256.448q-.248.151-.824.152-.56 0-.79-.168a.77.77 0 0 1-.29-.48h-1.2q.025.496.28.873.264.367.762.576.495.207 1.238.207.728 0 1.233-.207.511-.208.777-.592.271-.384.271-.897 0-.408-.128-.697a1.3 1.3 0 0 0-.375-.486 2 2 0 0 0-.61-.336 5 5 0 0 0-.806-.217q-.665-.128-.977-.305-.305-.176-.305-.488 0-.255.225-.406.223-.152.695-.153.465 0 .664.143.2.137.266.426h1.191a1.7 1.7 0 0 0-.281-.832 1.5 1.5 0 0 0-.687-.545q-.45-.2-1.153-.2m4.875 0q-.648 0-1.129.199-.48.2-.734.56a1.4 1.4 0 0 0-.258.84q0 .528.21.871.214.345.622.545t.977.313q.488.095.793.207.302.104.447.256a.53.53 0 0 1 .152.392q0 .287-.256.448-.249.151-.824.152-.561 0-.793-.168a.76.76 0 0 1-.287-.48h-1.2q.025.496.28.873.264.367.76.576.495.207 1.24.207.728 0 1.233-.207.51-.208.775-.592.271-.384.271-.897a1.7 1.7 0 0 0-.126-.697 1.3 1.3 0 0 0-.377-.486 2 2 0 0 0-.608-.336 5.4 5.4 0 0 0-.808-.217q-.664-.128-.975-.305-.305-.176-.305-.488 0-.255.225-.406.223-.152.695-.153.464 0 .664.143.199.137.264.426h1.191a1.7 1.7 0 0 0-.279-.832 1.5 1.5 0 0 0-.687-.545q-.45-.2-1.153-.2m-29.832.095V51h1.194v-5.6zm2.162 0V51h3.752v-.992h-2.56V45.4zm4.162 0V51h3.752v-.992h-2.56V45.4zm4.243 0V51h1.191v-5.6zm2.16 0V51h1.183v-3.6l2.473 3.6h1.129v-5.6h-1.186V49l-2.47-3.6zm5.677 0V51h3.905v-.992h-2.703V48.6h2.463v-.96h-2.463v-1.247h2.703V45.4z"/></svg>