<svg xmlns="http://www.w3.org/2000/svg" xml:space="preserve" width="153" height="26"><g style="display:inline"><path d="M6 72h1v18H6zm2 0h2v18H8zm3 0h4v18h-4zm5 0h4v18h-4zm5 0h2v18h-2zm4 0h1v18h-1zm2 0h2v18h-2zm3 0h1v18h-1zm3 0h4v18h-4zm5 0h2v18h-2zm6 0h2v18h-2zm3 0h1v18h-1zm2 0h4v18h-4zm5 0h2v18h-2zm4 0h1v18h-1zm2 0h4v18h-4zm6 0h1v18h-1zm2 0h2v18h-2zm6 0h2v18h-2zm3 0h2v18h-2zm3 0h1v18h-1zm2 0h2v18h-2zm4 0h2v18h-2zm5 0h1v18h-1zm2 0h3v18h-3zm7 0h1v18h-1zm2 0h1v18h-1zm3 0h4v18h-4zm5 0h1v18h-1zm2 0h2v18h-2zm3 0h1v18h-1zm3 0h2v18h-2zm3 0h4v18h-4zm5 0h1v18h-1zm2 0h3v18h-3zm5 0h3v18h-3zm5 0h3v18h-3zm6 0h1v18h-1zm2 0h1v18h-1zm3 0h4v26h-4zM0 72h4v26H0z" style="fill:#fff;stroke:none;stroke-width:6;stroke-linecap:square;stroke-miterlimit:10;stroke-dasharray:none" transform="translate(0 -72)"/><path d="M29.931 96.185v-5.68h1.888q1.36 0 2.088.744.736.736.736 2.104 0 1.36-.72 2.096t-2.056.736zm1.04-.904h.848q.888 0 1.32-.48t.432-1.448q0-.984-.432-1.464t-1.32-.48h-.848zm14.304.904 2.048-5.68h1.272l2.048 5.68h-1.088l-.472-1.344h-2.248l-.472 1.344zm1.864-2.232h1.64l-.816-2.4zm16.747 2.36q-.688 0-1.208-.264-.512-.264-.792-.744-.272-.488-.272-1.152v-3.656h1.04v3.656q0 .6.32.928t.912.328.912-.328q.328-.328.328-.928v-3.656h1.04v3.656q0 .664-.28 1.152-.28.48-.792.744-.504.264-1.208.264m14-.128v-5.68h1.888q1.36 0 2.088.744.736.736.736 2.104 0 1.36-.72 2.096t-2.056.736zm1.04-.904h.848q.888 0 1.32-.48t.432-1.448q0-.984-.432-1.464t-1.32-.48h-.848zm14.972.904v-5.68h1.04v5.68zm12.144 0 1.912-2.848-1.896-2.832h1.216l1.32 2.04 1.288-2.04h1.208l-1.888 2.816 1.912 2.864h-1.208l-1.328-2.072-1.328 2.072zm15.928 0v-1.12h1.168v1.12zm14.816.128q-.84 0-1.448-.352-.608-.36-.936-1.024-.32-.664-.32-1.584t.32-1.584q.328-.672.936-1.032t1.448-.36q.856 0 1.456.36.608.36.928 1.032.328.664.328 1.584t-.328 1.584q-.32.664-.928 1.024-.6.352-1.456.352m0-.904q.52 0 .88-.24.368-.248.56-.704.2-.464.2-1.112t-.2-1.112q-.192-.464-.56-.712-.36-.248-.88-.248-.504 0-.872.248t-.568.712q-.192.464-.192 1.112t.192 1.112q.2.456.568.704.368.24.872.24m14.01.776v-5.68h1.217l2.448 4.272v-4.272h1.04v5.68h-1.248l-2.416-4.152v4.152zm16.297 0v-5.68h3.824v.904h-2.784v1.48h2.688v.896h-2.688v1.496h2.848v.904z" aria-label="DAUDIX.ONE" style="font-weight:600;font-size:8px;line-height:1;font-family:Geist;-inkscape-font-specification:&quot;Geist Semi-Bold&quot;;text-align:center;letter-spacing:10.44px;word-spacing:0;white-space:pre;fill:#fff;stroke-width:6;stroke-linecap:square;stroke-miterlimit:10" transform="translate(-23.931 -71.377)"/></g></svg>