<svg xmlns="http://www.w3.org/2000/svg" xml:space="preserve" width="64" height="64"><g transform="translate(-192 -72)"><path d="M193 73h62v62h-62z" style="display:inline;fill:none;stroke:#fff;stroke-width:2;stroke-dasharray:none"/><circle cx="224" cy="104" r="25" style="fill:none;stroke:#fff;stroke-width:2;stroke-linecap:square;stroke-miterlimit:10;stroke-dasharray:none"/><path d="M211.328 86A22 22 0 0 0 206 91.328v25.016L236.344 86ZM242 91.656l-11.187 11.188c.363-.18.752-.325 1.15-.422l1.058-.133c2.048-.046 3.305.493 4.25 1.55.273.27.474.54.88 1.17-1.082.674-1.082.674-2.633 1.688-.34-.72-.878-1.17-1.463-1.35-.9-.27-2.049.022-2.274.99-.088.293-.066.563.07 1.058.365.832 1.592 1.193 2.696 1.71 3.172 1.287 4.241 2.667 4.504 4.31l-.069-.1c.25 1.417-.067 2.34-.111 2.474-1.171 4.005-7.697 4.14-10.307 1.506-.54-.63-.9-.944-1.214-1.664l2.744-1.576c.742 1.125 1.416 1.734 2.633 2.004 1.644.202 3.309-.36 2.949-2.116-.383-1.441-3.377-1.776-5.424-3.306-1.767-1.191-2.38-3.824-1.46-5.774l-3.216 3.217c.001 1.274.002 2.547-.006 3.818.007 1.914.17 3.625-.596 5.02-.53 1.08-1.542 1.778-2.716 2.117-1.805.405-3.528.158-4.81-.607a4.8 4.8 0 0 1-1.188-1.032L211.656 122h25.016a22 22 0 0 0 5.328-5.328zm-19.809 19.809-3.603 3.603c.278.42.566.735 1.047.973.579.182 1.854.313 2.35-.72.288-.5.213-2.099.206-3.856" style="fill:#fff;stroke-width:1"/><path d="m240 88-32 32" style="fill:#fff;stroke:#fff;stroke-width:4;stroke-linecap:square;stroke-miterlimit:10;stroke-dasharray:none"/></g></svg>