<svg xmlns="http://www.w3.org/2000/svg" xml:space="preserve" width="64" height="64"><path d="M193 217h62v62h-62z" style="display:inline;fill:none;stroke:#fff;stroke-width:2;stroke-dasharray:none" transform="translate(-192 -216)"/><path d="m389.735 233.492 2.496-15.146h2.474l-2.517 15.146zm-5.803-3.733.32-2.176h10.624l-.32 2.176zm1.003 3.733 2.474-15.146h2.475l-2.496 15.146zm-.192-9.109.32-2.197h10.624l-.32 2.197zm16.28 11.03v-18.987h1.664v18.986zm1.002-1.643q-1.834 0-3.178-.64-1.344-.662-2.112-1.814-.747-1.173-.875-2.73l2.752-.15q.128.96.555 1.622.426.66 1.152 1.024.725.34 1.749.34.875 0 1.493-.212.619-.235.939-.662.341-.426.341-1.045 0-.597-.277-1.024-.277-.448-1.067-.81-.768-.363-2.282-.705-1.835-.448-2.966-.981-1.109-.533-1.6-1.323-.49-.81-.49-2.026 0-1.302.64-2.283.64-1.003 1.834-1.536 1.195-.555 2.88-.555 1.771 0 3.008.64 1.238.619 1.942 1.728.725 1.11.874 2.539l-2.752.15q-.085-.811-.469-1.43t-1.045-.96-1.6-.341q-1.195 0-1.878.554-.661.534-.661 1.408 0 .598.277 1.003.299.384 1.024.683.726.277 2.048.576 1.984.448 3.136 1.088 1.174.618 1.664 1.493.512.853.512 1.963 0 1.344-.704 2.346-.682.982-1.941 1.536-1.237.534-2.923.534m7.427-4.971q-.085-.725-.192-1.75-.107-1.023-.192-2.09-.085-1.088-.085-1.941v-4.672h2.773v4.672q0 .853-.085 1.941-.064 1.067-.17 2.09-.108 1.025-.193 1.75zm-.704 4.693v-2.986h3.115v2.986zm17.325 1.515q-1.194.512-2.432.747t-2.581.234q-2.603 0-4.459-.917-1.834-.917-2.816-2.645-.96-1.75-.96-4.203 0-2.197.704-4.01.704-1.814 2.027-3.115 1.323-1.323 3.115-2.027 1.813-.725 4.01-.725 2.539 0 4.438.938 1.898.939 2.944 2.646 1.066 1.685 1.066 3.989 0 1.792-.554 3.115-.555 1.3-1.536 2.026-.982.726-2.262.726-1.173 0-1.877-.62-.683-.64-.747-1.684l.448-.086q-.213.704-.789 1.28-.555.555-1.301.896-.726.32-1.494.32-1.237 0-2.112-.469-.853-.49-1.322-1.387-.448-.896-.448-2.09 0-1.472.554-2.646.555-1.173 1.558-1.834 1.002-.683 2.325-.683 1.195 0 2.005.533.832.512 1.046 1.387l-.384.085.17-1.92h2.134l-.384 4.31q-.022.49-.086 1.045-.042.533-.042.917 0 .427.256.683.277.235.746.235 1.046 0 1.622-1.024.597-1.046.597-2.923 0-1.963-.747-3.307-.746-1.344-2.24-2.026-1.472-.683-3.648-.683-1.77 0-3.242.576-1.451.576-2.496 1.643-1.046 1.045-1.622 2.517t-.576 3.285q0 1.942.747 3.328.768 1.366 2.197 2.07 1.451.725 3.499.725 1.237 0 2.325-.213 1.11-.214 2.176-.662zm-4.565-4.97q.853 0 1.408-.427.576-.448.853-1.152.278-.704.278-1.494 0-.682-.214-1.194-.213-.534-.661-.832-.448-.299-1.152-.299-.79 0-1.344.427-.533.426-.832 1.13-.299.683-.299 1.558 0 1.002.448 1.642.47.64 1.515.64m-32.735 24.789v-15.147h2.773v14.293l-1.515-1.557h8.704v2.41zm16.94.34q-2.24 0-3.86-.938-1.622-.96-2.496-2.73-.854-1.771-.854-4.224t.854-4.224q.874-1.792 2.496-2.752 1.62-.96 3.86-.96 2.284 0 3.884.96 1.62.96 2.474 2.752.875 1.77.875 4.224 0 2.453-.875 4.224-.853 1.77-2.474 2.73-1.6.939-3.883.939m0-2.41q1.388 0 2.348-.64.98-.661 1.493-1.877.533-1.237.533-2.965t-.533-2.966q-.512-1.237-1.493-1.898-.96-.662-2.347-.662-1.344 0-2.325.662-.982.66-1.515 1.898-.512 1.238-.512 2.966t.512 2.965q.533 1.216 1.515 1.877.98.64 2.325.64m8.584 2.07v-15.147h2.773v14.293l-1.515-1.557h8.704v2.41zm11.181-4.694q-.085-.725-.192-1.75-.107-1.023-.192-2.09-.085-1.088-.085-1.941v-4.672h2.773v4.672q0 .853-.085 1.941-.064 1.067-.17 2.09-.108 1.025-.193 1.75zm-.704 4.694v-2.987h3.115v2.987z" aria-label="#$!@ LOL!" style="font-weight:600;font-size:21.3333px;line-height:1;font-family:Geist;-inkscape-font-specification:&quot;Geist Semi-Bold&quot;;text-align:center;letter-spacing:-1px;word-spacing:0;text-anchor:middle;white-space:pre;fill:#fff;stroke-width:6;stroke-linecap:square;stroke-miterlimit:10" transform="translate(-375.53 -203.796)"/></svg>