<svg xmlns="http://www.w3.org/2000/svg" width="64" height="64"><path d="M0 64v64h64V64Zm2 2h60v60H2Zm30 4C17.652 70 6 81.652 6 96s11.652 26 26 26 26-11.652 26-26-11.652-26-26-26m0 2a23.9 23.9 0 0 1 15.498 5.674l-.912.912-32 32-.912.912A23.9 23.9 0 0 1 8 96c0-13.267 10.733-24 24-24m-12.672 6A22 22 0 0 0 14 83.328v25.016L44.344 78Zm30.998 2.502A23.9 23.9 0 0 1 56 96c0 13.267-10.733 24-24 24a23.9 23.9 0 0 1-15.498-5.674l.912-.912 32-32zM50 83.656 38.814 94.842c.363-.18.752-.323 1.149-.42l1.058-.133c2.048-.046 3.305.493 4.25 1.55.273.27.474.54.88 1.17-1.082.674-1.082.674-2.633 1.688-.34-.72-.878-1.17-1.463-1.35-.9-.27-2.049.022-2.274.99-.088.293-.066.563.07 1.058.365.832 1.592 1.193 2.696 1.71 3.172 1.287 4.241 2.667 4.504 4.31l-.069-.1c.25 1.417-.067 2.34-.11 2.474-1.172 4.005-7.698 4.14-10.308 1.506-.54-.63-.9-.944-1.214-1.664l2.744-1.576c.742 1.125 1.416 1.734 2.633 2.004 1.644.202 3.309-.36 2.949-2.116-.383-1.441-3.377-1.776-5.424-3.306-1.767-1.191-2.38-3.823-1.459-5.774l-3.219 3.219c.001 1.273.004 2.545-.004 3.816.008 1.914.17 3.625-.595 5.02-.53 1.08-1.543 1.778-2.717 2.117-1.805.405-3.528.158-4.81-.607a4.7 4.7 0 0 1-1.188-1.032L19.656 114h25.016A22 22 0 0 0 50 108.672Zm-19.809 19.809-3.603 3.603c.278.42.566.735 1.047.973.579.182 1.854.313 2.35-.72.288-.5.213-2.099.206-3.856" style="fill:#fff;stroke-linecap:square;stroke-miterlimit:10" transform="translate(0 -64)"/></svg>