<svg xmlns="http://www.w3.org/2000/svg" width="64" height="64"><path d="M0 128v64h64v-64zm2 2h60v60H2Zm13.563 7.174 3.04 11.36h2.32l1.983-7.776 1.985 7.775h2.304l3.04-11.36h-2.208l-2.064 8.48-2.096-8.48h-1.935l-2.096 8.48-2.08-8.48zm15.14 0v11.36h7.777v-1.81h-5.697v-2.992h5.377v-1.79h-5.377v-2.962h5.569v-1.806zm8.758 0v11.36h4.832q1.984 0 3.057-.768 1.087-.785 1.087-2.354 0-1.231-.785-1.967-.721-.689-2.013-.785c.442-.04.827-.143 1.15-.318q.575-.304.863-.832.305-.545.305-1.266 0-1.6-1.088-2.336-1.073-.735-3.152-.734zm2.08 1.76h2.111q1.056-.001 1.618.367.559.368.558 1.137 0 .735-.576 1.119t-1.6.384h-2.111zm0 4.638h2.656q.992 0 1.551.416.56.417.56 1.201t-.576 1.184q-.559.4-1.535.4h-2.656zm-21.512 8.961q0 2.006-.511 3.201-.47 1.153-1.579 1.621-1.11.47-2.945.47h-2.601v4.224h6.484v20.777h5.547v-30.293Zm21.51 0-14.293 19.713v4.522h15.19v6.058h5.544v-6.058h3.627v-4.82H47.98v-19.415Zm.897 7.211v12.203h-9.131z" style="fill:#fff;stroke-linecap:square;stroke-miterlimit:10" transform="translate(0 -128)"/></svg>