<svg xmlns="http://www.w3.org/2000/svg" width="64" height="64"><path d="M0 192v64h64v-64zm2 2h60v60H2Zm44.031 11.418q-2.048.001-3.18 1.025-1.109 1.003-1.109 2.71 0 .66.172 1.236.192.555.533 1.088.342.51.832 1.087-1.13.726-1.814 1.43-.661.684-.98 1.451-.3.768-.3 1.729 0 1.962 1.344 3.03 1.344 1.044 3.84 1.044 1.408 0 2.518-.299 1.13-.299 1.79-.789l.62.746h3.223l-1.963-2.324q.683-.789 1.109-1.941.449-1.153.512-2.391l-2.774-.256q-.02 1.707-.619 2.56l-2.752-3.435q1.686-1.023 2.453-1.96.79-.94.79-2.241 0-1.025-.49-1.814-.492-.79-1.43-1.237t-2.325-.449m-11.353.086-1.471.896 1.28 1.942-2.303-.022v1.28h-1.496l.638-3.84h-2.474l-.633 3.84h-2.346l.633-3.84H24.03l-.627 3.84h-1.72l-.32 2.197h1.68l-.523 3.201h-1.648l-.32 2.176h1.613l-.61 3.732h2.454l.615-3.732h2.346l-.616 3.732h2.454l.62-3.732h1.749l.32-2.176H29.79l.531-3.201h1.666l.233-1.6h2.265l-1.279 1.942 1.47.875 1.218-2.028 1.216 2.028 1.471-.875-1.322-1.942h2.304v-1.877l-2.304.022 1.322-1.942-1.47-.896-1.217 2.07zm-24.198.256v15.146h2.774V214.7h6.976v-2.39h-6.976v-4.14h7.361v-2.41zm35.573 2.07q.66-.001 1.002.34.362.342.363.982 0 .428-.193.81-.17.385-.577.725a8 8 0 0 1-1.023.749 10 10 0 0 1-.64-.813 3.4 3.4 0 0 1-.319-.703 2.8 2.8 0 0 1-.086-.682q0-.661.385-1.025.383-.383 1.088-.383m-20.541 3.967h2.345l-.527 3.201h-2.346zm19.26 2.539 3.093 3.84q-.298.299-.875.468-.555.172-1.365.172-1.302 0-1.941-.511-.62-.513-.62-1.366.001-.789.385-1.386.404-.62 1.322-1.217m-15.72 12.416q-2.24 0-3.86.96-1.622.96-2.497 2.753-.853 1.77-.853 4.222 0 2.454.853 4.225.875 1.77 2.496 2.73 1.621.94 3.862.94 2.283 0 3.883-.94 1.62-.96 2.474-2.73.875-1.77.875-4.225 0-2.452-.875-4.222-.854-1.792-2.474-2.752-1.6-.96-3.883-.961m-16.94.342v15.146h9.962v-2.41h-7.19v-12.736zm25.523 0v15.146h9.963v-2.41h-7.19v-12.736zm10.713 0v4.672q0 .853.086 1.941.084 1.066.191 2.09t.191 1.75h1.856q.086-.726.193-1.75.106-1.024.17-2.09.086-1.088.086-1.941v-4.672zm-19.295 2.068q1.386 0 2.345.662.982.661 1.495 1.899.533 1.237.533 2.964 0 1.728-.533 2.965-.513 1.217-1.495 1.88-.959.638-2.345.638-1.344 0-2.326-.639-.982-.661-1.514-1.879-.512-1.237-.512-2.965t.512-2.964q.533-1.237 1.514-1.899.982-.661 2.326-.662m19.06 10.092v2.986h3.114v-2.986z" style="fill:#fff;stroke-linecap:square;stroke-miterlimit:10" transform="translate(0 -192)"/></svg>