<svg xmlns="http://www.w3.org/2000/svg" width="128" height="128" style="display:inline" version="1.0"><defs><filter id="a" width="1.408" height="1.373" x="-.204" y="-.186" style="color-interpolation-filters:sRGB"><feMorphology in="SourceGraphic" radius="4" result="result0"/><feGaussianBlur in="result0" result="result91" stdDeviation="8"/><feComposite in="SourceGraphic" in2="result91" operator="in"/></filter><filter id="b" width="1.056" height="1.068" x="-.028" y="-.034" style="color-interpolation-filters:sRGB"><feGaussianBlur in="SourceGraphic" result="blur" stdDeviation="1.5"/><feDiffuseLighting lighting-color="#fff" result="diffuse" surfaceScale="10"><feDistantLight azimuth="90" elevation="25"/></feDiffuseLighting><feComposite in="diffuse" in2="diffuse" k1="1" operator="arithmetic" result="composite1"/><feComposite in="composite1" in2="SourceGraphic" k1=".886" k3="1" operator="arithmetic" result="composite2"/></filter></defs><path d="M61.156 38.522c-2.294 5.742-4.504 15.245-7.173 4.313-2.002-7.765-6.279 4.865-9.39 7.03-6.272 4.77-9.744 11.489-12.53 18.688-7.378-6.273-4.61 3.795-5.063 8.719.402 7.38-.8 15.452.594 22.406 5.854 5.102 10.09 13.154 18.802 13.05 5.96 2.071 5.213-6.94 10.616.538 4.973 6.816 8.044 2.83 11.29-.523 4.744 7.261 6.197-8.687 10.198-1.534 6.184 2.407 11.73 3.552 12.744-4.61 1.27-6.446 12.353-6.577 9.756-14.327-.362-8.041.72-16.656-.531-24.344-4.198-3.276-7.436-10.841-12.219-11.5-5.918 2.872-3.637-9.79-6.073-13.516-.796-9.786-2.892-5.361-5.17 1.35-1.262 9.66-6.562 5.055-9.27-1.268-2.408-2.025-5.153-12.723-6.58-4.472" style="display:inline;fill:#f3e517;fill-opacity:1;fill-rule:evenodd;stroke:none;filter:url(#a)" transform="matrix(1.00154 0 0 1.00155 .25 -.434)"/><path d="m30.296 89.978 2.003 2.003 3.005 10.016 1.001-12.019 3.005 15.023v-19.03l2.003 5.009L44.318 105V85.97l2.003 2.004L49.325 105l3.005-23.035 6.626 25.96.385-15.945 2.003-6.01 2.003 25.04 6.01-25.04 2.002 21.033 5.008-22.034 5.008 24.038 1.001-18.028 3.005-6.01 1.001 23.036 5.008-22.034 3.005 10.015 1.001-9.014 3.005 6.01v-19.03l-3.005 8.013-1.001-17.027-2.004 13.02-2.003-4.006-1.001-14.021-5.008 19.03-1.001-4.007-3.005-30.047-3.005 26.04-2.003 8.013-4.005-27.04-4.006 23.036-2.003 6.01-1.002-41.37-6.009 46.377-6.009-42.065-3.005 36.056-2.003-4.007L45.32 51.92l-1.001 24.037-3.005 7.011L39.31 58.93l-2.003 19.03-3.005-5.008v14.021L30.296 71.95z" style="display:inline;fill:#ff7901;fill-opacity:1;stroke:none;stroke-width:1.002;stroke-linecap:butt;stroke-linejoin:miter;stroke-dasharray:none;stroke-opacity:1"/><path d="m51.328 67.943-1.162 1.936-.84 10.084-2.004-4.006-.097-1.174-1.907 3.176-1.226-1.473-2.78 6.48-.908-10.902-.093-.113-3.004 9.014-3.004-1.877v7.885l-2.524-9.463-1.482-.926v13.395l1.574 1.574 3.434-.573.814 1.223.186-2.224.715 3.576.287.43 2.004-2.506v-5.506l1.468 3.672.534-.668 3.005 3.757v-6.761l2.002 2.002.094.533.908-4.54 3.971 5.956 1.037-7.96 1.7 6.663 3.308-1.654 1.894 9.472.108-4.465 2.004-6.007.888 11.107 3.118-8.103 2.416 3.623 1.59-6.627.601 6.308 1.402-6.308 3.565 5.347 1.443-6.35 1.74 8.354 3.268-7.351 1.002 5.007 1.877-3.753.125-1.254.4.2.602-1.202.066 1.535 2.938 1.469 2.37.79.636-2.792 1.002 3.338 2.002.668.728-.547.273-2.46.82 1.64 2.184-1.64v-8.011l-1.365-1.365-1.639 4.369-.375-6.383-1.962-1.963-.668 4.34-1.668-3.34-3.34 3.34-1.531-4.594-1.473 5.596-1.002-4.006-.356-3.564-3.65 6.568-1.873-8.121-.129 1.111-2.004 8.012-1.373-9.272-3.635 7.268-2.142-6.96-.861 4.958-2.004 6.01-.301-12.39c-1.187 4.223-2.703 9.71-2.703 10.386 0 .798-1.62-3.397-2.395-5.432L58.34 85.973l-1.602-11.217-1.404-2.805-2.002 8.012Z" style="display:inline;fill:#ff0101;fill-opacity:1;fill-rule:evenodd;stroke:none;stroke-width:1.00154"/><path d="M64 6.875c-13.263 0-25.359 4.14-34.281 11.094C20.796 24.922 15 34.87 15 45.938v4C6.141 54.426 0 66.2 0 80c0 17.664 10.05 32 23 32V45.938c0-8.289 4.29-15.916 11.656-21.657S52.425 14.875 64 14.875s21.977 3.666 29.344 9.406C100.71 30.021 105 37.65 105 45.938V112c12.95 0 23-14.336 23-32 0-13.8-6.141-25.574-15-30.062v-4c0-11.068-5.796-21.016-14.719-27.97C89.36 11.017 77.263 6.876 64 6.876" style="display:inline;overflow:visible;visibility:visible;fill:#00c;fill-opacity:1;fill-rule:nonzero;stroke:none;stroke-width:18.99;marker:none;filter:url(#b);enable-background:accumulate" transform="matrix(1.00154 0 0 1.00155 .25 -.161)"/><path d="M26.29 48.915v63.097c2.003 0 4.006-1.001 5.008-3.004v-58.09c-1.002-1.002-3.005-2.003-5.008-2.003m76.117 0c-2.003 0-4.006 1.001-5.008 2.003v58.09c1.002 2.003 3.005 3.004 5.008 3.004z" style="display:inline;overflow:visible;visibility:visible;fill:#00c;fill-opacity:1;fill-rule:nonzero;stroke:none;stroke-width:19.0193;marker:none;enable-background:accumulate"/></svg>