<svg xmlns="http://www.w3.org/2000/svg" width="128" height="128"><path fill="#fff" d="M84.665 108.417c-17.386 0-31.479-13.294-31.479-29.691 0-16.395 14.093-29.689 31.479-29.689 17.387 0 31.48 13.294 31.48 29.689 0 16.397-14.093 29.691-31.48 29.691"/><path fill="#265787" d="M66.54 75.381c.23-4.165 2.275-7.841 5.353-10.444 3.024-2.559 7.087-4.122 11.524-4.122s8.5 1.563 11.524 4.122c3.078 2.603 5.12 6.279 5.355 10.442.235 4.287-1.486 8.27-4.506 11.216-3.079 3.002-7.466 4.888-12.373 4.888s-9.297-1.886-12.376-4.888c-3.02-2.948-4.738-6.929-4.5-11.214"/><path fill="#e87d0d" d="M39.657 83.815c.028 1.627.55 4.797 1.33 7.278 1.64 5.24 4.424 10.088 8.299 14.364a42.9 42.9 0 0 0 14.514 10.42 46.7 46.7 0 0 0 19.064 3.967 46.8 46.8 0 0 0 19.058-4.03c5.649-2.528 10.536-6.066 14.509-10.467 3.867-4.288 6.647-9.15 8.29-14.392a36.6 36.6 0 0 0 1.557-8.033c.207-2.656.119-5.32-.257-7.978a37.1 37.1 0 0 0-5.29-14.477 40.6 40.6 0 0 0-9.65-10.642l.006-.005-39.052-29.99-.1-.08c-2.567-1.965-6.876-1.96-9.692.013-2.852 1.995-3.173 5.289-.64 7.372l-.007.008 16.286 13.25-49.651.05h-.07c-4.102.002-8.043 2.7-8.829 6.099-.797 3.469 1.992 6.343 6.254 6.362v.011l25.163-.047L5.84 87.337l-.172.13C1.435 90.709.063 96.105 2.729 99.519c2.711 3.474 8.467 3.477 12.75.016l24.507-20.054s-.354 2.71-.329 4.334m62.976 9.062c-5.048 5.15-12.113 8.066-19.77 8.08-7.656.017-14.726-2.877-19.777-8.016a23.5 23.5 0 0 1-5.4-8.45 22 22 0 0 1-1.241-9.439 22.3 22.3 0 0 1 2.71-8.89 24.6 24.6 0 0 1 6.008-7.145c4.907-4.002 11.153-6.166 17.695-6.174s12.788 2.138 17.695 6.124a24.4 24.4 0 0 1 6.008 7.12 22.4 22.4 0 0 1 2.71 8.885 22 22 0 0 1-1.241 9.438 23.6 23.6 0 0 1-5.397 8.467"/></svg>