<svg xmlns="http://www.w3.org/2000/svg" xmlns:xlink="http://www.w3.org/1999/xlink" width="128" height="128"><defs><filter id="h" width="1.096" height="1.096" x="-.048" y="-.048" color-interpolation-filters="sRGB"><feGaussianBlur stdDeviation="9"/></filter><filter id="i" width="1.096" height="1.096" x="-.048" y="-.048"><feGaussianBlur stdDeviation="9"/></filter><filter id="j" width="1.204" height="1.282" x="-.102" y="-.141"><feGaussianBlur stdDeviation="9.267"/></filter><filter id="l" width="1.239" height="1.214" x="-.119" y="-.107"><feGaussianBlur stdDeviation="9.267"/></filter><filter id="m" width="1.204" height="1.282" x="-.102" y="-.141"><feGaussianBlur stdDeviation="9.267"/></filter><filter id="n" width="1.251" height="1.221" x="-.125" y="-.11"><feGaussianBlur stdDeviation="9.267"/></filter><filter id="o" width="1.239" height="1.214" x="-.119" y="-.107"><feGaussianBlur stdDeviation="9.267"/></filter><filter id="k" width="1.251" height="1.221" x="-.126" y="-.111"><feGaussianBlur stdDeviation="9.291"/></filter><filter id="p" width="1.235" height="1.235" x="-.118" y="-.118"><feGaussianBlur stdDeviation="3.136"/></filter><filter id="B" width="1.156" height="1.134" x="-.078" y="-.067"><feGaussianBlur stdDeviation="4.831"/></filter><filter id="x" width="1.123" height="1.173" x="-.062" y="-.087"><feGaussianBlur stdDeviation="4.819"/></filter><filter id="y" width="1.155" height="1.134" x="-.078" y="-.067"><feGaussianBlur stdDeviation="4.825"/></filter><filter id="C" width="1.153" height="1.136" x="-.076" y="-.068"><feGaussianBlur stdDeviation="5.057"/></filter><filter id="z" width="1.153" height="1.136" x="-.076" y="-.068"><feGaussianBlur stdDeviation="5.057"/></filter><filter id="A" width="1.123" height="1.173" x="-.062" y="-.087"><feGaussianBlur stdDeviation="4.822"/></filter><filter id="D" width="1.192" height="1.192" x="-.096" y="-.096" style="color-interpolation-filters:sRGB"><feGaussianBlur stdDeviation="1.758"/></filter><linearGradient id="g"><stop offset="0" style="stop-color:#fff;stop-opacity:1"/><stop offset="1" style="stop-color:#b0b0b0;stop-opacity:1"/></linearGradient><linearGradient id="a"><stop offset="0" style="stop-color:#ff7004;stop-opacity:1"/><stop offset="1" style="stop-color:#ba4704;stop-opacity:1"/></linearGradient><linearGradient id="f"><stop offset="0" style="stop-color:#d70016;stop-opacity:1"/><stop offset="1" style="stop-color:#8d0016;stop-opacity:1"/></linearGradient><linearGradient id="e"><stop offset="0" style="stop-color:#d000d0;stop-opacity:1"/><stop offset="1" style="stop-color:#760076;stop-opacity:1"/></linearGradient><linearGradient id="d"><stop offset="0" style="stop-color:#1476e6;stop-opacity:1"/><stop offset="1" style="stop-color:#143e9a;stop-opacity:1"/></linearGradient><linearGradient id="c"><stop offset="0" style="stop-color:#17b414;stop-opacity:1"/><stop offset="1" style="stop-color:#176314;stop-opacity:1"/></linearGradient><linearGradient id="b"><stop offset="0" style="stop-color:#f7f10e;stop-opacity:1"/><stop offset="1" style="stop-color:#c58907;stop-opacity:1"/></linearGradient><linearGradient xlink:href="#a" id="q" x1="372.859" x2="318.297" y1="593.388" y2="726.388" gradientTransform="matrix(.25 0 0 .25 .469 -133.442)" gradientUnits="userSpaceOnUse"/><linearGradient xlink:href="#b" id="r" x1="277.627" x2="454.048" y1="637.059" y2="683.489" gradientTransform="rotate(60 179.33 131.127)scale(.25)" gradientUnits="userSpaceOnUse"/><linearGradient xlink:href="#c" id="s" x1="253.838" x2="401.186" y1="725.269" y2="612.484" gradientTransform="rotate(120 102.287 130.856)scale(.25)" gradientUnits="userSpaceOnUse"/><linearGradient xlink:href="#d" id="t" x1="326.125" x2="342.125" y1="701.766" y2="581.766" gradientTransform="rotate(180 63.766 130.72)scale(.25)" gradientUnits="userSpaceOnUse"/><linearGradient xlink:href="#e" id="u" x1="456.976" x2="273.627" y1="694.418" y2="643.987" gradientTransform="rotate(-120 25.244 130.585)scale(.25)" gradientUnits="userSpaceOnUse"/><linearGradient xlink:href="#f" id="v" x1="432.115" x2="263.694" y1="650.053" y2="710.341" gradientTransform="rotate(-60 -51.798 130.315)scale(.25)" gradientUnits="userSpaceOnUse"/><linearGradient xlink:href="#g" id="w" x1="256" x2="256" y1="224" y2="288" gradientTransform="scale(.25)" gradientUnits="userSpaceOnUse"/></defs><path d="M510 287a225 225 0 0 1-221.518 224.973 225 225 0 0 1-228.374-218.01 225 225 0 0 1 214.449-231.72A225 225 0 0 1 509.569 273.08" style="opacity:.95;fill:#1a1a1a;fill-opacity:1;stroke:none;filter:url(#h)" transform="translate(-4.333 -4.311)scale(.23889)"/><path d="M510 287a225 225 0 0 1-221.518 224.973 225 225 0 0 1-228.374-218.01 225 225 0 0 1 214.449-231.72A225 225 0 0 1 509.569 273.08" style="display:inline;opacity:.95;fill:#1a1a1a;fill-opacity:1;stroke:none;filter:url(#i)" transform="translate(-4.333 -4.311)scale(.23889)"/><path d="M117.5 64.25a53.75 53.75 0 0 1-52.918 53.744 53.75 53.75 0 0 1-54.556-52.08 53.75 53.75 0 0 1 51.23-55.356 53.75 53.75 0 0 1 56.141 50.367" style="display:inline;opacity:.95;fill:#1a1a1a;fill-opacity:1;stroke:none;stroke-width:.238889"/><path d="m303.203 32.669-55.469 157.906 218.438-36.75C433.818 91.69 374.213 46.032 303.203 32.669" style="display:inline;fill:#000;fill-opacity:1;fill-rule:nonzero;stroke:none;filter:url(#j)" transform="scale(.25)"/><path d="M473.012 185.213 308.527 216.13l141.045 170.798c37.633-59.087 47.373-133.536 23.44-201.714" style="display:inline;fill:#000;fill-opacity:1;fill-rule:nonzero;stroke:none;filter:url(#k)" transform="scale(.25)"/><path d="m425.809 408.545-109.016-126.99L239.4 489.101c69.988 3.047 139.331-25.742 186.409-80.557" style="display:inline;fill:#000;fill-opacity:1;fill-rule:nonzero;stroke:none;filter:url(#l)" transform="scale(.25)"/><path d="m208.797 479.331 55.469-157.906-218.438 36.75c32.354 62.135 91.959 107.793 162.969 121.156" style="display:inline;fill:#000;fill-opacity:1;fill-rule:nonzero;stroke:none;filter:url(#m)" transform="scale(.25)"/><path d="m38.988 326.787 164.485-30.916L62.428 125.073C24.795 184.16 15.055 258.61 38.988 326.787" style="display:inline;fill:#000;fill-opacity:1;fill-rule:nonzero;stroke:none;filter:url(#n)" transform="scale(.25)"/><path d="m86.191 103.455 109.016 126.99L272.6 22.899c-69.988-3.048-139.331 25.741-186.41 80.556" style="display:inline;fill:#000;fill-opacity:1;fill-rule:nonzero;stroke:none;filter:url(#o)" transform="scale(.25)"/><circle cx="256" cy="256" r="32" style="display:inline;fill:#000;fill-opacity:1;stroke:none;filter:url(#p)" transform="scale(.25)"/><path d="M75.8 8.167 61.935 47.644l54.609-9.188c-8.089-15.533-22.99-26.948-40.742-30.289" style="display:inline;fill:url(#q);fill-opacity:1;fill-rule:nonzero;stroke:none;stroke-width:.25"/><path d="m118.253 46.303-41.121 7.73 35.261 42.699c9.408-14.772 11.843-33.384 5.86-50.429" style="display:inline;fill:url(#r);fill-opacity:1;fill-rule:nonzero;stroke:none;stroke-width:.25"/><path d="M106.452 102.136 79.198 70.39 59.85 122.275c17.497.762 34.833-6.435 46.602-20.139" style="display:inline;fill:url(#s);fill-opacity:1;fill-rule:nonzero;stroke:none;stroke-width:.25"/><path d="m52.2 119.833 13.866-39.477-54.609 9.188c8.089 15.533 22.99 26.948 40.742 30.289" style="display:inline;fill:url(#t);fill-opacity:1;fill-rule:nonzero;stroke:none;stroke-width:.25"/><path d="m9.747 81.697 41.121-7.73-35.261-42.699C6.199 46.04 3.764 64.652 9.747 81.697" style="display:inline;fill:url(#u);fill-opacity:1;fill-rule:nonzero;stroke:none;stroke-width:.25"/><path d="M21.548 25.864 48.802 57.61 68.15 5.725c-17.497-.762-34.833 6.435-46.602 20.139" style="display:inline;fill:url(#v);fill-opacity:1;fill-rule:nonzero;stroke:none;stroke-width:.25"/><circle cx="64" cy="64" r="8" style="fill:url(#w);fill-opacity:1;stroke:none;stroke-width:.25"/><path d="M262.75 177.906c62.523-10.733 125.195-20.603 187.625-31.875C419.72 95.155 367.864 57.206 309.656 44.25z" style="display:inline;opacity:.075;fill:#fff;fill-opacity:1;fill-rule:nonzero;stroke:none;filter:url(#x)" transform="scale(.25)"/><path d="M327.031 222.844c40.524 48.788 80.415 98.102 121.407 146.5 28.72-51.924 35.593-115.91 17.78-172.719z" style="display:inline;opacity:.125;fill:#fff;fill-opacity:1;fill-rule:nonzero;stroke:none;filter:url(#y)" transform="scale(.25)"/><path d="M253.688 479.313c59.785-1.051 118.43-27.006 158.75-70.875l-92.22-107.5z" style="display:inline;opacity:.075;fill:#fff;fill-opacity:1;fill-rule:nonzero;stroke:none;filter:url(#z)" transform="scale(.25)"/><path d="M61.438 365.688c30.573 50.936 82.515 89.038 140.906 102.062l46.906-133.656z" style="display:inline;opacity:.075;fill:#fff;fill-opacity:1;fill-rule:nonzero;stroke:none;filter:url(#A)" transform="scale(.25)"/><path d="M63.25 143.219c-28.513 51.852-35.189 115.62-17.469 172.156l139.25-26.219L63.72 142.344z" style="display:inline;opacity:.125;fill:#fff;fill-opacity:1;fill-rule:nonzero;stroke:none;filter:url(#B)" transform="scale(.25)"/><path d="M257.719 32.719C198.32 33.77 139.789 59.879 99.53 103.53l92.25 107.532 66.532-178.375z" style="display:inline;opacity:.075;fill:#fff;fill-opacity:1;fill-rule:nonzero;stroke:none;filter:url(#C)" transform="scale(.25)"/><path d="M254.781 234.031c-17.879-.186-28.234 25.63-14.562 37.5 10.37 10.67 31.406 7.507 36.219-7.156 5.241-12.604-3.314-29.036-17.282-30.156a21.5 21.5 0 0 0-4.375-.188" style="display:inline;opacity:.075;fill:#fff;fill-opacity:1;stroke:none;filter:url(#D)" transform="scale(.25)"/></svg>