<svg xmlns="http://www.w3.org/2000/svg" width="128" height="128"><defs><clipPath id="a" clipPathUnits="userSpaceOnUse"><path d="M1390.879 716.822h13.537v14.097h-13.537zm5.39 7.555-.099-.183-.147-.745 1.607-1.364.473-.02.475.284-.477-.47-1.097-.227-1.106.716-.075 1.17.301.798z" class="powerclip" style="display:block;opacity:1;fill:#000;fill-opacity:1;stroke:none;stroke-width:0;stroke-linecap:round;stroke-linejoin:round;stroke-dasharray:none;paint-order:stroke markers fill"/></clipPath><clipPath id="b" clipPathUnits="userSpaceOnUse"><path d="M1399.06 725.882c.149.27.44-1.029.333-1.931-.235-2.005-2.352-2.577-3.094-1.788-.63.657-.49 1.663.01 2.265.495.602 1.252.616 1.736.726s.842.406 1.02.728z" style="fill:none;fill-opacity:1;stroke:none;stroke-width:.0863068;stroke-linecap:round;stroke-linejoin:round"/></clipPath></defs><path d="M1399.06 725.882c.149.27.44-1.029.333-1.931-.235-2.005-2.352-2.577-3.094-1.788-.63.657-.49 1.663.01 2.265.495.602 1.252.616 1.736.726s.842.406 1.02.728z" clip-path="url(#a)" style="fill:#000;fill-opacity:1;stroke:none;stroke-width:0;stroke-linecap:round;stroke-linejoin:round;stroke-dasharray:none" transform="translate(-6865.904 -3508.306)scale(4.99765)"/><path d="M123.338 8.427h.405c.495.08 1.086.611 1.29 1.212.206.6 8.355 41.825-3.273 65.554-11.629 23.73-37.353 30.914-52.17 30.81-24.9.365-46.528-8.524-56.475-28.785 10.799-.365 14.39-10.825 14.566-19.535.055-2.687 4.266-31.928 5.232-33.215.265-.324.653-.16.844.135 4.048 6.327 7.773 9.595 13.236 12.582 8.68 3.75 14.333 5.127 27.14 2.85 12.807-2.278 33.897-9.88 47.727-30.638.53-.682 1.046-.93 1.48-.979z" style="color:#000;fill:#8c8073;fill-opacity:1;stroke-width:4.99759;stroke-linecap:round;-inkscape-stroke:none;paint-order:stroke fill markers"/><ellipse cx="46.674" cy="57.887" rx="14.275" ry="15.995" style="fill:#fff;fill-opacity:1;stroke:none;stroke-width:1.94377;stroke-linecap:round;stroke-linejoin:round"/><ellipse cx="49.753" cy="58.48" rx="8.589" ry="10.442" style="fill:#000;fill-opacity:1;stroke:none;stroke-width:2.00502;stroke-linecap:round;stroke-linejoin:round"/><circle cx="49.784" cy="52.71" r="3.913" style="fill:#fff;fill-opacity:1;stroke:none;stroke-width:1.93717;stroke-linecap:round;stroke-linejoin:round"/><ellipse cx=".081" cy="60.575" rx="12.155" ry="15.673" style="fill:#000;fill-opacity:1;stroke:none;stroke-width:2.92224;stroke-linecap:round;stroke-linejoin:round" transform="rotate(-11.791)skewX(-.14)"/><circle cx="10.834" cy="51.356" r="6.616" style="fill:#fff;stroke:none;stroke-width:2.97767;stroke-linecap:round;paint-order:stroke fill markers"/><path d="M92.674 80.34c-.873-.606.17-1.553 2.055-1.62 1.13-.049 2.562.24 4.064 1.096 4.041 2.31 4.18 5.151 2.852 5.768-.928.43-4.51-2.245-4.51-2.245s-2.61-1.71-4.46-2.998" style="fill:#000;fill-opacity:1;stroke:none;stroke-width:.438181;stroke-linecap:round;stroke-linejoin:round;stroke-dasharray:none"/><path d="M96.642 81.026c-7.965 11.058-20.146 17.728-40.026 14.911-2.595-.344-4.565 3.075 7.26 3.558 14.823.603 27.613-3.817 36.319-15.902z" style="color:#000;fill:#000;stroke-width:4.99759;-inkscape-stroke:none"/><path d="M94.93 89.495c-3.305-1.381-7.838 3.311-6.12 4.57 2.634 1.688 11.817 7.56 13.752 8.59 2.247 1.193 5.457-.938 5.457-.938l1.002-1.883s-.05-3.855-2.28-5.05c-1.453-.77-7.518-3.427-11.772-5.273h-.05z" style="fill:#f2840d;stroke-width:2.03234;stroke-linecap:round;stroke-linejoin:round"/><path d="M105.308 102.505c.42 1.484 1.897.81 2.794 1.308.897.5 1.104 2.109 2.586 1.682 1.481-.425 3.423-3.92 3.003-5.405-.42-1.484-1.897-.81-2.794-1.308-.896-.5-1.103-2.11-2.585-1.683-1.482.425-3.424 3.921-3.004 5.406" style="fill:#bbb;fill-opacity:1;stroke:none;stroke-width:.423613;stroke-linecap:round;stroke-linejoin:round"/><ellipse cx="78.124" cy="57.924" rx="18.741" ry="19.13" style="fill:#fff;fill-opacity:1;stroke:none;stroke-width:1.81707;stroke-linecap:round;stroke-linejoin:round"/><ellipse cx="82.658" cy="58.625" rx="11.604" ry="12.72" style="fill:#000;fill-opacity:1;stroke:none;stroke-width:2.57231;stroke-linecap:round;stroke-linejoin:round"/><circle cx="82.656" cy="51.694" r="4.982" style="fill:#fff;fill-opacity:1;stroke:none;stroke-width:1.88637;stroke-linecap:round;stroke-linejoin:round"/><path d="M1397.693 722.215c.127-.208.819.073.97.18-.3-.483-1.865-1.105-2.564-.335s-.055 2.09.207 2.431c-.077-.212-.23-.813-.069-.928s.533.54.839.35c.305-.189-.29-.712.01-.959.312-.247.733.444.997.133.226-.273-.505-.683-.39-.872" clip-path="url(#b)" style="fill:#8c8073;fill-opacity:1;stroke:none;stroke-width:0;stroke-linecap:round;stroke-linejoin:round;stroke-dasharray:none;stroke-opacity:1;paint-order:stroke markers fill" transform="translate(-6865.904 -3508.306)scale(4.99765)"/></svg>