<svg xmlns="http://www.w3.org/2000/svg" xmlns:xlink="http://www.w3.org/1999/xlink" width="128" height="128"><defs><linearGradient id="c"><stop offset="0" style="stop-color:#ff0;stop-opacity:1"/><stop offset="1" style="stop-color:#ff0;stop-opacity:0"/></linearGradient><linearGradient id="d"><stop offset="0" style="stop-color:#0ff;stop-opacity:1"/><stop offset="1" style="stop-color:#0ff;stop-opacity:0"/></linearGradient><linearGradient id="e"><stop offset="0" style="stop-color:#f0f;stop-opacity:1"/><stop offset="1" style="stop-color:#f0f;stop-opacity:0"/></linearGradient><linearGradient id="a"><stop offset="0" style="stop-color:#343434;stop-opacity:1"/><stop offset="1" style="stop-color:#4d4d4d;stop-opacity:1"/></linearGradient><linearGradient id="b"><stop offset="0" style="stop-color:#5596ea;stop-opacity:1"/><stop offset="1" style="stop-color:#5596ea;stop-opacity:0"/></linearGradient><linearGradient xlink:href="#a" id="j" x1="1142.588" x2="1280.895" y1="62.713" y2="200.874" gradientTransform="rotate(-5.889 132.48 4834.566)scale(.43787)" gradientUnits="userSpaceOnUse"/><linearGradient xlink:href="#b" id="k" x1="1327.594" x2="1324.91" y1="230.862" y2="89.862" gradientTransform="scale(.43787 -.43787)rotate(-89.363 546.686 590.158)" gradientUnits="userSpaceOnUse"/><linearGradient xlink:href="#c" id="g" x1="112" x2="711.864" y1="512" y2="512" gradientTransform="translate(-151.426 -87.426)scale(.125)" gradientUnits="userSpaceOnUse"/><linearGradient xlink:href="#d" id="h" x1="112" x2="711.864" y1="512" y2="512" gradientTransform="translate(-40.574 23.426)scale(.125)" gradientUnits="userSpaceOnUse"/><linearGradient xlink:href="#e" id="i" x1="112" x2="711.864" y1="512" y2="512" gradientTransform="translate(0 -128)scale(.125)" gradientUnits="userSpaceOnUse"/><clipPath id="f" clipPathUnits="userSpaceOnUse"><circle cx="532" cy="538" r="400" style="opacity:1;vector-effect:none;fill:#000;fill-opacity:.47451;stroke:none;stroke-width:4;stroke-linecap:square;stroke-linejoin:round;stroke-miterlimit:4;stroke-dasharray:none;stroke-dashoffset:3.2;stroke-opacity:1"/></clipPath></defs><circle cx="532" cy="532" r="406.5" clip-path="url(#f)" style="fill:#000;fill-opacity:.47451;stroke:none;stroke-width:2.22599;stroke-linecap:butt;stroke-linejoin:round;stroke-miterlimit:4;stroke-dasharray:none;stroke-opacity:1" transform="translate(-2.5)scale(.125)"/><circle cx="64" cy="64" r="50" style="display:inline;vector-effect:none;fill:#fff;fill-opacity:1;stroke:none;stroke-width:.5;stroke-linecap:square;stroke-linejoin:round;stroke-miterlimit:4;stroke-dasharray:none;stroke-dashoffset:3.2;stroke-opacity:1"/><circle cx="-87.426" cy="-23.426" r="50" style="display:inline;vector-effect:none;fill:url(#g);fill-opacity:1;stroke:none;stroke-width:.5;stroke-linecap:square;stroke-linejoin:round;stroke-miterlimit:4;stroke-dasharray:none;stroke-dashoffset:3.2;stroke-opacity:1" transform="rotate(-150)"/><circle cx="23.426" cy="87.426" r="50" style="display:inline;vector-effect:none;fill:url(#h);fill-opacity:1;stroke:none;stroke-width:.5;stroke-linecap:square;stroke-linejoin:round;stroke-miterlimit:4;stroke-dasharray:none;stroke-dashoffset:3.2;stroke-opacity:1" transform="rotate(-30)"/><circle cx="64" cy="-64" r="50" style="display:inline;vector-effect:none;fill:url(#i);fill-opacity:1;stroke:none;stroke-width:.5;stroke-linecap:square;stroke-linejoin:round;stroke-miterlimit:4;stroke-dasharray:none;stroke-dashoffset:3.2;stroke-opacity:1" transform="rotate(90)"/><path d="M28.093 29.282a50 50 0 0 0-7.458 9.909c7.31 7.154 15.183 14.746 18.394 18.205 5.43 5.853 16.752 14.403 25.009 13.42 3.26 2.292 10.647 7.43 13.117 8.648-.049 1.18.188 2.377.612 3.566 2.316 6.48 10.97 10.69 5.933 17.596 9.917-6.01 12.555-16.039 8.353-23.193-2.624-4.467-6.442-5.933-9.62-4.865-1.903-2.153-9.473-8.439-12.26-10.734-1.778-7.992-12.556-16.236-19.422-19.812-4.196-2.185-13.795-7.585-22.658-12.74" style="display:inline;fill:#000;fill-opacity:.47451;stroke:none;stroke-width:19.6165;stroke-linecap:butt;stroke-linejoin:miter;stroke-miterlimit:4;stroke-dasharray:none;stroke-dashoffset:0;stroke-opacity:1"/><path d="M70.263 67.89c-8.01 7.475-23.424-4.383-29.929-11.83-6.691-7.659-31.675-33.492-33.502-35.167-1.826-1.676-3.28-3.745-1.665-5.803 1.68-2.005 4.005-1.009 6.021.432s32.45 20.557 41.325 25.523c8.629 4.829 23.411 17.463 17.75 26.844" style="display:inline;fill:url(#j);fill-opacity:1;stroke:none;stroke-width:19.6165;stroke-linecap:butt;stroke-linejoin:miter;stroke-miterlimit:4;stroke-dasharray:none;stroke-dashoffset:0;stroke-opacity:1"/><path d="M83.115 75.267c-31.267 27.892-56.84 1.16-60.802-8.1 2.343 16.073 13.174 30.457 29.535 35.992 12.357 4.18 32.076 4.084 40.916-11.843z" style="display:inline;fill:url(#k);fill-opacity:1;stroke:none;stroke-width:19.6165;stroke-linecap:butt;stroke-linejoin:miter;stroke-miterlimit:4;stroke-dasharray:none;stroke-dashoffset:0;stroke-opacity:1"/><path d="M82.986 77.891c-2.554 1.17-2.278 2.016-4.546 1.65-1.564-.25-15.114-10.522-15.114-10.522-.687-1.648.137-3.914 1.685-5.707 1.435-1.884 3.482-3.158 5.237-2.826 0 0 12.846 11.139 13.415 12.617.824 2.144-.06 2.048-.677 4.788" style="fill:#bfbfbf;fill-opacity:1;stroke:none;stroke-width:19.6165;stroke-linecap:butt;stroke-linejoin:miter;stroke-miterlimit:4;stroke-dasharray:none;stroke-dashoffset:0;stroke-opacity:1"/><path d="M83.687 100.612c10.093-5.71 13.031-15.655 9.046-22.931-3.097-5.655-8.183-6.724-11.695-3.99-3.485 2.712-3.792 5.944-2.752 9.154 2.12 6.547 10.644 11.015 5.4 17.767" style="fill:#282828;fill-opacity:1;stroke:none;stroke-width:19.6165;stroke-linecap:butt;stroke-linejoin:miter;stroke-miterlimit:4;stroke-dasharray:none;stroke-dashoffset:0;stroke-opacity:1"/></svg>